<?xml version="1.0" encoding="UTF-8"?> <svg xmlns="http://www.w3.org/2000/svg" width="303" height="178" viewBox="0 0 303 178" fill="none"> <rect x="0.10791" y="0.874023" width="302" height="177" rx="10" fill="white"></rect> <path d="M109.754 90.0097C109.754 90.3729 109.729 90.8209 109.679 91.3536H93.8449C94.0468 92.8307 94.6782 94.0172 95.7387 94.9132C96.7993 95.7849 98.1504 96.2208 99.792 96.2208C100.903 96.2208 101.901 96.015 102.784 95.6033C103.694 95.1916 104.388 94.6347 104.868 93.9325L108.958 94.5863C108.252 96.3298 107.027 97.6737 105.284 98.618C103.567 99.5624 101.648 100.035 99.5268 100.035C97.5568 100.035 95.7891 99.623 94.2237 98.7996C92.6832 97.9521 91.4712 96.7898 90.5871 95.3127C89.7284 93.8114 89.2993 92.1164 89.2993 90.2276C89.2993 88.3389 89.7284 86.6559 90.5871 85.1788C91.4712 83.6775 92.6832 82.5152 94.2237 81.6919C95.7891 80.8444 97.5568 80.4207 99.5268 80.4207C101.496 80.4207 103.252 80.8444 104.792 81.6919C106.358 82.5152 107.57 83.6654 108.428 85.1425C109.312 86.5954 109.754 88.2178 109.754 90.0097ZM99.5268 84.0528C98.2136 84.0528 97.0644 84.4161 96.0796 85.1425C95.1202 85.869 94.4634 86.8497 94.1101 88.0846H105.019C104.641 86.8739 103.959 85.9053 102.974 85.1788C102.014 84.4282 100.865 84.0528 99.5268 84.0528Z" fill="black"></path> <path d="M121.632 100.038C119.788 100.038 118.134 99.6261 116.669 98.8028C115.205 97.9553 114.056 96.7929 113.223 95.3158C112.414 93.8145 112.01 92.1195 112.01 90.2307C112.01 88.342 112.414 86.6591 113.223 85.182C114.056 83.6807 115.205 82.5183 116.669 81.695C118.134 80.8475 119.788 80.4238 121.632 80.4238C123.223 80.4238 124.637 80.7386 125.874 81.3681C127.112 81.9735 128.122 82.7363 128.904 83.6564V74.0674H133.261V99.6745H130.003L129.094 96.6235C128.286 97.5678 127.25 98.379 125.988 99.057C124.725 99.7108 123.273 100.038 121.632 100.038ZM122.692 96.2966C124.536 96.2966 126.026 95.7396 127.162 94.6257C128.324 93.4877 128.904 92.0226 128.904 90.2307C128.904 88.4389 128.324 86.986 127.162 85.8721C126.026 84.734 124.536 84.1649 122.692 84.1649C120.874 84.1649 119.397 84.734 118.261 85.8721C117.124 86.986 116.556 88.4389 116.556 90.2307C116.556 92.0226 117.124 93.4877 118.261 94.6257C119.397 95.7396 120.874 96.2966 122.692 96.2966Z" fill="black"></path> <path d="M145.573 100.037C144.184 100.037 142.921 99.6978 141.785 99.0199C140.674 98.3418 139.79 97.4095 139.133 96.223C138.502 95.0365 138.186 93.6926 138.186 92.1913V80.7861H142.542V91.7191C142.542 93.0751 142.934 94.1769 143.716 95.0244C144.525 95.8719 145.547 96.2957 146.785 96.2957C148.048 96.2957 149.095 95.8719 149.929 95.0244C150.762 94.1527 151.179 93.0509 151.179 91.7191V80.7861H155.535V99.6736H152.277L151.406 96.8405C150.775 97.8333 149.941 98.6203 148.906 99.2014C147.871 99.7584 146.759 100.037 145.573 100.037Z" fill="black"></path> <path d="M169.59 100.035C167.62 100.035 165.852 99.623 164.287 98.7996C162.721 97.9521 161.497 96.7898 160.613 95.3127C159.754 93.8114 159.325 92.1164 159.325 90.2276C159.325 88.3389 159.754 86.6559 160.613 85.1788C161.497 83.6775 162.721 82.5152 164.287 81.6919C165.852 80.8444 167.62 80.4207 169.59 80.4207C171.762 80.4207 173.681 80.9413 175.348 81.9825C177.04 82.9995 178.239 84.4524 178.946 86.3411L174.855 86.995C174.426 86.1716 173.756 85.5058 172.847 84.9972C171.964 84.4887 170.966 84.2345 169.855 84.2345C168.088 84.2345 166.648 84.7914 165.537 85.9053C164.426 87.0192 163.87 88.4599 163.87 90.2276C163.87 91.9953 164.426 93.4361 165.537 94.5499C166.648 95.6638 168.088 96.2208 169.855 96.2208C171.017 96.2208 172.052 95.9665 172.961 95.458C173.87 94.9253 174.552 94.2352 175.007 93.3876L179.098 94.0414C178.391 95.9544 177.166 97.4315 175.423 98.4727C173.681 99.514 171.737 100.035 169.59 100.035Z" fill="black"></path> <path d="M190.167 80.4207C192.693 80.4207 194.675 81.1834 196.114 82.7089C197.579 84.2102 198.311 86.329 198.311 89.0653V99.6714H195.091L194.182 96.693C193.627 97.5889 192.806 98.3759 191.72 99.0539C190.634 99.7077 189.347 100.035 187.857 100.035C186.543 100.035 185.357 99.7804 184.296 99.2718C183.261 98.7633 182.452 98.049 181.872 97.1288C181.291 96.2087 181 95.1674 181 94.0051C181 92.2132 181.733 90.7846 183.197 89.7191C184.687 88.6294 186.846 88.0846 189.675 88.0846H193.917C193.816 86.8254 193.412 85.8327 192.705 85.1062C192.023 84.3555 191.101 83.9802 189.94 83.9802C189.006 83.9802 188.197 84.1981 187.516 84.634C186.834 85.0699 186.329 85.6026 186.001 86.2322L181.985 85.5784C182.465 83.9802 183.45 82.721 184.94 81.8009C186.455 80.8807 188.197 80.4207 190.167 80.4207ZM188.879 96.5113C190.394 96.5113 191.619 96.0391 192.554 95.0948C193.488 94.1504 193.955 92.9033 193.955 91.3536H189.826C186.872 91.3536 185.395 92.1769 185.395 93.8235C185.395 94.6468 185.71 95.3006 186.341 95.7849C186.973 96.2692 187.819 96.5113 188.879 96.5113Z" fill="black"></path> <path d="M214.78 96.0388L214.401 99.671H210.727C208.58 99.671 206.951 99.1868 205.84 98.2182C204.729 97.2254 204.174 95.7967 204.174 93.9322V84.4157H200.954V80.7835H204.174L205.272 75.3352H208.53V80.7835H214.401V84.4157H208.53V93.9322C208.53 95.3366 209.262 96.0388 210.727 96.0388H214.78Z" fill="black"></path> <path d="M222.75 99.6665H218.394V80.779H222.75V99.6665ZM220.591 78.0912C219.783 78.0912 219.126 77.8611 218.621 77.401C218.116 76.9167 217.864 76.2993 217.864 75.5486C217.864 74.798 218.116 74.1805 218.621 73.6962C219.152 73.2119 219.808 72.9697 220.591 72.9697C221.374 72.9697 222.018 73.2119 222.523 73.6962C223.028 74.1805 223.281 74.798 223.281 75.5486C223.281 76.2993 223.028 76.9167 222.523 77.401C222.018 77.8611 221.374 78.0912 220.591 78.0912Z" fill="black"></path> <path d="M237.252 100.035C235.231 100.035 233.413 99.623 231.797 98.7996C230.206 97.9521 228.956 96.7898 228.047 95.3127C227.163 93.8114 226.721 92.1164 226.721 90.2276C226.721 88.3389 227.163 86.6559 228.047 85.1788C228.956 83.6775 230.206 82.5152 231.797 81.6919C233.413 80.8444 235.231 80.4207 237.252 80.4207C239.272 80.4207 241.077 80.8444 242.668 81.6919C244.284 82.5152 245.535 83.6775 246.418 85.1788C247.327 86.6559 247.782 88.3389 247.782 90.2276C247.782 92.1164 247.327 93.8114 246.418 95.3127C245.535 96.7898 244.284 97.9521 242.668 98.7996C241.077 99.623 239.272 100.035 237.252 100.035ZM237.252 96.2208C239.019 96.2208 240.459 95.6759 241.57 94.5863C242.681 93.4724 243.237 92.0195 243.237 90.2276C243.237 88.4357 242.681 86.995 241.57 85.9053C240.459 84.7914 239.019 84.2345 237.252 84.2345C235.484 84.2345 234.044 84.7914 232.933 85.9053C231.822 86.995 231.266 88.4357 231.266 90.2276C231.266 92.0195 231.822 93.4724 232.933 94.5863C234.044 95.6759 235.484 96.2208 237.252 96.2208Z" fill="black"></path> <path d="M251.569 99.6714V80.7839H254.826L255.698 83.617C256.329 82.6242 257.162 81.8493 258.198 81.2924C259.258 80.7112 260.395 80.4207 261.607 80.4207C263.021 80.4207 264.296 80.7596 265.432 81.4377C266.569 82.1157 267.465 83.0479 268.122 84.2345C268.779 85.421 269.107 86.7649 269.107 88.2662V99.6714H264.751V88.7384C264.751 87.3824 264.347 86.2806 263.539 85.4331C262.731 84.5856 261.695 84.1618 260.433 84.1618C259.12 84.1618 258.034 84.5977 257.175 85.4694C256.342 86.3169 255.925 87.4066 255.925 88.7384V99.6714H251.569Z" fill="black"></path> <path d="M33.1079 88.554C33.1079 79.2768 33.1079 74.6382 36.0308 71.7561C38.9537 68.874 43.6581 68.874 53.0668 68.874H54.73C64.1387 68.874 68.843 68.874 71.766 71.7561C74.6889 74.6382 74.6889 79.2768 74.6889 88.554V90.194C74.6889 99.4713 74.6889 104.11 71.766 106.992C68.843 109.874 64.1387 109.874 54.73 109.874H53.0668C43.6581 109.874 38.9537 109.874 36.0308 106.992C33.1079 104.11 33.1079 99.4713 33.1079 90.194V88.554Z" fill="#0077FF"></path> <path d="M55.2542 98.4058C45.7677 98.4058 40.3568 91.9996 40.1313 81.3396H44.8832C45.0393 89.1638 48.5425 92.4779 51.3173 93.1612V81.3396H55.7919V88.0875C58.5321 87.7971 61.4106 84.7221 62.3818 81.3396H66.8564C66.1106 85.5079 62.9889 88.5829 60.769 89.8471C62.9889 90.8721 66.5444 93.5542 67.8971 98.4058H62.9716C61.9137 95.16 59.2778 92.6487 55.7919 92.3071V98.4058H55.2542Z" fill="white"></path> </svg> 