<?xml version="1.0" encoding="UTF-8"?> <svg xmlns="http://www.w3.org/2000/svg" width="302" height="177" viewBox="0 0 302 177" fill="none"> <rect width="302" height="177" rx="10" fill="white"></rect> <path fill-rule="evenodd" clip-rule="evenodd" d="M128.283 127.146C128.073 129.711 127.19 131.73 125.549 133.287C123.909 134.801 121.806 135.6 119.24 135.6C116.296 135.6 113.94 134.591 112.174 132.614C110.407 130.637 109.524 127.987 109.524 124.706C109.524 122.729 109.902 120.921 110.66 119.28C111.417 117.64 112.552 116.336 114.067 115.326C115.581 114.317 117.389 113.812 119.408 113.812C121.596 113.812 123.53 114.401 125.171 115.621C126.811 116.841 127.779 118.607 128.115 120.879H124.498C124.245 119.617 123.657 118.649 122.731 117.934C121.806 117.219 120.67 116.883 119.324 116.883C117.936 116.883 116.758 117.261 115.791 118.06C114.824 118.86 114.151 119.785 113.73 120.921C113.352 122.056 113.141 123.318 113.141 124.664C113.141 125.674 113.267 126.641 113.478 127.524C113.73 128.408 114.067 129.249 114.529 130.006C114.992 130.763 115.623 131.352 116.464 131.815C117.263 132.277 118.231 132.488 119.282 132.488C122.395 132.488 124.161 130.721 124.582 127.188H128.283V127.146ZM131.522 114.233H141.028C143.215 114.233 144.898 114.696 146.033 115.663C147.211 116.588 147.758 117.892 147.758 119.491C147.758 120.5 147.505 121.383 146.959 122.182C146.412 122.982 145.697 123.528 144.813 123.907C146.033 124.201 146.959 124.79 147.674 125.674C148.389 126.557 148.725 127.65 148.725 128.996C148.725 130.847 148.136 132.319 146.917 133.455C145.697 134.591 144.098 135.137 142.164 135.137H131.522V114.233ZM135.055 117.177V122.898H140.018C141.407 122.898 142.458 122.687 143.131 122.225C143.804 121.804 144.14 121.047 144.14 120.037C144.14 118.86 143.804 118.103 143.089 117.724C142.416 117.345 141.407 117.177 140.145 117.177H135.055ZM135.055 125.547V132.067H140.523C141.911 132.067 143.047 131.815 143.846 131.352C144.645 130.889 145.024 130.048 145.024 128.828C145.024 128.155 144.898 127.566 144.645 127.104C144.393 126.641 144.056 126.305 143.594 126.094C143.131 125.884 142.668 125.716 142.164 125.674C141.659 125.589 141.112 125.547 140.439 125.547H135.055ZM172.49 124.58C172.49 127.146 171.607 129.123 169.84 130.553C168.073 131.983 165.97 132.698 163.531 132.74V135.095H159.871V132.74C158.315 132.698 156.885 132.403 155.581 131.815C154.277 131.226 153.142 130.342 152.258 129.081C151.375 127.819 150.912 126.347 150.912 124.58C150.912 122.056 151.754 120.037 153.478 118.607C155.203 117.135 157.348 116.378 159.871 116.294V114.275H163.531V116.294C166.097 116.378 168.242 117.177 169.924 118.607C171.649 120.037 172.49 122.014 172.49 124.58ZM168.831 124.58C168.831 121.509 167.064 119.827 163.531 119.448V129.585C165.255 129.375 166.559 128.87 167.485 128.113C168.41 127.356 168.831 126.136 168.831 124.58ZM159.871 129.543V119.406C156.338 119.785 154.572 121.51 154.572 124.538C154.572 126.136 155.034 127.314 155.96 128.071C156.843 128.87 158.147 129.333 159.871 129.543ZM180.524 129.207L173.331 114.233H177.369L182.374 125.379L187.506 114.233H191.46L183.384 130.805C182.543 132.53 181.659 133.749 180.692 134.464C179.724 135.179 178.673 135.558 177.453 135.558C176.612 135.558 175.771 135.39 175.014 135.011V131.941C175.56 132.277 176.36 132.445 177.369 132.445C178 132.445 178.505 132.193 178.967 131.73C179.388 131.226 179.935 130.427 180.566 129.249L180.524 129.207Z" fill="#1E3A4A"></path> <path fill-rule="evenodd" clip-rule="evenodd" d="M123.32 62.8337C123.993 63.1282 125.339 63.717 126.643 64.2638L123.32 62.8337ZM152.468 42.3078C143.341 42.3078 135.097 46.0512 129.166 52.1081C123.194 39.3635 115.454 42.3078 107 49.7526C112.889 48.0702 118.861 53.2858 123.572 59.7633C121.175 64.3059 119.829 69.4795 119.829 74.9895C119.829 93.0339 134.424 107.629 152.468 107.629C170.513 107.629 185.108 93.0339 185.108 74.9895C185.108 61.2775 176.654 49.5423 164.666 44.7053C165.634 43.9061 166.475 43.2752 167.022 42.8966C168.746 41.6768 168.241 42.0133 168.031 42.1395L164.035 44.4529C160.418 43.0649 156.548 42.3078 152.468 42.3078ZM130.344 54.6318V52.4866L142.836 52.7811L139.177 61.3616L134.676 63.2544C133.457 61.1933 132.069 58.3752 130.344 54.6318ZM135.055 63.8853L138.714 62.3711L136.948 66.4931C136.401 65.8622 135.77 65.0209 135.055 63.8853ZM137.579 67.082L139.766 61.9505L148.725 58.207L141.07 67.4605C139.892 68.1335 138.798 68.0914 137.579 67.082ZM149.734 56.9872L140.186 60.983L143.593 52.9072L150.66 55.8515L149.734 56.9872ZM151.165 55.2627L144.056 52.3184L152.847 43.4434L157.474 48.1964L156.464 48.7852L151.165 55.2627ZM158.147 47.8178L153.856 43.4014C156.969 43.5275 159.997 44.1164 162.816 45.1259L158.147 47.8178ZM163.741 45.4624C163.951 45.5465 164.162 45.6306 164.372 45.7147L161.89 51.6454L159.493 49.2058C161.049 47.7757 162.521 46.4718 163.741 45.4624ZM158.946 49.7106L161.301 52.1501L153.183 55.5571C155.16 53.412 157.137 51.4351 158.946 49.7106ZM152.006 56.819L152.51 56.6087L162.437 60.7307L163.404 61.5719C163.362 61.656 163.362 61.7401 163.32 61.8663L160.881 62.7076L163.615 62.8337L160.881 66.451L164.162 63.2964L164.54 66.3669L164.834 63.3805L165.928 65.6519L166.054 63.3805L166.433 63.5909L171.27 74.9474L165.886 87.65L152.51 93.2021L140.986 88.4492C141.827 87.8603 142.374 87.4818 142.332 87.3976C135.812 78.8592 143.425 66.451 152.006 56.819ZM140.229 88.9118L151.543 93.5807L143.551 96.9035L140.186 88.9539L140.229 88.9118ZM139.514 89.3745L142.752 97.0297L130.176 97.24L130.218 84.8319L131.816 85.5049C131.732 88.5754 132.153 91.6038 133.288 93.2442C134.298 92.6133 137.242 90.8467 139.514 89.3745ZM131.858 84.6216L130.344 83.9907L132.952 77.8917C132.994 78.2282 133.036 78.4385 132.994 78.5647C132.405 80.1631 131.984 82.3923 131.858 84.6216ZM132.657 76.714L129.713 83.57L120.964 74.9054L128.493 67.5446C130.512 71.2881 131.985 74.6951 132.657 76.714ZM128.115 66.8716C127.652 66.0304 127.147 65.1892 126.643 64.3059C125.928 63.1282 125.128 61.9084 124.329 60.7307C123.993 61.4037 123.656 62.1187 123.362 62.8337C121.932 66.2407 121.091 69.9842 120.964 73.8959L128.115 66.8716ZM109.061 48.9535C111.248 47.271 114.15 44.7473 116.927 44.4108C113.393 47.5234 111.837 47.4813 116.758 50.5097C116.758 50.5097 116.884 51.393 116.422 51.0145C114.487 49.3741 111.248 48.0702 109.061 48.9535ZM176.275 83.8645L184.057 75.9149C183.93 79.7004 183.173 83.2756 181.869 86.5985L176.275 83.8645ZM181.575 87.3135C180.229 90.5102 178.378 93.4124 176.107 95.9361L175.939 84.5375L181.575 87.3135ZM162.731 97.8709L174.635 97.4503C171.943 100.1 168.746 102.287 165.213 103.844L162.731 97.8709ZM164.54 104.18C161.217 105.568 157.642 106.367 153.856 106.536L162.016 98.1233L164.54 104.18ZM139.934 103.97C136.527 102.498 133.457 100.437 130.807 97.9551L142.542 97.7868L139.934 103.97ZM143.299 97.913L151.795 106.536C147.842 106.451 144.098 105.652 140.649 104.264L143.299 97.913ZM164.33 60.7727L164.162 60.6886L162.227 59.0062L162.942 60.2259L153.436 56.2722L161.764 52.7811L164.792 59.8894L164.498 60.7307C164.456 60.7307 164.414 60.7307 164.33 60.7727ZM165.171 58.7538L162.563 52.6549L175.013 52.9072L175.14 65.2733L167.989 62.2869L168.914 62.1608L166.391 61.2775L167.947 60.6045L166.054 60.6466L168.073 58.1649C168.073 58.1649 166.475 59.3847 165.718 59.9315L165.339 59.0062V58.5014L165.171 58.7538ZM167.4 63.9694L166.811 62.5814L175.013 66.0304L171.648 73.98L167.484 64.1797L167.611 64.2638L167.4 63.9694ZM175.897 65.2312L175.77 53.6644C178.126 56.2301 180.061 59.2165 181.491 62.4973L175.897 65.2312ZM181.785 63.1702C183.131 66.4931 183.888 70.0683 184.015 73.8118L176.191 65.9463L181.785 63.1702ZM165.045 46.0092C168.494 47.5234 171.606 49.6265 174.298 52.1922L162.563 51.9398L165.045 46.0092ZM140.902 45.5886C144.309 44.2426 147.968 43.4855 151.795 43.4014L143.467 51.8136L140.902 45.5886ZM142.752 52.024L131.017 51.7716C133.667 49.29 136.78 47.3131 140.186 45.8409L142.752 52.024ZM129.419 96.567C126.895 93.8751 124.876 90.7626 123.404 87.3135L129.503 85.0843L129.419 96.567ZM123.11 86.6405C121.764 83.3177 121.006 79.7004 120.922 75.9149L129.419 84.3271L123.11 86.6405ZM143.972 97.4924L152.51 93.9592L161.385 97.6186L152.805 106.451L143.972 97.4924ZM162.689 97.1138L166.475 88.1968L175.182 84.5795L175.35 96.6511L162.689 97.1138ZM175.686 83.4018L172.111 74.9895L175.686 66.5352L184.015 74.9054L175.686 83.4018ZM153.478 93.5807L165.465 88.6174L161.89 97.0297L153.478 93.5807ZM171.691 75.9149L175.055 83.8224L166.896 87.1873L171.691 75.9149Z" fill="#12324D"></path> </svg> 