<?xml version="1.0" encoding="UTF-8"?> <svg xmlns="http://www.w3.org/2000/svg" width="302" height="177" viewBox="0 0 302 177" fill="none"> <rect width="302" height="177" rx="10" fill="white"></rect> <path d="M110.624 58.8564L109.19 57.0435C110.25 56.9852 111.256 56.9038 112.258 57.2717C113.876 57.8436 115.337 58.7888 116.523 60.0307C116.771 60.2907 117.053 60.5153 117.324 60.7559C117.878 61.5075 118.514 62.2114 118.972 63.0179C121.086 66.7881 122.607 70.8618 123.483 75.0959C124.315 78.9992 125.138 82.8973 124.542 86.9262L121.616 88.3199L121.439 85.9393L121.246 85.9092C121.13 86.2541 120.943 86.5919 120.911 86.9439C120.807 88.1112 120.204 88.7125 118.926 88.6824V86.5813L118.641 86.5229C118.482 87.0535 118.23 87.5841 118.186 88.1341C118.124 88.8911 117.785 89.2342 117.062 89.3121C116.764 89.3715 116.473 89.4567 116.19 89.5667V87.7521L115.965 87.6902C115.74 88.3352 115.517 88.9837 115.296 89.6357H114.317C114.422 88.6824 114.526 87.7203 114.63 86.7564C115.646 84.7551 116.132 82.5264 116.043 80.2832C116.056 80.0313 116.005 79.7802 115.896 79.5528C114.934 78.0601 113.922 76.4984 112.38 75.6477C110.893 74.8253 109.142 74.4804 107.505 73.9303C107.353 73.889 107.198 73.8571 107.042 73.8348C107.145 73.1787 107.203 72.5367 107.353 71.9176C107.609 70.8565 108.755 70.3064 110.138 70.5629C110.693 70.6655 111.235 70.8229 111.905 70.9838C111.505 70.027 110.686 70.0464 110.018 69.8112C111.11 68.8915 112.454 68.8491 113.833 69.6255C115.315 70.4585 116.271 71.762 117.115 73.1769L117.269 73.3361C117.269 73.2459 117.256 73.1592 117.251 73.0673C116.704 71.1518 115.722 69.5601 113.931 68.5661C114.579 68.2425 115.197 68.1876 116.197 68.46C116.953 68.6669 117.687 68.9499 118.433 69.1993L118.567 68.9623C118.433 68.8053 118.288 68.6587 118.133 68.5237C116.654 67.4094 114.469 67.3298 112.88 68.299C112.677 68.397 112.451 68.4362 112.228 68.4122C111.219 68.3592 110.375 68.7023 109.566 69.2966C108.879 69.8095 108.082 70.1809 107.332 70.6089C107.167 69.9828 107.065 69.3107 106.818 68.6988C105.878 66.3606 103.778 65.2269 101.528 65.4569C101.423 65.4539 101.32 65.4757 101.226 65.5205C99.9681 66.4155 98.8359 65.616 97.5571 65.2712C98.193 63.0056 99.7614 61.7339 101.724 60.7293C103.725 59.7071 105.756 59.9441 107.835 60.3968C107.862 60.2854 107.89 60.174 107.916 60.0626L104.859 58.7078C105.59 57.7068 106.505 57.3071 107.703 57.7156C108.667 58.0463 109.57 58.5592 110.5 58.9926L110.721 59.157L110.624 58.8564Z" fill="#FDFDFD"></path> <path d="M99.9488 105.642C97.7356 103.3 95.0756 101.533 92.4209 99.7595C90.4197 98.4189 89.5489 97.004 89.5471 95.032C92.0305 95.1629 97.3311 97.3613 99.8799 98.732C99.7892 98.5879 99.6812 98.4554 99.5584 98.3376C97.0998 96.5194 94.6128 94.7349 92.1771 92.8902C90.7093 91.7795 89.3034 90.591 87.8886 89.406C87.7402 89.2383 87.6487 89.0278 87.6272 88.8047C87.2315 86.6541 87.3234 84.5017 87.6272 82.3492C87.6519 82.1724 87.6448 81.9849 87.6537 81.8027C87.7941 81.8428 87.9301 81.8967 88.0599 81.9637C89.2739 82.7383 90.4833 83.5171 91.6879 84.3C91.8445 85.5558 92.0011 86.8121 92.1577 88.069L92.3697 88.0389C92.511 86.9954 92.6517 85.9507 92.7918 84.9049C93.1574 85.3117 93.5442 85.7025 93.8816 86.1306C94.1624 86.4843 94.385 86.884 94.634 87.2642C94.717 87.4146 94.8001 87.5667 94.8848 87.717L94.982 87.8762C97.1863 92.4481 100.38 96.1109 104.863 98.548C106.035 99.1848 106.783 100.196 107.591 101.174C108.554 102.336 109.522 103.493 110.467 104.667C110.662 104.933 110.817 105.227 110.926 105.538C111.456 106.864 111.906 108.221 112.491 109.521C112.767 110.134 113.274 110.644 113.676 111.201C113.244 111.666 112.813 112.131 112.35 112.626C110.368 109.846 107.867 107.674 105.338 105.523L105.126 105.465L105.246 105.615C106.62 107.473 108.051 109.292 109.351 111.201C110.312 112.616 111.117 114.133 111.959 115.622C112.304 116.224 112.428 116.841 111.712 117.334L113.613 119.214C113.026 119.754 112.445 120.299 111.846 120.829C111.516 121.124 111.168 121.397 110.748 121.745C102.844 116.913 96.5946 110.461 91.8857 102.503L92.133 102.149L99.7863 105.762L100.194 106.093L100.371 105.891L99.9488 105.642Z" fill="#FDFDFD"></path> <path d="M111.528 88.3188C111.477 90.0379 112.001 91.5413 113.259 92.8164C112.21 94.2508 112.376 95.7736 113.114 97.4856C111.549 96.9002 110.484 96.0336 109.954 94.6753C109.46 93.4072 109.138 92.0701 108.653 90.7843C108.637 93.5787 109.417 96.214 110.435 99.0438C109.61 98.7537 108.889 98.5539 108.218 98.2479C107.609 97.9684 107.091 97.4449 106.466 97.2539C105.362 96.9161 105.198 96.1043 105.118 95.1652C105.078 94.4979 104.956 93.838 104.756 93.2002C104.322 93.8865 103.852 94.5532 103.465 95.266C103.112 95.9204 102.714 96.053 102.133 95.5684C101.515 95.0555 100.911 94.5232 100.268 94.0456C99.6251 93.5681 99.6711 93.0906 100.067 92.4698C100.521 91.7623 100.883 90.9859 101.285 90.2413L101.081 90.0981C100.406 90.9028 99.7311 91.7075 98.9239 92.6732C98.1238 91.4971 97.3449 90.374 96.6172 89.2368C96.5359 89.1076 96.6913 88.7592 96.8238 88.5771C97.3537 87.8555 97.9048 87.1622 98.3516 86.361C97.3784 86.6227 96.9386 87.5495 96.1933 88.0518C95.8948 87.1922 95.6121 86.3433 95.2977 85.505C95.1547 85.1229 95.1741 84.8559 95.4991 84.5481C97.6906 82.4356 100.27 80.7678 103.094 79.6367C103.638 79.4227 104.242 79.4404 104.633 80.0399C104.495 80.1068 104.366 80.1893 104.247 80.2858C102.589 81.9748 102.004 84.0512 102.252 86.3451C102.305 86.8491 102.751 87.4611 103.195 87.744C104.398 88.5152 105.715 89.0033 107.204 88.9998C108.693 88.9962 110.156 88.9679 111.528 88.3188Z" fill="#464646"></path> <path d="M124.541 86.9119C125.139 82.883 124.316 78.9849 123.481 75.0816C122.609 70.8487 121.091 66.7756 118.98 63.0054C118.523 62.1989 117.887 61.495 117.332 60.7433C117.306 60.593 117.324 60.4073 117.242 60.2976C116.642 59.4911 116.022 58.7059 115.407 57.9029C115.958 57.7133 116.557 57.7196 117.104 57.9206C117.651 58.1216 118.112 58.5051 118.41 59.0065C118.901 59.7994 119.462 60.5459 120.088 61.2368C119.841 60.7074 119.594 60.1768 119.35 59.645C120.282 60.3631 121.231 61.0599 122.14 61.8098C122.425 62.045 122.608 62.4076 122.838 62.7118L123.015 62.6128C122.803 62.137 122.591 61.6595 122.384 61.189C123.566 61.2704 124.574 62.5685 125.818 65.7362V64.2434C127.761 65.0747 127.349 66.8256 127.556 68.3219C127.13 68.6349 126.775 68.7163 126.243 68.4121C125.388 67.9204 124.617 68.5571 124.553 69.7191C124.788 69.4662 124.98 69.1708 125.251 69.001C125.362 68.9343 125.486 68.8917 125.615 68.8758C125.744 68.86 125.875 68.8713 126 68.9091C126.13 68.9674 126.176 69.3424 126.176 69.5723C126.153 70.4566 126.093 71.3409 126.046 72.2252L126.289 72.2465C126.431 71.5054 126.538 70.7573 126.72 70.0268C126.941 69.1425 127.346 68.9657 128.057 69.2628C127.965 70.3045 127.868 71.302 127.789 72.2995C127.725 73.1025 127.669 73.9054 127.637 74.7101C127.649 74.9631 127.686 75.2142 127.746 75.46C127.656 75.6687 127.48 75.881 127.492 76.0826C127.572 77.5399 127.688 78.9955 127.794 80.4511C127.483 82.7715 127.473 85.0778 128.324 87.2974C128.794 88.5249 129.137 89.7434 129.061 91.0823C128.995 92.246 129.001 92.3079 127.824 92.5467C127.167 91.1318 126.63 90.6507 125.482 90.8506C123.882 91.1318 122.419 90.6083 120.911 90.32C121.031 89.3508 121.374 88.6257 122.527 88.5691C123.029 88.5461 123.52 88.3109 124.02 88.1941C124.965 87.9713 126.252 89.0271 126.171 90.0335L126.877 89.4852L127.473 90.9726C127.453 90.9766 127.435 90.9838 127.418 90.9939C127.409 91.0027 127.409 91.0222 127.407 91.0381L127.474 90.9744L128.116 91.2432C128.093 90.8577 128.056 90.4102 128.041 89.961C128.056 89.5319 128.005 89.1032 127.891 88.6893C127.778 89.0095 127.663 89.3296 127.52 89.7311C126.657 88.8715 127.183 87.8192 126.927 86.7792C126.75 87.3753 126.595 87.8404 126.413 88.4382L124.541 86.9119Z" fill="#464646"></path> <path d="M85.4541 60.533C85.4541 60.158 85.4541 59.7831 85.4541 59.4081L85.5336 59.0279C85.826 57.2287 86.5537 55.5286 87.6531 54.0757C88.6917 52.7015 90.1648 51.9729 91.8639 51.7164L92.0406 51.6775H93.5172L93.8563 51.7376L94.992 51.9693C94.9797 52.0224 94.9655 52.0754 94.9514 52.1285C92.7559 52.1939 90.5746 54.3623 90.2619 56.7853L90.193 57.6024C89.7197 60.3703 90.972 62.3777 93.0191 64.0172C93.5788 64.4827 94.1891 64.8838 94.8384 65.2128C95.7939 65.6691 96.3291 66.4384 96.7813 67.3351C97.117 67.9923 97.512 68.6174 97.9611 69.2028C98.106 68.184 97.6185 67.3882 97.101 66.5339C97.9417 66.6772 98.7772 66.7762 99.2399 67.6305C99.6462 68.3786 100.037 69.1373 100.505 70.0269C100.681 68.8897 100.287 68.0319 99.7981 67.1972C101.352 67.0203 101.941 67.9488 102.721 70.1844C103.156 69.4433 102.94 68.5448 101.995 67.2078C102.172 67.1565 102.349 67.0433 102.511 67.0698C105.039 67.5014 106.695 70.8883 105.429 73.1061C105.281 73.3661 104.722 73.5783 104.408 73.5271C100.678 72.931 97.0232 72.1015 93.8952 69.7882C92.2243 68.5501 90.4721 67.4112 89.317 65.6107C87.9831 63.8596 87.1157 61.7976 86.7965 59.6186L85.7703 62.4201L85.5124 61.053L85.4541 60.533Z" fill="#FDFDFD"></path> <path d="M137.523 68.1592C137.503 68.2176 137.485 68.2777 137.466 68.3361L137.395 68.4705L137.159 68.9693C136.982 69.2186 136.805 69.4715 136.615 69.7174C135.693 70.9466 134.658 72.0484 133.054 72.296C132.293 72.4145 131.505 72.3721 130.729 72.4039C129.693 70.7078 128.204 69.2522 127.849 66.8717C128.334 67.0804 128.732 67.1334 128.93 67.3598C129.542 68.0513 130.081 68.8101 130.648 69.5423L130.86 69.4397L129.633 66.6983C130.57 66.1872 130.572 66.1854 131.365 67.0061C131.886 67.5367 132.397 68.0903 132.913 68.6332L133.029 68.7446C133.029 68.6792 133.029 68.612 133.029 68.5466L131.431 65.7857C131.666 65.3277 132.098 65.2551 132.702 65.7291C133.359 66.2473 134.062 66.709 134.746 67.1936L134.907 67.0397C134.313 66.4277 133.72 65.814 133.123 65.2074C132.946 65.0305 132.759 64.8696 132.577 64.7016C133.785 63.6033 134.721 62.3033 134.622 60.616C134.504 58.5998 133.336 57.0063 132.15 55.4623L130.807 53.6724L131.007 53.5256C133.727 55.9929 136.223 58.6263 137.215 62.3688C137.24 62.4271 137.263 62.4837 137.288 62.5456C137.316 62.6977 137.344 62.8498 137.371 63.0002C137.395 63.0603 137.418 63.1204 137.441 63.177C137.462 63.3238 137.485 63.4724 137.508 63.6192L137.613 63.9305L137.676 64.3956L137.766 64.7193C137.791 64.9244 137.816 65.1313 137.842 65.3365C137.863 65.4055 137.885 65.4727 137.908 65.5417V66.6824C137.881 66.8027 137.856 66.923 137.832 67.0362C137.809 67.1883 137.786 67.3421 137.765 67.496C137.738 67.5508 137.712 67.6056 137.687 67.6605L137.597 67.9523L137.523 68.1592Z" fill="#FDFDFD"></path> <path d="M105.345 105.528C107.875 107.677 110.376 109.85 112.357 112.631C112.82 112.135 113.251 111.67 113.684 111.205C113.71 111.205 113.746 111.194 113.76 111.205C114.834 112.229 116.026 112.089 117.322 111.69C118.647 111.274 119.982 111.566 121.429 111.937C121.076 112.27 120.79 112.537 120.507 112.806C118.344 114.87 116.18 116.934 114.014 118.996C113.893 119.086 113.761 119.159 113.62 119.213L111.72 117.333C112.435 116.84 112.311 116.223 111.967 115.621C111.117 114.137 110.319 112.615 109.358 111.2C108.058 109.291 106.628 107.472 105.253 105.614C105.283 105.59 105.313 105.558 105.345 105.528Z" fill="#464646"></path> <path d="M127.753 94.2456C127.91 95.206 127.34 95.802 126.797 96.2954C126.423 96.1345 125.972 95.8055 125.836 95.9063C125.409 96.2066 125.07 96.6173 124.856 97.0949C124.763 97.3336 125.128 97.7546 125.331 98.1879C125.508 97.6396 125.626 97.3036 125.771 96.8579C126.727 98.0358 126.637 98.4921 125.3 100.017C124.699 99.509 124.111 98.9855 123.493 98.4991C122.664 97.8448 121.815 97.8624 120.806 98.2162C119.303 98.7468 117.726 99.0598 116.175 99.4542C115.59 99.601 115.145 99.3375 114.894 98.8157C113.872 96.6828 113.504 95.825 115.742 93.9803C115.89 94.3059 116.017 94.6409 116.122 94.9831C116.253 95.5367 116.283 96.1168 116.433 96.6633C116.786 97.9403 118.461 98.3789 119.413 97.468C120.133 97.1957 120.649 96.3909 120.4 95.71C120.292 95.4235 119.813 95.1352 119.483 95.1105C119.082 95.0769 118.657 95.3192 118.197 95.4642C117.436 94.9336 116.91 93.623 117.171 92.714C117.199 92.6167 117.473 92.5902 117.634 92.5371C117.675 92.6574 117.68 92.8395 117.761 92.8908C118.812 93.5099 119.881 94.0988 120.928 94.7125C121.919 95.2926 122.963 95.5968 124.107 95.2944C125.324 94.9495 126.536 94.5887 127.753 94.2456Z" fill="#464646"></path> <path d="M112.934 86.876C112.89 86.9344 112.847 86.9945 112.805 87.0529L112.667 87.2103L112.035 87.564C111.88 87.5493 111.724 87.5434 111.568 87.5463C109.341 87.6808 107.66 86.6868 106.25 85.0455C105.367 84.0162 105.263 82.8029 105.236 81.5472C105.318 81.0944 105.401 80.6434 105.448 80.3834L107.794 79.6636C107.91 79.7803 108.075 79.8758 108.137 80.0173C108.935 81.8461 110.268 82.8949 112.301 83.024C112.535 83.0381 112.932 83.3777 112.941 83.5775C112.992 84.6776 112.946 85.7812 112.934 86.876Z" fill="#FDFDFD"></path> <path d="M85.7974 62.4324L86.8236 59.6309C87.1428 61.8099 88.0101 63.8719 89.3441 65.623C89.397 65.9484 89.3617 66.3304 89.5207 66.5904C90.5434 68.3431 92.0447 69.6094 93.8021 70.5592C96.5946 72.066 99.4542 73.3996 102.651 73.8276C103.266 73.8939 103.871 74.034 104.453 74.245C103.51 74.6412 102.593 75.1399 101.613 75.3946C101.092 75.529 100.449 75.2867 99.8817 75.1382C98.6594 74.8163 97.4495 74.4466 96.2343 74.0964C95.8705 73.7197 95.5755 73.1732 95.1322 72.9981C92.942 72.1297 91.4353 70.4389 89.8492 68.8365C89.4288 68.4103 89.0208 67.9682 88.5651 67.5844C88.2631 67.3297 87.8904 67.1846 87.8021 67.8125C86.7829 66.8716 86.5321 65.5487 86.1241 64.3195C85.9245 63.7181 85.8998 63.0638 85.7974 62.4324Z" fill="#464646"></path> <path d="M119.33 105.122C119.394 106.129 119.457 107.135 119.526 108.256C118.996 108.282 118.465 108.274 117.937 108.232C117.76 108.21 117.557 107.935 117.481 107.731C117.253 107.124 117.083 106.493 116.891 105.878L116.702 105.929C116.702 106.378 116.732 106.831 116.693 107.277C116.663 107.609 116.585 108.198 116.456 108.217C115.927 108.301 115.22 108.41 114.867 108.138C114.286 107.696 113.851 107.09 113.618 106.398C113.002 104.312 112.539 102.183 112.094 100.031C113.311 100.825 114.535 101.304 115.98 101.244C116.278 101.231 116.603 101.826 116.916 102.139L117.011 102.273C117.057 102.337 117.103 102.4 117.147 102.466L118.073 103.734L119.33 105.122Z" fill="#FDFDFD"></path> <path d="M111.533 88.3028C110.161 88.9519 108.707 88.9802 107.218 88.9838C105.729 88.9873 104.412 88.4992 103.209 87.728C102.766 87.4451 102.326 86.8331 102.266 86.3291C102.019 84.0298 102.603 81.9588 104.262 80.2698C104.38 80.1733 104.509 80.0908 104.647 80.0239C104.601 80.6942 104.47 81.3751 104.535 82.0331C104.618 82.7865 104.889 83.5169 105.079 84.258C105.35 84.6931 105.548 85.2077 105.906 85.5526C107.572 87.1532 109.472 88.2056 111.894 87.82L111.533 88.3028Z" fill="#FDFDFD"></path> <path d="M120.91 90.3416C122.419 90.6316 123.881 91.1551 125.482 90.8721C126.63 90.6723 127.167 91.1569 127.824 92.5683L127.234 93.4933C125.89 93.4933 124.393 93.5286 122.899 93.4756C122.288 93.4295 121.686 93.3016 121.108 93.0953C120.346 92.8524 119.599 92.5654 118.87 92.2358C117.662 91.6857 116.495 91.9457 115.364 92.4126C114.834 92.6266 114.386 92.6585 113.896 92.4126C114.022 92.2517 114.117 92.0359 114.282 91.9404C114.446 91.8449 114.727 91.8608 114.935 91.783C116.05 91.3674 117.159 90.9376 118.27 90.5113L118.722 90.3522L120.449 90.3822L120.91 90.3416Z" fill="#FDFDFD"></path> <path d="M90.784 75.4723C91.3351 75.2707 91.8932 74.8922 92.4372 74.9135C93.0289 74.9364 93.6171 75.3061 94.1894 75.5625C95.1371 75.972 96.0493 76.4594 96.9165 77.0199L94.7546 77.4019L94.714 77.5257C95.6112 77.7379 96.5014 78.0156 97.4111 78.1306C97.8262 78.1836 98.3242 77.9909 98.7093 77.7769C99.7532 77.1985 99.9669 77.1844 100.758 78.0899C101.088 78.4666 101.325 78.9265 101.707 79.5048C100.862 79.6516 100.193 79.7931 99.5147 79.878C99.1049 79.9275 98.6757 79.832 98.2783 79.8992C96.1588 80.2529 94.5091 79.3686 93.0254 77.9944C92.2359 77.2586 91.4358 76.537 90.6392 75.8084L90.784 75.4723Z" fill="#464646"></path> <path d="M114.854 83.5635C114.787 83.185 114.603 82.7835 114.677 82.4315C115.008 80.7655 113.925 79.7786 113.042 78.6343C112.109 77.4334 109.253 76.9665 108.004 77.5855C107.218 77.9758 106.439 78.3832 105.669 78.8076C105.203 79.0641 104.184 78.6202 103.656 77.9021C105.775 76.7295 107.907 75.7709 110.431 75.7585C112.252 75.7585 113.381 76.6658 114.291 77.9658C115.036 79.027 115.449 80.265 115.207 81.6498C115.099 82.2706 115.19 82.925 115.19 83.5652L114.854 83.5635Z" fill="#464646"></path> <path d="M91.6872 84.2662C90.4744 83.4856 89.2627 82.7092 88.0522 81.9369C87.9225 81.87 87.7864 81.8161 87.646 81.776C88.1317 80.2037 88.6192 78.6296 89.0255 77.3208C89.6242 77.7417 90.1753 78.1609 90.7582 78.5341C91.689 79.1301 91.961 79.8765 91.7455 81.0102C91.5442 82.0554 91.6872 83.1749 91.6872 84.2662Z" fill="#464646"></path> <path d="M119.346 105.063L118.078 103.67C118.396 103.27 118.663 102.805 119.051 102.495C119.362 102.267 119.745 102.16 120.129 102.193C120.642 102.25 121.137 102.422 121.575 102.695C121.856 102.881 121.969 103.327 122.158 103.654C122.14 103.661 122.122 103.669 122.105 103.679C122.105 103.679 122.105 103.705 122.096 103.719L122.153 103.65L124.467 102.425C124.497 102.624 124.654 102.98 124.58 103.277C124.211 104.747 124.322 106.208 124.506 107.685C124.559 108.109 124.393 108.56 124.329 108.999L121.736 104.075L119.625 105.216L119.346 105.063Z" fill="#464646"></path> <path d="M127.794 80.4575C127.688 79.002 127.571 77.5464 127.492 76.089C127.479 75.8874 127.656 75.6752 127.746 75.4665C127.924 74.4265 128.101 73.386 128.276 72.3449C128.318 72.0973 128.357 71.8497 128.398 71.6021C128.5 71.8903 128.612 72.1751 128.703 72.4669C129.237 74.1506 129.767 75.8344 130.293 77.5181L128.953 78.7402L128.864 78.8888L128.499 79.3698L128.394 79.5131L127.794 80.4575Z" fill="#FDFDFD"></path> <path d="M121.668 99.3927C121.703 99.3273 121.729 99.2158 121.775 99.2035C122.634 99.0461 124.11 100.682 123.847 101.489C123.702 101.931 122.814 102.318 122.093 102.224C121.404 102.134 120.724 101.991 120.036 101.911C119.633 101.853 119.223 101.853 118.82 101.911C117.78 102.088 117.66 102.044 117.307 101.027L117.315 101.018L118.552 100.553C118.78 100.51 119.045 100.53 119.227 100.415C120.044 99.9056 120.867 99.4528 122.026 99.734L121.668 99.3927Z" fill="#464646"></path> <path d="M119.609 105.241L121.72 104.1L124.313 109.024C124.136 109.162 123.909 109.443 123.783 109.404C123.538 109.309 123.34 109.123 123.229 108.884C123.009 108.389 122.895 107.848 122.699 107.344C122.567 107.089 122.41 106.848 122.229 106.626L122.008 106.704C122.082 107.397 122.156 108.09 122.232 108.79C120.779 108.614 120.643 108.479 120.3 107.22C120.107 106.548 119.841 105.901 119.609 105.241Z" fill="#FDFDFD"></path> <path d="M125.148 106.95C124.618 104.12 126.074 102.044 127.268 99.8611C127.685 100.461 128.151 101.069 128.54 101.729C128.635 101.893 128.55 102.348 128.402 102.436C127.448 103.052 127.111 104.106 126.508 104.969C126.086 105.59 125.662 106.207 125.148 106.95Z" fill="#464646"></path> <path d="M130.279 77.5143C129.75 75.8306 129.22 74.1468 128.689 72.4631C128.597 72.1713 128.486 71.8865 128.383 71.5982L128.314 70.6909L128.516 70.5601C129.063 71.34 129.657 72.0935 130.143 72.9106C130.711 73.8638 131.155 74.8932 131.715 75.8536C132.04 76.4124 131.937 76.7785 131.405 77.0509C131.045 77.2384 130.657 77.364 130.279 77.5143Z" fill="#464646"></path> <path d="M112.907 86.876C112.919 85.7741 112.965 84.6705 112.907 83.5722C112.898 83.3706 112.5 83.0328 112.267 83.0186C110.234 82.893 108.901 81.8442 108.102 80.012C108.041 79.8705 107.876 79.775 107.76 79.6582L108.899 78.7739C109.123 79.1825 109.302 79.4584 109.429 79.7555C110.045 81.135 111.093 81.8885 112.598 82.037C112.808 82.0583 113.127 82.2139 113.184 82.3908C113.68 83.7349 113.813 85.1038 113.267 86.471C113.218 86.6407 113.034 86.7504 112.907 86.876Z" fill="#4C4C4C"></path> <path d="M94.6513 87.2489C94.4023 86.8686 94.1797 86.4689 93.8989 86.1152C93.5615 85.6872 93.1747 85.2963 92.8091 84.8896L93.3602 80.6059L93.6657 80.5051C93.9242 80.7074 94.1658 80.9304 94.3881 81.1719C94.5648 81.3912 94.6248 81.7025 94.7855 81.9289C95.3879 82.7973 95.5468 83.5932 94.6601 84.4156C94.0755 84.9568 94.5471 85.6395 94.5948 86.2602C94.6195 86.5892 94.6319 86.9199 94.6513 87.2489Z" fill="#464646"></path> <path d="M127.755 94.2354C126.538 94.5786 125.327 94.9429 124.104 95.2595C122.965 95.5584 121.921 95.2595 120.925 94.6776C119.874 94.0639 118.805 93.4749 117.758 92.8559C117.677 92.8082 117.671 92.626 117.631 92.5022C118.922 92.9444 120.236 93.3299 121.499 93.8428C123.135 94.5078 124.742 94.2726 126.367 93.8835C126.667 93.8127 126.962 93.7066 127.266 93.6624C127.702 93.6023 127.934 93.7579 127.755 94.2354Z" fill="#FDFDFD"></path> <path d="M87.7944 67.8125C87.8827 67.1846 88.2554 67.3296 88.5575 67.5843C89.0132 67.9681 89.4212 68.4103 89.8416 68.8365C91.4312 70.4424 92.9378 72.1297 95.121 72.9981C95.5643 73.1749 95.8593 73.7197 96.2231 74.0964C94.2212 73.5483 92.3845 72.5158 90.8748 71.0897C89.785 70.0692 88.8171 68.9126 87.7944 67.8125Z" fill="#4C4C4C"></path> <path d="M114.639 86.7488C114.535 87.7127 114.431 88.6748 114.326 89.6281H115.305C114.823 90.3356 113.226 90.8131 112.633 90.2896C112.269 89.9677 112.166 89.3115 112.023 88.7845C111.891 88.2999 112.331 88.245 112.645 88.0611C113.332 87.6632 113.977 87.1909 114.639 86.7488Z" fill="#464646"></path> <path d="M132.156 55.4177C133.345 56.9617 134.512 58.5553 134.629 60.5715C134.728 62.2588 133.792 63.5587 132.584 64.657C132.584 64.5474 132.529 64.4006 132.584 64.3316C133.898 62.5329 133.981 60.575 133.306 58.5411C133.013 57.6568 132.608 56.8096 132.266 55.9412C132.214 55.7704 132.177 55.5952 132.156 55.4177Z" fill="#4C4C4C"></path> <path d="M119.417 97.4343C118.465 98.3451 116.787 97.9065 116.438 96.6295C116.288 96.083 116.261 95.5029 116.127 94.9493C116.022 94.6071 115.895 94.2722 115.747 93.9465L116.454 93.6353C116.807 94.4736 117.082 95.2695 117.483 95.9928C117.815 96.5888 118.333 97.0292 119.107 97.0328C119.209 97.0345 119.313 97.2945 119.417 97.4343Z" fill="#FDFDFD"></path> <path d="M130.732 72.3766C131.508 72.3447 132.296 72.3872 133.057 72.2687C134.661 72.0211 135.696 70.9192 136.618 69.69C136.794 69.4442 136.982 69.1913 137.162 68.9419C137.118 70.309 136.178 71.1544 135.268 71.9273C134.341 72.7209 133.185 73.1968 131.969 73.2856C131.262 73.3422 130.849 73.0999 130.732 72.3766Z" fill="#4C4C4C"></path> <path d="M111.887 87.8243C109.465 88.2028 107.564 87.1576 105.899 85.557C105.546 85.2121 105.343 84.6974 105.072 84.2623C105.072 83.9864 105.072 83.7123 105.095 83.4382C105.129 82.8085 105.169 82.1789 105.208 81.551C105.235 82.8068 105.341 84.0271 106.222 85.0494C107.635 86.6907 109.313 87.6846 111.54 87.5502C111.696 87.5473 111.852 87.5532 112.007 87.5679C111.966 87.6528 111.927 87.7395 111.887 87.8243Z" fill="#4C4C4C"></path> <path d="M118.245 90.4843C117.134 90.9106 116.025 91.3404 114.911 91.756C114.702 91.8338 114.443 91.8055 114.257 91.9134C114.072 92.0213 113.998 92.2247 113.872 92.3856L112.35 90.9106C113.556 90.8558 114.58 90.8841 115.578 90.7337C116.182 90.6453 116.749 90.288 117.332 90.0457C117.797 89.8547 118.132 89.929 118.245 90.4843Z" fill="#464646"></path> <path d="M128.392 79.5297L128.496 79.3865L128.862 78.9054L128.95 78.7568C129.491 78.7568 129.593 79.0009 129.326 79.4378C129.06 79.8746 128.973 80.3097 129.233 80.8314C129.36 81.0843 129.243 81.4805 129.183 81.8024C128.891 83.2066 128.785 84.6434 128.869 86.0754C128.866 86.2217 128.848 86.3674 128.818 86.5105L128.553 86.5529C128.472 86.2139 128.413 85.8701 128.376 85.5236C128.355 84.9788 128.376 84.4288 128.403 83.8823C128.434 83.2368 128.516 82.593 128.54 81.9368C128.56 81.3779 128.932 80.7819 128.335 80.2602C128.231 80.1717 128.369 79.7844 128.392 79.5297Z" fill="#0F0F18"></path> <path d="M110.593 79.5679C110.994 79.7783 111.278 79.9923 111.598 80.079C111.859 80.1497 112.159 80.079 112.442 80.056L112.606 79.8261C112.712 80.0914 112.981 80.4575 112.891 80.6007C112.7 80.912 112.341 81.2852 112.02 81.3082C111.266 81.3913 110.623 80.6326 110.593 79.5679Z" fill="#3569B1"></path> <path d="M120.425 90.3532L118.711 90.3234C118.753 89.4197 119.018 89.2004 120.425 88.988V90.3532Z" fill="#4C4C4C"></path> <path d="M121.665 99.3556L122.031 99.6916C120.872 99.4104 120.049 99.8685 119.231 100.373C119.055 100.487 118.784 100.468 118.557 100.51L120.583 99.2194L120.904 99.1929L121.665 99.3556Z" fill="#FDFDFD"></path> <path d="M113.687 86.5721L114.587 84.2021C115.077 85.0865 114.776 86.0451 113.736 86.6145L113.687 86.5721Z" fill="#464646"></path> <path d="M112.799 79.2413L110.139 78.8327C110.797 78.212 112.076 78.4153 112.799 79.2413Z" fill="#464646"></path> <path d="M118.072 103.703L117.149 102.439H118.229C118.171 102.915 118.121 103.31 118.072 103.703Z" fill="#4C4C4C"></path> <path d="M90.2007 57.6095L90.2697 56.793L90.2007 57.6095Z" fill="#0F0F18"></path> <path d="M85.4541 60.5376L85.5127 61.0497L85.4541 60.5376Z" fill="#0F0F18"></path> <path d="M120.923 99.1929L120.598 99.2198L120.923 99.1929Z" fill="#464646"></path> <path d="M93.8732 51.7374L93.5352 51.6775L93.8732 51.7374Z" fill="#0F0F18"></path> <path d="M85.5463 59.0408L85.4673 59.4189L85.5463 59.0408Z" fill="#0F0F18"></path> <path d="M137.824 67.0133C137.849 66.8913 137.874 66.7711 137.9 66.6597C137.874 66.7711 137.849 66.9002 137.824 67.0133Z" fill="#0F0F18"></path> <path d="M113.757 86.6152L113.691 86.8137L113.619 86.7953C113.649 86.7199 113.676 86.6446 113.705 86.571L113.757 86.6152Z" fill="#464646"></path> <path d="M137.775 64.7054L137.684 64.3774L137.775 64.7054Z" fill="#0F0F18"></path> <path d="M137.621 63.9343L137.522 63.6099L137.621 63.9343Z" fill="#0F0F18"></path> <path d="M94.9604 52.1719C94.9738 52.12 94.9872 52.068 94.9989 52.0161C94.9872 52.0767 94.9738 52.12 94.9604 52.1719Z" fill="#0F0F18"></path> <path d="M92.0582 51.6775L91.8799 51.7168L92.0582 51.6775Z" fill="#0F0F18"></path> <path d="M113.247 79.7329L113.321 79.805L113.242 79.7399L113.247 79.7329Z" fill="#464646"></path> <path d="M137.539 68.1685L137.609 67.9746L137.539 68.1685Z" fill="#4C4C4C"></path> <path d="M119.346 59.6622L119.286 59.6309C119.305 59.642 119.323 59.654 119.34 59.6669L119.346 59.6622Z" fill="#464646"></path> <path d="M137.701 67.6337L137.778 67.4709C137.752 67.5252 137.726 67.5794 137.701 67.6337Z" fill="#0F0F18"></path> <path d="M137.399 68.4399L137.471 68.3042L137.399 68.4399Z" fill="#4C4C4C"></path> <path d="M117.292 101.008L117.238 100.946L117.3 101L117.292 101.008Z" fill="#464646"></path> <path d="M117.018 102.205L116.922 102.07L117.018 102.205Z" fill="#4C4C4C"></path> <path d="M112.66 87.2313L112.79 87.083L112.66 87.2313Z" fill="#4C4C4C"></path> <path d="M94.9574 87.8767L94.8623 87.7209L94.9574 87.8767Z" fill="#464646"></path> <path d="M137.91 65.4991C137.886 65.427 137.864 65.3568 137.842 65.2847C137.864 65.3568 137.886 65.4288 137.91 65.4991Z" fill="#0F0F18"></path> <path d="M113.244 79.7034L113.177 79.6243L113.249 79.6963L113.244 79.7034Z" fill="#464646"></path> <path d="M137.435 63.1544C137.412 63.0937 137.388 63.033 137.363 62.9758C137.394 63.0258 137.417 63.0937 137.435 63.1544Z" fill="#0F0F18"></path> <path d="M137.3 62.5123C137.275 62.4552 137.252 62.398 137.227 62.3337L137.3 62.5123Z" fill="#0F0F18"></path> <path d="M110.638 58.8801L110.733 59.1869L110.508 59.0191L110.638 58.8801Z" fill="#040505"></path> <path d="M117.246 73.0637C117.246 73.1555 117.258 73.2437 117.264 73.3373L117.107 73.1753L117.246 73.0637Z" fill="#040505"></path> <path d="M99.9585 105.637L100.389 105.881L100.214 106.081L99.8096 105.753L99.9585 105.637Z" fill="#040505"></path> <path d="M105.249 105.603L105.123 105.445L105.345 105.507C105.312 105.538 105.28 105.571 105.249 105.603Z" fill="#464646"></path> <path d="M127.465 90.9984L127.404 91.0557C127.404 91.0414 127.404 91.0239 127.414 91.0159C127.429 91.0068 127.446 91.0004 127.463 90.9968L127.465 90.9984Z" fill="#040505"></path> <path d="M133.044 68.5037C133.044 68.5687 133.044 68.6356 133.044 68.7006L132.928 68.5898C132.962 68.5551 133.001 68.526 133.044 68.5037Z" fill="#040505"></path> <path d="M122.127 103.676L122.077 103.736C122.077 103.724 122.077 103.707 122.085 103.7C122.1 103.692 122.116 103.685 122.132 103.679L122.127 103.676Z" fill="#040505"></path> <path d="M128.846 78.8914L128.482 79.3696L128.846 78.8914Z" fill="#040505"></path> <path d="M92.8246 56.0922C92.8122 56.1824 92.7998 56.2691 92.7892 56.3646L92.6727 56.8952C92.6727 57.3149 92.6727 57.7335 92.6727 58.1509C92.7133 58.3384 92.7539 58.5241 92.7928 58.7098C93.146 60.2396 94.1934 61.0479 95.5959 61.5484C96.0286 61.7041 96.2794 61.6209 96.6291 61.3503C97.7525 60.4802 98.8758 59.5923 100.089 58.8619C100.704 58.4922 101.529 58.4958 102.223 58.2358C102.938 57.9526 103.632 57.6192 104.3 57.2383C105.139 56.7784 105.911 56.1771 106.783 55.8039C108.407 55.1212 110.041 55.5086 111.664 55.9613C112.181 56.1008 112.72 56.144 113.253 56.0887C114.718 55.9436 116.007 56.354 117.252 57.0897C117.816 57.4222 118.474 57.5938 119.089 57.8414C119.736 58.0996 120.386 58.3507 121.032 58.6267C121.679 58.9026 122.23 59.2775 122.869 59.4579C124.351 59.8771 125.43 60.772 126.264 62.033C126.863 62.9386 127.357 63.0942 128.383 62.7794C130.393 62.1551 131.033 61.1876 131.137 59.0847C131.264 56.331 130.162 54.0831 128.523 52.0102C128.427 51.8882 128.327 51.7697 128.233 51.6459C128.219 51.6282 128.233 51.5946 128.219 51.4372C128.498 51.5062 128.749 51.5575 128.998 51.6353C131.965 52.5815 134.073 54.6419 135.982 56.9889C137.349 58.664 138.319 60.6273 138.82 62.7316C138.868 62.9315 138.88 63.1419 138.909 63.3471L138.977 63.5576C139.006 63.9007 139.035 64.245 139.064 64.5904V65.6905L139.034 66.0708C138.992 66.2476 138.951 66.4245 138.91 66.612C138.836 66.9539 138.763 67.2964 138.69 67.6396C138.658 67.7634 138.628 67.8889 138.596 68.0127C138.453 69.3268 137.844 70.434 137.04 71.4439C135.779 73.0356 134.636 74.7264 132.91 75.8884C132.755 75.9928 132.698 76.5605 132.831 76.725C133.361 77.3829 133.203 77.9135 132.771 78.5378C131.99 79.6627 131.25 80.8193 130.543 81.9937C130.341 82.3526 130.228 82.7546 130.211 83.1663C130.047 86.6399 130.918 89.7615 133.354 92.3631C133.448 92.48 133.518 92.6149 133.559 92.7596C133.599 92.9044 133.61 93.0559 133.59 93.205C132.531 98.6877 130.04 103.518 126.986 108.134C123.897 112.801 120.08 116.79 115.996 120.555C114.029 122.37 112.045 124.167 110 126.038C108.891 125.031 107.81 124.067 106.746 123.082C103.08 119.681 99.275 116.395 96.2017 112.433C92.1393 107.198 88.4601 101.712 86.8404 95.131C86.5861 94.0964 86.3264 93.0635 86.0862 92.0253C85.9202 91.3055 85.5316 90.5238 86.5437 90.163C86.4907 89.9861 86.4925 89.9171 86.4607 89.8977C84.871 88.9161 85.4115 87.3049 85.3126 85.8953C85.3002 85.7361 85.6658 85.5716 85.7912 85.3647C85.9167 85.1578 86.058 84.8341 85.9961 84.7757C84.8763 83.7959 85.4027 82.5791 85.4892 81.433C85.5091 80.99 85.5881 80.5516 85.7241 80.1296C85.7781 80.0033 85.8576 79.8895 85.9576 79.7955C86.0576 79.7014 86.176 79.6291 86.3052 79.5831C86.8351 79.438 87.1018 79.1834 86.6762 78.7359C86.1233 78.1558 86.224 77.5757 86.4801 76.9443L88.1157 72.9047C85.8601 70.3084 84.3535 67.3318 83.7353 63.9219L83.6134 63.4161C83.5675 63.1526 83.5216 62.8855 83.4739 62.629C83.4915 62.6131 83.5251 62.5901 83.5216 62.5813C83.5034 62.5446 83.4827 62.5091 83.4598 62.4752C83.4474 62.2435 83.4333 62.0118 83.4209 61.7819V60.1901L83.4598 59.6595L83.488 59.35C83.4968 59.2404 83.5074 59.1307 83.5163 59.0211C83.5392 58.9592 83.5604 58.8955 83.5816 58.8336L83.6081 58.563C83.6487 58.3773 83.6911 58.1916 83.7318 58.0059C83.7989 57.6521 83.7953 57.2666 83.9437 56.9447C85.3991 53.8584 87.4427 51.3912 90.8976 50.4521C91.049 50.4215 91.2025 50.4026 91.3568 50.3955L91.5546 50.3353L91.8796 50.2929L92.0315 50.2805H93.5947L93.7483 50.2982L94.2358 50.353L94.4125 50.399C95.8149 50.399 96.7175 51.2073 97.6183 52.3887C95.1543 52.539 93.5558 53.6268 92.9076 55.9012L92.8246 56.0922ZM113.269 79.6892L113.197 79.6167L113.264 79.6963L113.343 79.7617L113.269 79.6892ZM113.766 86.6098C114.806 86.0403 115.106 85.0888 114.617 84.1974L113.716 86.5674L113.633 86.7831L113.702 86.8008L113.766 86.6098ZM120.923 99.1989L120.601 99.2254L118.575 100.516L117.339 100.983L117.268 100.92L117.33 100.99C117.683 102.015 117.803 102.064 118.844 101.875C119.247 101.816 119.656 101.816 120.059 101.875C120.748 101.954 121.428 102.098 122.117 102.188C122.837 102.282 123.726 101.894 123.87 101.452C124.134 100.646 122.657 99.0096 121.799 99.167C121.753 99.1759 121.726 99.2908 121.691 99.3563L120.923 99.1989ZM130.301 77.5032C130.679 77.3493 131.068 77.2237 131.428 77.0398C131.958 76.7674 132.062 76.4013 131.737 75.8424C131.178 74.8821 130.734 73.8527 130.165 72.8994C129.68 72.0823 129.086 71.3289 128.539 70.5489L128.337 70.6798L128.406 71.5871C128.366 71.8347 128.327 72.0823 128.284 72.3299C128.108 73.3711 127.931 74.4116 127.755 75.4516C127.694 75.2057 127.657 74.9546 127.645 74.7017C127.677 73.8969 127.733 73.094 127.797 72.291C127.876 71.2935 127.974 70.296 128.065 69.2543C127.359 68.9536 126.949 69.1287 126.728 70.0184C126.552 70.7488 126.439 71.4969 126.297 72.238L126.054 72.2168C126.101 71.3324 126.161 70.4481 126.184 69.5638C126.184 69.3339 126.142 68.9589 126.008 68.9006C125.883 68.8628 125.752 68.8515 125.624 68.8673C125.495 68.8832 125.37 68.9258 125.259 68.9926C124.989 69.1694 124.796 69.4577 124.561 69.7106C124.625 68.5486 125.397 67.9119 126.251 68.4036C126.781 68.7078 127.135 68.6264 127.564 68.3134C127.357 66.8171 127.76 65.0662 125.826 64.235V65.7471C124.589 62.5795 123.574 61.2814 122.392 61.2C122.599 61.6705 122.811 62.148 123.023 62.6237L122.846 62.7228C122.616 62.4186 122.433 62.056 122.148 61.8208C121.239 61.0744 120.29 60.374 119.358 59.656L119.298 59.6153L119.365 59.6507C119.61 60.1789 119.856 60.7095 120.103 61.2424C119.478 60.5498 118.917 59.8015 118.427 59.0069C118.129 58.5054 117.668 58.1219 117.121 57.9209C116.574 57.7199 115.975 57.7137 115.424 57.9033C116.039 58.6992 116.661 59.495 117.259 60.298C117.341 60.4077 117.323 60.5934 117.349 60.7437C117.083 60.5032 116.797 60.2785 116.549 60.0186C115.363 58.7766 113.902 57.8315 112.284 57.2595C111.282 56.8916 110.281 56.973 109.216 57.0314L110.65 58.8442L110.523 58.9804C109.592 58.5471 108.689 58.0342 107.725 57.7034C106.527 57.2949 105.605 57.7034 104.881 58.6956L107.939 60.0504C107.912 60.1618 107.884 60.2732 107.857 60.3847C105.778 59.9319 103.747 59.6949 101.746 60.7172C99.7837 61.7217 98.2135 62.9934 97.5794 65.259C98.8582 65.6127 99.9904 66.4033 101.248 65.5084C101.342 65.4636 101.446 65.4417 101.55 65.4447C103.8 65.2148 105.9 66.3485 106.84 68.6866C107.087 69.2985 107.193 69.9706 107.354 70.5967C108.105 70.1634 108.901 69.7973 109.588 69.2844C110.397 68.683 111.242 68.3399 112.25 68.4001C112.474 68.4241 112.699 68.3849 112.902 68.2869C114.492 67.3177 116.676 67.4026 118.155 68.5115C118.31 68.6465 118.456 68.7931 118.589 68.9501L118.455 69.1871C117.71 68.9377 116.975 68.6565 116.219 68.4478C115.219 68.1754 114.601 68.2303 113.953 68.5539C115.744 69.5479 116.726 71.1397 117.273 73.0551L117.137 73.1647C116.293 71.7498 115.338 70.4464 113.856 69.6133C112.476 68.8369 111.132 68.8794 110.04 69.799C110.708 70.0343 111.528 70.0148 111.927 70.9716C111.261 70.8107 110.719 70.6533 110.161 70.5507C108.778 70.2943 107.631 70.8425 107.375 71.9055C107.225 72.5245 107.167 73.1665 107.064 73.8227C107.22 73.8449 107.375 73.8768 107.527 73.9182C109.164 74.4682 110.915 74.8131 112.402 75.6355C113.944 76.4862 114.956 78.0479 115.919 79.5406C116.028 79.768 116.078 80.0191 116.065 80.2711C116.155 82.5143 115.668 84.7429 114.652 86.7442C113.99 87.1864 113.345 87.6586 112.658 88.0565C112.344 88.2334 111.904 88.2953 112.036 88.7799C112.179 89.3105 112.282 89.9631 112.646 90.285C113.239 90.8156 114.836 90.3239 115.318 89.6235C115.541 88.9786 115.764 88.3301 115.988 87.6781L116.212 87.74V89.5475C116.495 89.4374 116.787 89.3522 117.084 89.2928C117.807 89.215 118.144 88.8719 118.208 88.1149C118.252 87.5684 118.505 87.0414 118.663 86.5037L118.948 86.5621V88.6632C120.223 88.6879 120.829 88.0919 120.933 86.9246C120.965 86.5709 121.152 86.2349 121.269 85.89L121.461 85.92L121.638 88.3006L124.565 86.9069L126.43 88.4315C126.606 87.8425 126.76 87.3703 126.944 86.7725C127.2 87.8125 126.674 88.8648 127.537 89.7243C127.68 89.3229 127.795 89.0028 127.908 88.6826C128.022 89.0965 128.073 89.5252 128.058 89.9543C128.072 90.4035 128.11 90.851 128.133 91.2365L127.491 90.9677L126.896 89.4803L126.19 90.0286C126.271 89.0222 124.983 87.9663 124.038 88.1892C123.538 88.3059 123.047 88.5429 122.546 88.5641C121.392 88.6207 121.05 89.3459 120.93 90.3151L120.469 90.3434V88.9674C119.056 89.1814 118.784 89.4025 118.741 90.3133L118.289 90.4725C118.176 89.9171 117.84 89.8428 117.371 90.0392C116.788 90.2815 116.221 90.6387 115.617 90.7272C114.619 90.8722 113.594 90.8439 112.388 90.904L113.916 92.3791C114.405 92.6302 114.855 92.5984 115.383 92.3791C116.514 91.9192 117.68 91.6592 118.89 92.2022C119.612 92.533 120.354 92.8218 121.11 93.067C121.687 93.274 122.289 93.4025 122.901 93.4491C124.395 93.5021 125.891 93.4668 127.235 93.4668L127.825 92.5418C129.003 92.303 128.998 92.2411 129.062 91.0773C129.138 89.7385 128.795 88.5199 128.325 87.2925C127.475 85.0729 127.486 82.7666 127.795 80.4462L128.399 79.5017C128.376 79.7564 128.238 80.1437 128.35 80.241C128.947 80.7627 128.574 81.3588 128.555 81.9176C128.53 82.565 128.449 83.2087 128.417 83.8631C128.389 84.4096 128.369 84.9597 128.39 85.5044C128.428 85.8509 128.487 86.1947 128.567 86.5338L128.832 86.4913C128.863 86.3482 128.88 86.2026 128.883 86.0562C128.799 84.6242 128.905 83.1875 129.198 81.7832C129.258 81.4613 129.374 81.0652 129.247 80.8123C128.986 80.2817 129.07 79.8696 129.341 79.4186C129.611 78.9676 129.505 78.7341 128.964 78.7377L130.301 77.5032ZM118.089 103.668C118.139 103.274 118.188 102.878 118.247 102.4H117.164L117.028 102.207L116.933 102.073C116.62 101.76 116.295 101.166 115.996 101.178C114.555 101.238 113.331 100.759 112.111 99.9647C112.556 102.121 113.018 104.25 113.635 106.332C113.867 107.024 114.303 107.63 114.884 108.072C115.237 108.344 115.943 108.235 116.473 108.152C116.602 108.132 116.68 107.543 116.71 107.211C116.749 106.765 116.719 106.312 116.719 105.863L116.908 105.812C117.1 106.431 117.261 107.059 117.498 107.665C117.574 107.869 117.779 108.145 117.953 108.166C118.482 108.208 119.013 108.216 119.543 108.191C119.474 107.069 119.411 106.068 119.347 105.057L119.624 105.209C119.856 105.868 120.122 106.516 120.308 107.188C120.661 108.447 120.787 108.58 122.24 108.758C122.164 108.051 122.09 107.365 122.016 106.671L122.237 106.593C122.417 106.816 122.575 107.057 122.706 107.312C122.91 107.816 123.024 108.357 123.236 108.852C123.348 109.09 123.546 109.277 123.791 109.372C123.916 109.411 124.144 109.13 124.321 108.992C124.386 108.553 124.552 108.107 124.498 107.678C124.321 106.201 124.203 104.74 124.572 103.27C124.646 102.973 124.489 102.618 124.459 102.418L122.145 103.643C121.956 103.316 121.843 102.871 121.562 102.685C121.123 102.411 120.629 102.24 120.115 102.183C119.731 102.149 119.349 102.257 119.038 102.485C118.649 102.794 118.383 103.26 118.065 103.659L118.089 103.668ZM105.098 84.2646C104.908 83.5236 104.637 82.7931 104.554 82.0397C104.482 81.3818 104.62 80.7008 104.666 80.0305C104.275 79.431 103.671 79.4133 103.127 79.6273C100.303 80.7584 97.7238 82.4262 95.5323 84.5387C95.2073 84.8465 95.179 85.1136 95.3309 85.4956C95.6453 86.3339 95.9279 87.1828 96.2264 88.0424C96.9806 87.5401 97.4116 86.6133 98.3848 86.3516C97.9379 87.1492 97.3798 87.8461 96.857 88.5677C96.7245 88.7445 96.5691 89.0983 96.6503 89.2274C97.378 90.3734 98.157 91.4877 98.9571 92.6638C99.7643 91.6981 100.439 90.8952 101.114 90.0887L101.319 90.2319C100.916 90.9765 100.554 91.7477 100.1 92.4604C99.7042 93.0812 99.6618 93.5587 100.301 94.0363C100.941 94.5138 101.548 95.0461 102.166 95.559C102.748 96.0436 103.141 95.9128 103.498 95.2566C103.885 94.5492 104.355 93.8771 104.789 93.1909C104.989 93.8275 105.111 94.4861 105.151 95.1523C105.231 96.0914 105.395 96.9032 106.499 97.241C107.124 97.432 107.642 97.9485 108.251 98.235C108.922 98.5409 109.643 98.7408 110.468 99.0308C109.451 96.201 108.67 93.5658 108.686 90.7714C109.171 92.0607 109.493 93.3978 109.988 94.6623C110.517 96.0206 111.577 96.8873 113.147 97.4727C112.411 95.7607 112.243 94.2379 113.292 92.8035C112.035 91.5283 111.51 90.025 111.561 88.3059L111.915 87.8231C111.955 87.7382 111.994 87.6462 112.035 87.5666L112.667 87.2129L112.805 87.0555C112.847 86.9971 112.89 86.937 112.934 86.8786C113.061 86.746 113.245 86.6363 113.308 86.4789C113.854 85.1118 113.721 83.7429 113.225 82.3987C113.162 82.2218 112.849 82.0715 112.639 82.045C111.134 81.8964 110.086 81.143 109.47 79.7635C109.336 79.4663 109.157 79.1904 108.94 78.7819L107.801 79.6662L105.455 80.386C105.408 80.646 105.325 81.0935 105.243 81.5498C105.204 82.1776 105.164 82.8073 105.13 83.4369C105.106 83.7146 105.106 83.9887 105.098 84.2646ZM96.2353 74.0862C97.4505 74.4399 98.6604 74.806 99.8826 75.1279C100.45 75.2765 101.093 75.5188 101.614 75.3844C102.594 75.1297 103.511 74.6309 104.454 74.2348C103.872 74.0238 103.267 73.8837 102.652 73.8174C99.4587 73.3893 96.5956 72.0487 93.8031 70.5489C92.0456 69.5992 90.5443 68.3329 89.5216 66.5801C89.3662 66.3149 89.4015 65.9381 89.345 65.6127C90.5001 67.4132 92.2523 68.5557 93.9232 69.7902C97.0513 72.1036 100.706 72.933 104.436 73.5291C104.756 73.5804 105.309 73.3681 105.457 73.1081C106.723 70.8903 105.067 67.5034 102.539 67.0718C102.384 67.0453 102.204 67.1585 102.023 67.2098C102.968 68.5469 103.184 69.4453 102.749 70.1864C101.972 67.9526 101.384 67.0311 99.8349 67.1992C100.329 68.0393 100.718 68.897 100.541 70.029C100.073 69.1447 99.683 68.3806 99.2768 67.6325C98.814 66.7782 97.9786 66.6792 97.1378 66.5359C97.6553 67.3902 98.1428 68.1861 97.998 69.2048C97.5488 68.6194 97.1539 67.9943 96.8181 67.3371C96.3677 66.4369 95.8325 65.6675 94.8752 65.2148C94.226 64.8858 93.6157 64.4848 93.056 64.0192C91.0018 62.3832 89.7495 60.3723 90.2299 57.6044L90.2988 56.7873C90.6114 54.3643 92.7928 52.1889 94.9883 52.1305L95.0289 51.9713L93.8932 51.7396L93.554 51.6795H92.0774L91.9008 51.7184C90.2016 51.9749 88.7215 52.7035 87.69 54.0778C86.5906 55.5306 85.8629 57.2307 85.5705 59.0299L85.491 59.4101C85.491 59.7851 85.491 60.16 85.491 60.535L85.5493 61.0479C85.6358 61.506 85.7259 61.964 85.8071 62.4221C85.9096 63.0535 85.9343 63.7097 86.1339 64.3092C86.5419 65.5384 86.7927 66.8614 87.8119 67.8023C88.8345 68.9023 89.8025 70.059 90.8923 71.0884C92.4014 72.5105 94.2361 73.5399 96.2353 74.0862ZM119.428 97.432C119.324 97.2923 119.22 97.0323 119.116 97.0305C118.342 97.0305 117.824 96.5866 117.492 95.9906C117.091 95.2672 116.821 94.4713 116.463 93.633L115.756 93.9443C113.518 95.789 113.886 96.6467 114.908 98.7797C115.159 99.3014 115.604 99.565 116.189 99.4182C117.74 99.0308 119.317 98.7107 120.82 98.1801C121.829 97.8264 122.678 97.8087 123.507 98.4631C124.125 98.9495 124.713 99.473 125.314 99.9806C126.651 98.456 126.741 97.9997 125.785 96.8218C125.64 97.2622 125.527 97.6036 125.345 98.1518C125.142 97.7185 124.777 97.2976 124.87 97.0588C125.084 96.5813 125.423 96.1706 125.85 95.8703C125.986 95.7695 126.437 96.0985 126.811 96.2594C127.354 95.766 127.924 95.1699 127.767 94.2096C127.944 93.732 127.714 93.5764 127.283 93.6401C126.979 93.6825 126.684 93.7904 126.384 93.8612C124.759 94.2503 123.152 94.4855 121.516 93.8205C120.253 93.3076 118.939 92.922 117.648 92.4799C117.487 92.54 117.213 92.5665 117.185 92.6567C116.924 93.5658 117.45 94.871 118.211 95.4069C118.671 95.269 119.094 95.0267 119.497 95.0532C119.827 95.078 120.306 95.3663 120.414 95.6528C120.677 96.3478 120.147 97.1526 119.428 97.4249V97.432ZM137.308 62.4929L137.236 62.316C136.243 58.5771 133.748 55.949 131.027 53.4729L130.828 53.6197L132.167 55.4078C132.186 55.5875 132.223 55.7651 132.274 55.9383C132.617 56.8067 133.022 57.6539 133.315 58.5382C133.989 60.5721 133.906 62.53 132.592 64.3287C132.541 64.3977 132.592 64.5445 132.592 64.6541C132.769 64.8221 132.963 64.9831 133.138 65.1599C133.735 65.7666 134.329 66.3803 134.922 66.9922L134.761 67.1461C134.078 66.6615 133.375 66.1999 132.718 65.6817C132.114 65.2059 131.681 65.2802 131.446 65.7383L133.041 68.5009C132.998 68.5235 132.96 68.5527 132.926 68.5875C132.41 68.0446 131.9 67.4981 131.379 66.9604C130.586 66.1398 130.584 66.1415 129.646 66.6527L130.874 69.394L130.662 69.4966C130.095 68.7644 129.556 68.0057 128.943 67.3141C128.744 67.0877 128.348 67.0347 127.862 66.826C128.216 69.2066 129.706 70.6621 130.743 72.3582C130.854 73.0657 131.262 73.3239 131.979 73.2673C133.195 73.1781 134.351 72.7022 135.277 71.909C136.187 71.1361 137.126 70.2907 137.171 68.9236L137.407 68.4248L137.478 68.2904L137.534 68.1135L137.603 67.9208L137.693 67.6289L137.771 67.4645C137.792 67.3106 137.815 67.1567 137.838 67.0046C137.863 66.8826 137.888 66.7623 137.914 66.6509V65.5101C137.891 65.4429 137.87 65.3739 137.849 65.305C137.822 65.0998 137.798 64.8929 137.773 64.6877L137.683 64.3641L137.633 63.8848L137.536 63.5646C137.513 63.4179 137.49 63.2693 137.469 63.1225C137.446 63.0624 137.423 63.0022 137.398 62.9456L137.308 62.4929ZM87.6759 81.7567C87.667 81.9336 87.6759 82.1228 87.6494 82.3032C87.3456 84.4556 87.2537 86.608 87.6494 88.7587C87.6709 88.9817 87.7624 89.1922 87.9108 89.36C89.3238 90.5397 90.7368 91.7335 92.1993 92.8442C94.6385 94.6889 97.1219 96.4734 99.5806 98.2916C99.7034 98.4094 99.8114 98.5419 99.9021 98.686C97.3533 97.3153 92.0527 95.1169 89.5693 94.986C89.5693 96.9527 90.4419 98.3765 92.4431 99.7135C95.0925 101.482 97.7578 103.251 99.9709 105.596L99.8155 105.713L92.1622 102.099L91.9149 102.453C96.6238 110.412 102.866 116.864 110.777 121.696C111.197 121.342 111.545 121.075 111.876 120.78C112.467 120.249 113.048 119.704 113.642 119.165C113.782 119.11 113.915 119.037 114.036 118.947C116.202 116.889 118.367 114.825 120.529 112.757C120.811 112.488 121.097 112.227 121.451 111.889C120.004 111.517 118.669 111.226 117.344 111.641C116.048 112.046 114.855 112.181 113.781 111.157C113.767 111.144 113.732 111.157 113.706 111.157C113.303 110.599 112.796 110.095 112.52 109.476C111.936 108.176 111.48 106.823 110.955 105.493C110.846 105.182 110.691 104.889 110.496 104.623C109.551 103.449 108.583 102.292 107.621 101.13C106.812 100.152 106.065 99.1405 104.892 98.5038C100.409 96.0666 97.2155 92.4038 95.0112 87.8319L94.9141 87.6727C94.8293 87.5224 94.7463 87.3703 94.6633 87.22C94.6438 86.891 94.6315 86.5603 94.6067 86.2313C94.5591 85.6105 94.0875 84.9278 94.6721 84.3867C95.5552 83.5642 95.3998 82.7684 94.7975 81.9C94.6368 81.6683 94.575 81.3694 94.4001 81.143C94.1778 80.9014 93.9362 80.6784 93.6777 80.4762L93.3721 80.577L92.821 84.8606C92.6797 85.9065 92.539 86.9511 92.3989 87.9946L92.1869 88.0247C92.0292 86.7666 91.8725 85.5103 91.7171 84.2558C91.7171 83.1645 91.5811 82.045 91.7825 80.9909C91.998 79.859 91.7259 79.1126 90.7951 78.5148C90.2122 78.1416 89.6612 77.7225 89.0624 77.3015C88.642 78.6103 88.1545 80.1844 87.6688 81.7567H87.6759ZM90.8039 75.4445L90.652 75.7752C91.4469 76.5039 92.2417 77.2255 93.0383 77.9612C94.522 79.3425 96.177 80.218 98.2912 79.866C98.6957 79.7988 99.1249 79.8943 99.5276 79.8448C100.206 79.7599 100.875 79.6184 101.72 79.4716C101.338 78.8968 101.101 78.437 100.771 78.0567C99.9798 77.1512 99.7661 77.1724 98.7222 77.7437C98.3371 77.9595 97.839 78.1523 97.424 78.0974C96.5143 77.9825 95.6241 77.7048 94.7269 77.4926L94.7675 77.3687L96.9294 76.9867C96.0622 76.4263 95.15 75.9388 94.2023 75.5294C93.63 75.2729 93.0418 74.9033 92.4501 74.8803C91.9061 74.8644 91.3568 75.2429 90.7969 75.4445H90.8039ZM114.878 83.5289H115.202C115.202 82.8886 115.111 82.2342 115.219 81.6134C115.461 80.2286 115.043 78.9959 114.303 77.9294C113.393 76.6295 112.264 75.7151 110.443 75.7222C107.919 75.7345 105.78 76.6931 103.668 77.8657C104.198 78.5838 105.215 79.0277 105.681 78.7713C106.451 78.348 107.23 77.9406 108.016 77.5491C109.265 76.9301 112.121 77.397 113.054 78.5979C113.937 79.7352 115.02 80.7291 114.689 82.3952C114.62 82.7489 114.804 83.1504 114.871 83.5289H114.878ZM125.165 106.922C125.679 106.18 126.103 105.562 126.532 104.949C127.135 104.086 127.472 103.031 128.426 102.416C128.574 102.32 128.659 101.866 128.563 101.709C128.177 101.049 127.709 100.44 127.292 99.8409C126.084 102.016 124.621 104.098 125.158 106.922H125.165ZM110.595 79.5282C110.625 80.5894 111.268 81.3517 112.022 81.2774C112.344 81.2456 112.702 80.8724 112.893 80.57C112.983 80.4267 112.716 80.0606 112.609 79.7953L112.444 80.0252C112.162 80.0394 111.862 80.119 111.6 80.0482C111.28 79.9527 110.996 79.7387 110.595 79.5282ZM112.812 79.224C112.089 78.3981 110.811 78.1947 110.152 78.8155L112.812 79.224Z" fill="#040505"></path> <path d="M92.7734 58.7491C92.7345 58.5634 92.6939 58.3778 92.6533 58.1904C92.6939 58.3778 92.7345 58.5634 92.7734 58.7491Z" fill="#0F0F18"></path> <path d="M83.6099 63.449L83.7316 63.954L83.6099 63.449Z" fill="#0F0F18"></path> <path d="M138.891 66.6498C138.931 66.4731 138.972 66.2963 139.014 66.1089C138.972 66.2892 138.931 66.4695 138.891 66.6498Z" fill="#0F0F18"></path> <path d="M92.6533 56.8809L92.7698 56.3506L92.6533 56.8809Z" fill="#0F0F18"></path> <path d="M83.7046 58.0117C83.664 58.1885 83.6217 58.383 83.5811 58.5686L83.7046 58.0117Z" fill="#0F0F18"></path> <path d="M83.4644 59.366L83.4355 59.6821L83.4644 59.366Z" fill="#0F0F18"></path> <path d="M138.583 68.0027C138.615 67.8796 138.644 67.7547 138.676 67.6316C138.644 67.7547 138.615 67.8796 138.583 68.0027Z" fill="#0F0F18"></path> <path d="M94.4098 50.3831L94.2314 50.3367L94.4098 50.3831Z" fill="#0F0F18"></path> <path d="M93.7169 50.2973L93.5713 50.2805L93.7169 50.2973Z" fill="#0F0F18"></path> <path d="M91.9997 50.2805L91.8535 50.2924L91.9997 50.2805Z" fill="#0F0F18"></path> <path d="M91.5287 50.3367L91.332 50.3965L91.5287 50.3367Z" fill="#0F0F18"></path> <path d="M83.5727 58.854C83.551 58.9171 83.5294 58.9821 83.5059 59.0452C83.5203 58.9821 83.542 58.9171 83.5727 58.854Z" fill="#0F0F18"></path> <path d="M138.963 63.617L138.891 63.3967L138.963 63.617Z" fill="#0F0F18"></path> <path d="M83.4355 62.5027C83.4574 62.5349 83.4771 62.5685 83.4945 62.6032C83.4945 62.6116 83.4659 62.6334 83.449 62.6485L83.4355 62.5027Z" fill="#0F0F18"></path> <path d="M92.8091 56.1376L92.8865 55.9429L92.8091 56.1376Z" fill="#0F0F18"></path> <path d="M133.506 76.3499C134.115 77.3952 133.93 78.2582 133.262 79.1496C132.515 80.1471 131.768 81.1853 131.266 82.3155C130.931 83.0742 130.895 84.0293 130.941 84.8853C131.097 87.662 132.075 90.0939 134.138 92.0482C134.366 92.264 134.407 92.8264 134.334 93.1907C133.387 98.0049 131.438 102.388 128.859 106.554C125.42 112.106 121.129 116.889 116.318 121.243C114.206 123.149 112.137 125.095 110.004 127.06C109.718 126.818 109.46 126.614 109.216 126.393C104.717 122.325 100.068 118.374 96.209 113.67C91.3006 107.686 87.1728 101.233 85.6114 93.456C85.4736 92.768 85.2687 92.0924 85.1557 91.4009C85.0903 90.9906 85.1433 90.5608 85.1433 89.9188C84.3714 88.9018 84.1807 85.8315 85.0391 84.7898C83.944 83.9355 84.5693 82.8054 84.6699 81.7831C84.7706 80.7608 84.6699 79.5635 85.5107 78.902C85.5389 78.2671 85.4506 77.7117 85.6061 77.2377C86.0035 76.028 86.4892 74.843 86.9838 73.6722C87.1728 73.2265 87.118 72.9435 86.823 72.5615C84.1348 69.1056 82.6175 65.1775 82.5645 60.7949C82.5098 56.3627 84.5975 52.9758 88.3067 50.6854C90.5516 49.2988 93.1057 49.1042 95.6103 49.8877C96.4669 50.1548 97.2476 50.8888 97.8799 51.5786C98.567 52.3249 98.1961 53.1703 97.1734 53.2145C94.2184 53.333 93.0244 56.2672 93.5402 58.5717C93.8104 59.7867 94.6318 60.4323 95.7304 60.7666C95.93 60.8267 96.2832 60.5897 96.4881 60.4004C97.8287 59.173 99.2541 58.027 101.066 57.6962C102.559 57.4239 103.774 56.7111 104.964 55.8816C107.112 54.3836 109.401 54.5268 111.758 55.2308C112.142 55.3742 112.553 55.4345 112.962 55.4076C114.614 55.1582 116.085 55.5986 117.509 56.3981C118.084 56.7217 118.731 56.9163 119.347 57.1674C119.996 57.4292 120.651 57.675 121.29 57.9509C121.93 58.2268 122.541 58.6141 123.205 58.8122C124.671 59.2386 125.929 60.1914 126.737 61.4882C127.144 62.1142 127.559 62.2929 128.292 62.04C129.926 61.4758 130.342 60.6817 130.349 58.653C130.36 56.177 129.244 54.205 127.755 52.3691C127.656 52.2471 127.515 52.1268 127.49 51.9889C127.433 51.6758 127.327 51.2956 127.453 51.0533C127.553 50.857 128.004 50.6819 128.233 50.7438C129.256 51.0161 130.372 51.1912 131.236 51.743C133.801 53.3719 136.023 55.397 137.637 58.0376C138.957 60.1953 139.854 62.5369 139.833 65.0342C139.813 67.2857 139.354 69.5708 137.939 71.4561C136.639 73.1894 135.429 75.0429 133.506 76.3499ZM83.4335 62.4857L83.4477 62.6395C83.4954 62.9013 83.5413 63.1701 83.5872 63.4266L83.7091 63.9324C84.3273 67.3423 85.8286 70.3189 88.0895 72.9152L86.4415 76.9618C86.1854 77.5932 86.0883 78.1733 86.6376 78.7535C87.0632 79.2009 86.8054 79.4609 86.2667 79.6006C86.1374 79.6466 86.019 79.719 85.919 79.813C85.819 79.9071 85.7395 80.0208 85.6855 80.1471C85.5495 80.5692 85.4705 81.0076 85.4506 81.4506C85.3641 82.5967 84.8377 83.8135 85.9576 84.7933C86.0194 84.8464 85.8675 85.2054 85.7527 85.3823C85.6379 85.5591 85.2616 85.7466 85.274 85.9128C85.3729 87.3277 84.8342 88.9337 86.4221 89.9152C86.4539 89.9347 86.4521 90.0072 86.5051 90.1805C85.493 90.5343 85.8816 91.3231 86.0476 92.0429C86.2878 93.0811 86.5475 94.1139 86.8018 95.1486C88.425 101.73 92.1007 107.216 96.1631 112.451C99.2364 116.413 103.041 119.702 106.708 123.1C107.768 124.085 108.852 125.045 109.961 126.055C112.007 124.186 113.99 122.389 115.958 120.573C120.041 116.807 123.858 112.819 126.948 108.152C130.002 103.535 132.497 98.7053 133.552 93.2226C133.572 93.0735 133.561 92.922 133.52 92.7772C133.479 92.6324 133.41 92.4975 133.315 92.3807C130.895 89.7791 130.012 86.6574 130.176 83.1786C130.193 82.7668 130.306 82.3649 130.508 82.006C131.215 80.8316 131.955 79.6749 132.736 78.5501C133.168 77.9257 133.322 77.3952 132.796 76.7372C132.663 76.5727 132.72 76.005 132.875 75.9007C134.601 74.7387 135.744 73.0426 137.005 71.4561C137.808 70.4462 138.418 69.3338 138.561 68.025L138.655 67.6518C138.726 67.3087 138.8 66.9662 138.875 66.6242C138.916 66.4474 138.957 66.2705 138.999 66.083L139.029 65.7028V64.608L138.942 63.5751L138.874 63.3647C138.845 63.1595 138.833 62.949 138.785 62.7492C138.285 60.6437 137.314 58.6791 135.947 57.0029C134.037 54.6471 131.93 52.5955 128.963 51.6493C128.717 51.5715 128.463 51.5202 128.184 51.4512C128.193 51.6086 128.184 51.6422 128.198 51.6599C128.292 51.7837 128.392 51.9022 128.488 52.0242C130.127 54.0971 131.229 56.345 131.102 59.0987C131.005 61.1963 130.358 62.1691 128.348 62.7934C127.319 63.1117 126.824 62.9526 126.229 62.047C125.395 60.786 124.316 59.8911 122.834 59.4719C122.195 59.2951 121.613 58.9095 120.997 58.6407C120.381 58.3718 119.708 58.1101 119.054 57.8554C118.439 57.6078 117.781 57.4362 117.217 57.1037C115.972 56.368 114.683 55.9577 113.218 56.1027C112.685 56.158 112.146 56.1148 111.629 55.9754C110.005 55.5226 108.372 55.1353 106.748 55.8179C105.876 56.1858 105.104 56.7925 104.265 57.2523C103.597 57.6333 102.903 57.9666 102.188 58.2498C101.494 58.5098 100.669 58.5063 100.054 58.8759C98.8408 59.6063 97.7174 60.4942 96.5941 61.3643C96.2408 61.6349 95.9936 61.7181 95.5608 61.5624C94.1584 61.0619 93.1057 60.2537 92.7577 58.7238C92.7189 58.5381 92.6782 58.3524 92.6376 58.1649C92.6376 57.7475 92.6376 57.3289 92.6376 56.9092L92.7542 56.3786C92.7648 56.2884 92.7772 56.2017 92.7895 56.1062L92.8655 55.9152C93.519 53.639 95.1122 52.5548 97.5761 52.4027C96.6753 51.2213 95.7728 50.4219 94.3703 50.413L94.1937 50.367L93.7062 50.3122L93.5526 50.2945H91.9894L91.8375 50.3069L91.5125 50.3494L91.3147 50.4095C91.1604 50.4166 91.0069 50.4355 90.8554 50.4661C87.4006 51.4052 85.357 53.8725 83.9016 56.9587C83.7532 57.2735 83.7568 57.6662 83.6896 58.0199L83.566 58.577L83.5395 58.8476C83.5183 58.9095 83.4971 58.9732 83.4742 59.0351L83.4459 59.364C83.4459 59.4666 83.4265 59.5692 83.4176 59.6735L83.3788 60.2041V61.7959L83.4335 62.4857Z" fill="#FDFDFD"></path> <path d="M127.868 58.6549C127.931 56.7271 126.965 55.2326 125.806 53.8407C124.356 52.0969 124.734 49.7375 126.271 48.786C127.024 48.3148 127.927 48.1478 128.798 48.3191C131.911 48.8497 134.299 50.6342 136.499 52.7406C139.502 55.6023 141.309 59.0918 142.189 63.1755C142.65 65.3085 141.971 67.1779 141.615 69.1482C141.312 70.7117 140.617 72.1724 139.596 73.3929C138.615 74.6044 137.607 75.7946 136.623 77.0044C136.512 77.1653 136.431 77.3451 136.385 77.535C136.097 78.4051 135.922 79.3319 135.51 80.1366C134.97 81.1978 134.237 82.1582 133.606 83.1733C133.487 83.3684 133.418 83.5904 133.407 83.8189C133.327 86.3215 133.986 88.5234 135.89 90.2867C136.835 91.1711 137.001 92.3207 136.773 93.5923C135.546 100.237 132.403 105.973 128.576 111.427C125.727 115.495 122.339 119.032 118.732 122.393C115.876 125.046 112.981 127.67 110.032 130.371C108.619 129.117 107.186 127.946 105.86 126.673C102.29 123.25 98.5226 119.994 95.2709 116.286C90.1486 110.437 85.7806 104.029 83.8571 96.3001C83.163 93.5092 82.6207 90.6758 82.1156 87.8443C81.9672 87.0219 82.1403 86.1429 82.1686 85.2886C82.1856 85.1596 82.1938 85.0296 82.1933 84.8995C81.7747 81.0987 82.9581 77.5863 84.1592 74.0826C84.3181 73.621 84.3358 73.3133 84.0355 72.8976C81.9443 70.0148 81.0329 66.6774 80.2751 63.2533C79.6728 60.5668 80.1109 57.9722 81.0894 55.6147C82.8239 51.4372 85.793 48.3969 90.4277 47.311C92.5087 46.7947 94.6972 46.9236 96.7033 47.6806C98.5438 48.3881 100.11 49.5783 100.575 51.7272C100.893 53.1969 99.9851 55.1902 98.247 55.4714C97.9415 55.5209 97.6447 55.6253 97.3427 55.6978C96.2352 55.9613 95.9297 56.3716 95.942 57.6556C96.3059 57.3974 96.6026 57.1251 96.9523 56.9482C98.0633 56.4176 99.1902 55.9047 100.308 55.3971C101.368 54.9214 102.498 54.5853 103.452 53.9628C105.695 52.493 108.085 51.8563 110.683 52.5178C112.059 52.8715 113.444 52.7477 114.809 52.9529C116.3 53.1793 117.761 53.5348 119.01 54.4597C119.111 54.5408 119.222 54.6085 119.34 54.6614C120.946 55.2981 122.533 55.9878 124.165 56.5449C125.511 57.0127 126.739 57.7676 127.765 58.7575L127.878 58.8442L127.868 58.6549ZM95.776 59.6719C94.907 59.3005 94.5184 58.6708 94.5008 57.7724C94.4566 55.6182 95.2161 54.6154 97.5246 54.2351C99.2909 53.938 99.6989 52.0526 98.7928 51.0516C98.0439 50.2257 97.159 49.3007 96.154 48.9717C92.9447 47.9229 89.836 48.3315 87.0011 50.307C84.6431 51.9501 82.9652 54.1414 82.1085 56.8615C81.4567 58.9289 81.3203 61.1246 81.7111 63.2569C82.3346 66.7216 83.5074 69.9564 85.6429 72.8074C85.7257 72.9373 85.7813 73.0826 85.8065 73.2346C85.8317 73.3866 85.8259 73.5421 85.7895 73.6918C85.2313 75.6089 84.6325 77.5173 84.0355 79.4239C83.329 81.7036 83.3626 84.0789 83.4933 86.3887C83.6346 88.9231 84.1998 91.4434 84.6908 93.9496C86.1975 101.707 90.2988 108.173 95.2285 114.087C98.1676 117.612 101.644 120.689 104.931 123.915C106.54 125.495 108.269 126.95 109.995 128.514C112.538 126.16 115.028 123.869 117.51 121.574C121.359 118.015 124.951 114.245 127.931 109.888C131.375 104.85 134.205 99.5685 135.365 93.5056C135.517 92.7186 135.588 91.9351 134.934 91.3196C133.324 89.8039 132.324 87.9592 132.108 85.7555C132.008 84.751 131.932 83.6155 132.285 82.7206C132.79 81.4666 133.698 80.3772 134.463 79.2275C134.897 78.5661 135.097 77.8799 134.892 77.0875C134.87 76.9948 134.868 76.8986 134.885 76.8049C134.902 76.7111 134.938 76.6219 134.991 76.5428C136.086 75.2641 137.22 74.0189 138.308 72.7367C140.281 70.4127 140.839 67.5865 140.876 64.6735C140.901 62.7281 140.286 60.8268 139.424 59.0723C138.26 56.7108 136.619 54.6173 134.604 52.9246C132.877 51.4584 131.082 50.2239 128.825 49.764C127.753 49.5447 127.002 49.7428 126.553 50.4573C126.105 51.1719 126.184 52.0491 126.813 52.8255C128.166 54.5075 129.274 56.285 129.323 58.5488C129.351 59.7762 129.279 60.8038 127.746 61.0443C126.825 59.7126 125.693 58.6302 124.128 58.0005C121.841 57.0808 119.607 56.0303 117.328 55.0929C116.518 54.7562 115.673 54.5141 114.808 54.3713C113.656 54.1838 112.451 54.2687 111.319 54.0176C108.682 53.4216 106.243 53.6179 104.002 55.2822C103.341 55.7703 102.589 56.3327 101.829 56.4512C99.4287 56.8297 97.5388 58.0377 95.776 59.6719Z" fill="#0F0F18"></path> <path d="M95.774 59.7067C97.5402 58.0725 99.4266 56.8556 101.825 56.4807C102.594 56.3622 103.337 55.7998 103.998 55.3116C106.239 53.6474 108.678 53.451 111.315 54.0471C112.448 54.3035 113.652 54.2239 114.804 54.4008C115.669 54.5436 116.515 54.7857 117.324 55.1224C119.603 56.0598 121.837 57.1103 124.125 58.03C125.689 58.6596 126.822 59.742 127.742 61.0738C129.275 60.8333 129.347 59.8057 129.319 58.5783C129.27 56.3144 128.162 54.537 126.809 52.855C126.18 52.0715 126.103 51.196 126.55 50.4868C126.997 49.7776 127.749 49.5742 128.821 49.7935C131.078 50.2534 132.873 51.4879 134.6 52.9541C136.615 54.6467 138.257 56.7403 139.421 59.1018C140.282 60.8563 140.897 62.7505 140.872 64.703C140.835 67.6159 140.277 70.4422 138.304 72.7662C137.216 74.0484 136.082 75.2935 134.987 76.5722C134.934 76.6514 134.898 76.7406 134.881 76.8343C134.864 76.928 134.867 77.0242 134.888 77.117C135.093 77.9093 134.888 78.5955 134.459 79.257C133.703 80.4066 132.786 81.4961 132.281 82.75C131.928 83.645 132 84.7804 132.105 85.785C132.324 87.9834 133.323 89.8334 134.931 91.3491C135.584 91.9646 135.514 92.7481 135.362 93.5351C134.201 99.5979 131.372 104.879 127.927 109.918C124.949 114.274 121.357 118.045 117.506 121.603C115.033 123.902 112.532 126.182 109.991 128.522C108.265 126.962 106.536 125.506 104.927 123.924C101.642 120.712 98.1655 117.629 95.2264 114.104C90.2967 108.19 86.1954 101.724 84.6888 93.9666C84.2013 91.4605 83.629 88.9402 83.4913 86.4058C83.3605 84.096 83.3146 81.7207 84.0335 79.4409C84.6305 77.5344 85.2293 75.626 85.7874 73.7088C85.8239 73.5592 85.8297 73.4037 85.8045 73.2517C85.7793 73.0997 85.7236 72.9544 85.6408 72.8245C83.5054 69.9806 82.3326 66.7458 81.7091 63.274C81.3183 61.1417 81.4547 58.946 82.1065 56.8786C82.9631 54.1585 84.6411 51.9672 86.9991 50.3241C89.834 48.3486 92.9426 47.94 96.152 48.9888C97.157 49.3178 98.0419 50.2428 98.7908 51.0687C99.6969 52.068 99.2853 53.9533 97.5226 54.2522C95.2141 54.6396 94.4546 55.6424 94.4987 57.7895C94.5199 58.7056 94.905 59.3406 95.774 59.7067ZM133.516 76.3883C135.439 75.0778 136.649 73.2278 137.96 71.4839C139.373 69.5986 139.834 67.3135 139.853 65.062C139.874 62.5648 138.97 60.2231 137.658 58.0654C136.043 55.4248 133.821 53.3998 131.257 51.7708C130.39 51.219 129.273 51.0439 128.254 50.7716C128.024 50.7097 127.574 50.8848 127.473 51.0811C127.348 51.3234 127.454 51.7036 127.51 52.0167C127.535 52.1546 127.677 52.2749 127.775 52.3969C129.264 54.2328 130.381 56.2083 130.37 58.6809C130.37 60.7095 129.946 61.5107 128.312 62.0678C127.579 62.3207 127.164 62.1421 126.758 61.516C125.949 60.2192 124.692 59.2664 123.225 58.84C122.561 58.6419 121.954 58.2564 121.311 57.9787C120.668 57.701 120.013 57.4481 119.368 57.1952C118.752 56.9441 118.105 56.7495 117.529 56.4259C116.106 55.6264 114.634 55.1878 112.983 55.4354C112.573 55.4623 112.163 55.402 111.778 55.2586C109.422 54.5511 107.133 54.4114 104.985 55.9094C103.795 56.7389 102.579 57.4517 101.087 57.724C99.2747 58.0548 97.8493 59.2008 96.5087 60.4283C96.3039 60.614 95.9506 60.8545 95.751 60.7944C94.6524 60.4601 93.8311 59.8145 93.5608 58.5995C93.0451 56.3003 94.2391 53.3608 97.1941 53.2423C98.2114 53.2017 98.5824 52.358 97.9006 51.6064C97.2682 50.9166 96.4875 50.1915 95.6309 49.9156C93.1263 49.1321 90.5723 49.3266 88.3273 50.7132C84.6181 53.0124 82.5304 56.3905 82.5852 60.8227C82.6381 65.2053 84.1554 69.1352 86.8437 72.5893C87.1386 72.9713 87.1969 73.2543 87.0044 73.7C86.5045 74.8708 86.0241 76.0558 85.6267 77.2655C85.4713 77.7395 85.5596 78.2949 85.5313 78.9298C84.6959 79.5913 84.793 80.7656 84.6906 81.8109C84.5881 82.8562 83.9646 83.9651 85.0597 84.8176C84.2013 85.8593 84.3921 88.9296 85.1639 89.9466C85.1639 90.5886 85.1109 91.0183 85.1763 91.4287C85.2893 92.1202 85.4942 92.7958 85.632 93.4838C87.1916 101.266 91.3194 107.714 96.2297 113.697C100.089 118.402 104.738 122.346 109.237 126.421C109.48 126.642 109.738 126.845 110.024 127.088C112.147 125.133 114.216 123.188 116.321 121.281C121.136 116.927 125.426 112.145 128.862 106.593C131.444 102.428 133.394 98.0433 134.337 93.2291C134.41 92.8648 134.369 92.3024 134.141 92.0866C132.078 90.1411 131.1 87.7004 130.944 84.9237C130.898 84.0677 130.934 83.1126 131.269 82.3539C131.771 81.2237 132.518 80.1855 133.265 79.188C133.94 78.2966 134.125 77.4336 133.516 76.3883Z" fill="#376BB2"></path> <path d="M127.867 58.6584L127.878 58.837L127.764 58.7495C127.795 58.7155 127.829 58.6849 127.867 58.6584Z" fill="white"></path> <path d="M160.398 101.779H162.504V76.4597H160.4V72.1094H161.071C167.143 72.1094 173.215 72.1005 179.291 72.1306C179.71 72.1501 180.109 72.3191 180.414 72.6071C181.757 73.9551 183.068 75.3455 184.338 76.7555C184.579 77.0427 184.717 77.4025 184.73 77.7776C184.766 79.9964 184.766 82.217 184.73 84.4394C184.714 84.7874 184.583 85.1201 184.357 85.3853C183.439 86.4162 182.473 87.4046 181.474 88.4638C182.427 89.4699 183.393 90.4459 184.304 91.4751C184.561 91.7798 184.712 92.1606 184.732 92.5591C184.768 95.2161 184.764 97.889 184.732 100.553C184.725 100.903 184.6 101.239 184.378 101.51C183.065 102.957 181.724 104.381 180.356 105.78C180.13 106.011 179.829 106.153 179.507 106.179C173.226 106.2 166.945 106.205 160.666 106.193C160.579 106.186 160.493 106.175 160.407 106.157L160.398 101.779ZM168.567 90.7329V101.789C171.161 101.789 173.708 101.789 176.255 101.775C176.5 101.737 176.724 101.617 176.892 101.435C177.437 100.913 177.971 100.372 178.465 99.8037C178.664 99.5824 178.785 99.3018 178.81 99.0049C178.84 97.1787 178.835 95.3525 178.81 93.5262C178.813 93.2759 178.732 93.0316 178.582 92.8319C178.012 92.1907 177.409 91.5778 176.795 90.9756C176.651 90.8366 176.463 90.7521 176.264 90.7364C173.722 90.7276 171.175 90.7329 168.567 90.7329ZM168.523 76.4296C168.523 79.6977 168.523 82.8541 168.523 86.0106C168.531 86.0814 168.547 86.151 168.571 86.2178C168.618 86.2472 168.669 86.2688 168.723 86.2816C170.987 86.2816 173.252 86.255 175.514 86.3099C176.282 86.3294 176.752 86.0177 177.327 85.5483C178.598 84.505 178.824 83.2456 178.9 81.6673C178.997 79.6162 178.493 78.0291 176.885 76.7892C176.823 76.7413 176.79 76.6545 176.726 76.612C176.607 76.5215 176.468 76.4608 176.321 76.4349C173.752 76.426 171.182 76.4296 168.523 76.4296Z" fill="#040505"></path> <path d="M198.206 88.6208C197.341 87.6944 196.543 86.7627 195.66 85.9213C195.103 85.3899 194.916 84.8249 194.932 84.065C194.976 81.7623 194.932 79.4596 194.962 77.1569C194.967 76.834 195.081 76.5223 195.284 76.2712C196.603 74.8259 197.937 73.3982 199.319 72.0077C199.608 71.7361 199.984 71.5766 200.38 71.5578C204.576 71.5283 208.773 71.5283 212.97 71.5578C213.339 71.5753 213.691 71.7234 213.962 71.9758C215.345 73.361 216.702 74.7721 218.031 76.2092C218.26 76.4728 218.392 76.8062 218.407 77.1551C218.439 79.635 218.439 82.1148 218.407 84.5946C218.387 84.9441 218.25 85.2767 218.018 85.5387C217.093 86.5643 216.122 87.5474 215.115 88.5996C216.097 89.6358 217.081 90.6312 218.008 91.6763C218.249 91.9611 218.39 92.318 218.407 92.6913C218.441 95.1487 218.441 97.6055 218.407 100.062C218.392 100.411 218.258 100.745 218.029 101.009C216.686 102.474 215.315 103.911 213.916 105.321C213.68 105.538 213.374 105.664 213.053 105.675C208.807 105.696 204.558 105.696 200.306 105.675C199.936 105.654 199.585 105.5 199.319 105.243C197.948 103.847 196.609 102.419 195.285 100.977C195.088 100.751 194.974 100.463 194.962 100.163C194.937 97.6545 194.933 95.1446 194.962 92.6364C194.987 92.2882 195.126 91.9582 195.358 91.6976C196.274 90.6561 197.231 89.6641 198.206 88.6208ZM206.697 86.4315C206.853 86.4173 207.01 86.4173 207.166 86.4315C209.152 86.8123 210.631 86.0595 211.685 84.3874C211.858 84.1453 211.967 83.863 212 83.5673C212.03 81.9731 212.018 80.3789 212.011 78.7847C212.011 78.6076 212.011 78.3773 211.917 78.271C210.796 77.0984 209.982 75.4051 207.859 75.8869C207.294 75.9967 206.712 75.9967 206.147 75.8869C204.256 75.5627 202.83 76.2199 201.799 77.8105C201.756 77.876 201.68 77.9221 201.652 77.9876C201.539 78.2604 201.355 78.5385 201.349 78.8166C201.321 80.4096 201.321 82.0038 201.349 83.5992C201.383 83.8947 201.495 84.1759 201.673 84.4139C202.757 86.0471 204.233 86.8141 206.216 86.4315C206.374 86.4169 206.533 86.4169 206.692 86.4315H206.697ZM206.683 101.27C206.864 101.254 207.046 101.254 207.228 101.27C209.108 101.608 210.559 100.958 211.578 99.3585C211.808 99.036 211.952 98.6597 211.995 98.2656C212.043 96.7795 212.016 95.2916 212.013 93.8037C212.013 93.5964 212.071 93.2971 211.96 93.1979C210.877 92.2378 210.313 90.5002 208.349 90.8385C207.653 90.9536 206.943 90.9536 206.248 90.8385C204.302 90.5197 202.828 91.1928 201.721 92.7763C201.705 92.7976 201.677 92.81 201.666 92.8312C201.558 93.081 201.365 93.329 201.362 93.5787C201.333 95.2237 201.333 96.868 201.362 98.5118C201.375 98.7865 201.48 99.0487 201.661 99.2558C203.5 101.27 203.506 101.264 206.214 101.264L206.683 101.27Z" fill="#040505"></path> <path d="M169.967 100.388V92.1775C171.913 92.1775 173.834 92.158 175.75 92.1899C176.28 92.1988 177.435 93.5928 177.437 94.1242C177.437 95.5589 177.437 96.9937 177.437 98.4285C177.437 99.0573 176.199 100.377 175.594 100.377C173.747 100.396 171.9 100.388 169.967 100.388ZM171.003 99.2787C172.447 99.2787 173.793 99.2929 175.139 99.2787C175.67 99.2787 176.323 98.5702 176.33 98.0529C176.344 96.8821 176.427 95.6989 176.287 94.544C176.232 94.1012 175.677 93.4121 175.295 93.3749C173.892 93.2332 172.465 93.3182 171.003 93.3182V99.2787Z" fill="#3569B1"></path> <path d="M169.967 84.8629V77.9212H170.798C172.049 77.9212 173.31 78.0292 174.543 77.8893C175.776 77.7494 176.889 78.2436 177.135 79.239C177.475 80.6452 177.475 82.1124 177.135 83.5185C176.878 84.5229 175.771 85.0365 174.481 84.9002C173.013 84.7443 171.525 84.8629 169.967 84.8629ZM171.028 83.724H174.683C175.796 83.724 176.333 83.1926 176.335 82.0873C176.335 81.5152 176.478 80.8899 176.294 80.3833C176.11 79.8767 175.638 79.1434 175.222 79.0867C173.85 78.922 172.443 79.0247 171.028 79.0247V83.724Z" fill="#376BB2"></path> <path d="M206.636 85.0187C206.325 84.9867 206.011 84.9867 205.7 85.0187C204.442 85.2844 203.632 84.6325 202.963 83.7079C202.821 83.4987 202.743 83.2524 202.739 82.9994C202.716 81.7984 202.719 80.5975 202.73 79.3965C202.73 78.6295 203.947 77.4481 204.715 77.4374C206.012 77.4304 207.314 77.4304 208.621 77.4374C209.307 77.4374 210.566 78.6561 210.566 79.3522C210.584 80.5803 210.584 81.8073 210.566 83.033C210.556 83.8 209.273 85.0045 208.504 85.0063L206.636 85.0187ZM206.717 78.5693H205.389C204.327 78.5693 203.834 79.0635 203.832 80.1104C203.832 80.8413 203.832 81.5729 203.832 82.305C203.832 83.3802 204.317 83.8762 205.371 83.878H207.948C208.957 83.878 209.471 83.3643 209.475 82.3617C209.475 81.5788 209.475 80.7959 209.475 80.0112C209.475 79.1167 208.928 78.5746 208.046 78.5693H206.717Z" fill="#3569B1"></path> <path d="M206.632 99.8797C206.007 99.8797 205.377 99.924 204.758 99.862C204.422 99.7967 204.102 99.6622 203.821 99.467C202.823 98.8754 202.597 97.9614 202.719 96.8649C202.789 96.2411 202.789 95.6112 202.719 94.9873C202.616 94.1017 202.915 93.4605 203.585 92.8813C203.989 92.527 204.344 92.3357 204.884 92.3499C206.133 92.3871 207.383 92.3499 208.634 92.3623C209.444 92.3623 210.58 93.5065 210.58 94.3284C210.58 95.5022 210.58 96.6766 210.58 97.8516C210.58 98.716 209.379 99.8744 208.503 99.878L206.632 99.8797ZM206.663 93.4817H205.337C204.311 93.4817 203.837 93.9618 203.835 94.9962C203.835 95.7526 203.835 96.5089 203.835 97.2653C203.835 98.2483 204.376 98.7833 205.358 98.7851H207.935C208.903 98.7851 209.476 98.2271 209.48 97.2759C209.48 96.4682 209.48 95.6593 209.48 94.8492C209.484 94.6713 209.453 94.4943 209.388 94.3287C209.323 94.1631 209.226 94.0121 209.101 93.8848C208.977 93.7575 208.829 93.6564 208.665 93.5875C208.501 93.5186 208.325 93.4832 208.148 93.4835C207.652 93.48 207.159 93.48 206.663 93.48V93.4817Z" fill="#376BB2"></path> <path d="M171.012 99.2841V93.3166C172.475 93.3166 173.9 93.2315 175.303 93.3732C175.685 93.4104 176.241 94.0995 176.296 94.5423C176.435 95.6972 176.352 96.8804 176.338 98.0513C176.338 98.5827 175.671 99.2699 175.148 99.277C173.801 99.2983 172.455 99.2841 171.012 99.2841ZM171.967 98.3329H174.753C175.204 98.3329 175.408 98.1186 175.402 97.6598C175.39 96.7476 175.436 95.8318 175.372 94.9249C175.356 94.6875 175.036 94.2943 174.833 94.2801C173.886 94.2111 172.933 94.2483 171.967 94.2483V98.3329Z" fill="#0F0F18"></path> <path d="M171.022 83.7641V79.0648C172.438 79.0648 173.853 78.9621 175.217 79.1268C175.632 79.1747 176.101 79.9098 176.289 80.4234C176.476 80.9371 176.329 81.5553 176.329 82.1274C176.329 83.231 175.799 83.7641 174.677 83.7641H171.022ZM171.969 82.8041C172.928 82.8041 173.853 82.8147 174.78 82.8041C175.356 82.7952 175.477 82.3754 175.371 81.9379C175.213 81.2914 175.922 80.2676 174.796 80.0532C173.881 79.8761 172.906 80.0178 171.965 80.0178L171.969 82.8041Z" fill="#0F0F18"></path> <path d="M206.718 78.5347H208.047C208.931 78.5347 209.462 79.082 209.476 79.9765C209.476 80.7612 209.476 81.5441 209.476 82.327C209.476 83.3296 208.958 83.8415 207.949 83.8433H205.372C204.311 83.8433 203.833 83.3456 203.833 82.2704C203.833 81.5382 203.833 80.8067 203.833 80.0757C203.833 79.0289 204.335 78.5347 205.39 78.5347H206.718ZM206.617 82.846C207.033 82.846 207.451 82.8248 207.856 82.846C208.369 82.8815 208.553 82.6689 208.53 82.1588C208.5 81.5105 208.503 80.8569 208.53 80.2103C208.551 79.6789 208.367 79.438 207.811 79.4735C207.293 79.5053 206.773 79.4735 206.253 79.4735C204.601 79.4735 204.765 79.2963 204.763 80.9844C204.769 82.846 204.771 82.846 206.617 82.846Z" fill="#0F0F18"></path> <path d="M206.681 93.4537C207.176 93.4537 207.67 93.4537 208.165 93.4537C208.343 93.4534 208.519 93.4887 208.683 93.5577C208.846 93.6266 208.995 93.7277 209.119 93.855C209.243 93.9823 209.34 94.1332 209.405 94.2989C209.47 94.4645 209.502 94.6415 209.497 94.8194C209.497 95.6283 209.497 96.4372 209.497 97.2461C209.497 98.1972 208.92 98.7534 207.953 98.7552H205.382C204.401 98.7552 203.863 98.2238 203.859 97.2354C203.859 96.4791 203.859 95.7227 203.859 94.9664C203.859 93.9319 204.335 93.4554 205.361 93.4519L206.681 93.4537ZM206.626 94.4066C206.262 94.4066 205.895 94.4332 205.533 94.4066C204.94 94.3517 204.746 94.6103 204.781 95.1825C204.817 95.7812 204.817 96.3816 204.781 96.9804C204.751 97.5489 204.958 97.7969 205.54 97.7704C206.293 97.7385 207.051 97.7385 207.804 97.7704C208.397 97.7969 208.607 97.5383 208.554 96.9768C208.535 96.7696 208.554 96.5588 208.554 96.3515C208.552 94.4084 208.552 94.4084 206.621 94.4084L206.626 94.4066Z" fill="#0F0F18"></path> <path d="M171.938 98.3402V94.2556C172.903 94.2556 173.857 94.2184 174.803 94.2875C175.007 94.3017 175.334 94.6949 175.343 94.9322C175.406 95.8392 175.36 96.7549 175.373 97.6671C175.373 98.1259 175.175 98.342 174.724 98.3402H171.938Z" fill="#FDFDFD"></path> <path d="M171.964 82.79V80.0055C172.901 80.0055 173.876 79.8673 174.794 80.0409C175.921 80.2552 175.212 81.2808 175.369 81.9256C175.475 82.3631 175.355 82.7829 174.778 82.7918C173.848 82.8006 172.923 82.79 171.964 82.79Z" fill="#FDFDFD"></path> <path d="M206.63 82.8871C204.783 82.8871 204.781 82.8871 204.783 81.0343C204.783 79.3374 204.62 79.5287 206.272 79.5234C206.792 79.5234 207.312 79.5482 207.831 79.5234C208.386 79.488 208.57 79.7324 208.549 80.2602C208.524 80.9103 208.521 81.5639 208.549 82.2087C208.572 82.7135 208.388 82.9314 207.875 82.8959C207.463 82.8623 207.045 82.8871 206.63 82.8871Z" fill="white"></path> <path d="M206.601 94.4071C208.527 94.4071 208.527 94.4071 208.527 96.3449C208.527 96.5522 208.511 96.763 208.527 96.9702C208.58 97.5317 208.37 97.7903 207.777 97.7638C207.024 97.7319 206.266 97.7319 205.513 97.7638C204.926 97.7903 204.724 97.5423 204.754 96.9738C204.79 96.375 204.79 95.7746 204.754 95.1759C204.719 94.6037 204.913 94.3451 205.506 94.4C205.876 94.4337 206.247 94.4071 206.601 94.4071Z" fill="#FDFDFD"></path> <path d="M168.582 90.7786C171.189 90.7786 173.737 90.7786 176.284 90.7786C176.483 90.7942 176.671 90.8788 176.815 91.0177C177.428 91.6199 178.032 92.2328 178.601 92.874C178.752 93.0738 178.832 93.318 178.829 93.5684C178.849 95.3946 178.854 97.2208 178.829 99.047C178.805 99.3439 178.684 99.6245 178.484 99.8459C177.991 100.416 177.457 100.955 176.912 101.477C176.741 101.657 176.514 101.774 176.268 101.808C173.721 101.831 171.173 101.823 168.58 101.823L168.582 90.7786ZM169.976 100.429C171.909 100.429 173.756 100.437 175.603 100.429C176.215 100.429 177.443 99.1037 177.446 98.4802C177.446 97.0454 177.446 95.6107 177.446 94.1759C177.446 93.6445 176.289 92.2505 175.759 92.2417C173.843 92.2098 171.927 92.2293 169.976 92.2293V100.429Z" fill="#FDFDFD"></path> <path d="M168.524 76.4299C171.178 76.4299 173.753 76.4299 176.324 76.4299C176.471 76.4558 176.61 76.5165 176.729 76.6071C176.793 76.6443 176.826 76.7311 176.888 76.7842C178.496 78.0241 179 79.6183 178.903 81.6624C178.827 83.2406 178.6 84.4965 177.33 85.5433C176.759 86.0127 176.285 86.3245 175.517 86.305C173.255 86.2501 170.99 86.2819 168.726 86.2766C168.672 86.2638 168.621 86.2422 168.574 86.2129C168.55 86.146 168.534 86.0764 168.526 86.0056C168.524 82.8545 168.524 79.698 168.524 76.4299ZM169.956 84.8861C171.514 84.8861 173.009 84.7675 174.473 84.9233C175.763 85.0597 176.87 84.5461 177.127 83.5417C177.467 82.1356 177.467 80.6684 177.127 79.2622C176.881 78.2685 175.786 77.7726 174.535 77.9125C173.285 78.0524 172.041 77.9444 170.79 77.9444H169.959L169.956 84.8861Z" fill="#FDFDFD"></path> <path d="M206.679 86.438C206.523 86.4239 206.366 86.4239 206.21 86.438C204.227 86.8206 202.751 86.0537 201.667 84.4205C201.489 84.1825 201.377 83.9013 201.343 83.6057C201.314 82.0127 201.314 80.4186 201.343 78.8232C201.343 78.5451 201.533 78.267 201.646 77.9942C201.674 77.9251 201.75 77.8791 201.793 77.8171C202.824 76.2229 204.25 75.5693 206.141 75.8935C206.706 76.0033 207.288 76.0033 207.853 75.8935C209.976 75.4117 210.783 77.105 211.899 78.2829C212 78.3892 211.993 78.623 211.993 78.7966C211.993 80.3908 212.012 81.985 211.982 83.5791C211.948 83.8749 211.84 84.1572 211.667 84.3993C210.606 86.0714 209.134 86.8242 207.147 86.4434C206.992 86.4274 206.835 86.4256 206.679 86.438ZM206.645 84.9944H208.52C209.29 84.9944 210.572 83.7882 210.583 83.0212C210.6 81.7954 210.6 80.5685 210.583 79.3404C210.572 78.6443 209.316 77.4274 208.637 77.4256C207.34 77.4185 206.038 77.4185 204.731 77.4256C203.963 77.4256 202.753 78.6177 202.746 79.3847C202.736 80.5856 202.732 81.7866 202.755 82.9875C202.759 83.2406 202.837 83.4869 202.98 83.6961C203.648 84.6207 204.459 85.2725 205.716 85.0068C206.025 84.9712 206.336 84.9671 206.645 84.9944Z" fill="#FDFDFD"></path> <path d="M206.663 101.282H206.194C203.486 101.282 203.48 101.282 201.641 99.2737C201.46 99.0667 201.354 98.8045 201.342 98.5298C201.315 96.886 201.315 95.2416 201.342 93.5967C201.342 93.3469 201.538 93.099 201.646 92.8492C201.657 92.8279 201.685 92.8155 201.701 92.7943C202.808 91.2001 204.285 90.5376 206.227 90.8565C206.923 90.9716 207.633 90.9716 208.329 90.8565C210.293 90.5182 210.857 92.2558 211.939 93.2159C212.051 93.3151 211.993 93.6144 211.993 93.8216C211.993 95.3095 212.023 96.7974 211.975 98.2836C211.931 98.6776 211.788 99.0539 211.557 99.3765C210.538 100.971 209.081 101.626 207.207 101.288C207.026 101.27 206.844 101.268 206.663 101.282ZM206.634 99.8654H208.509C209.385 99.8654 210.581 98.7034 210.586 97.839C210.593 96.664 210.593 95.4896 210.586 94.3158C210.586 93.4939 209.445 92.3532 208.64 92.3497C207.39 92.3497 206.139 92.3745 204.89 92.3373C204.359 92.3213 203.995 92.5144 203.592 92.8687C202.921 93.4479 202.622 94.0873 202.725 94.9748C202.796 95.5986 202.796 96.2285 202.725 96.8524C202.603 97.9488 202.829 98.8628 203.827 99.4544C204.109 99.6496 204.428 99.7841 204.765 99.8494C205.38 99.9096 206.01 99.8654 206.634 99.8654Z" fill="#FDFDFD"></path> <path d="M158.866 107.648V100.402H161.083V77.9984H158.887V70.7485C159.165 70.7361 159.441 70.7131 159.717 70.7131C166.414 70.7131 173.112 70.7089 179.809 70.7007C180.051 70.6867 180.294 70.728 180.518 70.8216C180.742 70.9152 180.942 71.0586 181.102 71.2409C182.618 72.8617 184.178 74.4293 185.682 76.0677C185.963 76.3849 186.129 76.7882 186.152 77.212C186.193 79.7969 186.193 82.383 186.152 84.9703C186.142 85.3709 185.992 85.7552 185.728 86.0561C184.964 86.8337 184.122 87.5334 183.267 88.3021C184.235 89.3189 185.036 90.1053 185.758 90.9467C185.998 91.2342 186.137 91.5926 186.154 91.967C186.185 95.049 186.185 98.1317 186.154 101.215C186.144 101.566 186.014 101.903 185.786 102.17C184.184 103.884 182.556 105.576 180.904 107.246C180.633 107.505 180.278 107.658 179.904 107.678C173.128 107.703 166.352 107.696 159.577 107.694C159.354 107.694 159.126 107.663 158.866 107.648ZM160.388 101.803V106.182C160.473 106.199 160.559 106.211 160.646 106.217C166.926 106.217 173.206 106.212 179.487 106.203C179.809 106.177 180.11 106.035 180.336 105.804C181.701 104.403 183.041 102.979 184.359 101.534C184.58 101.264 184.705 100.927 184.713 100.577C184.741 97.9203 184.744 95.2474 184.713 92.5834C184.692 92.1849 184.542 91.8041 184.284 91.4993C183.377 90.4702 182.411 89.4942 181.454 88.4881C182.454 87.4253 183.419 86.4405 184.337 85.4096C184.563 85.1444 184.694 84.8117 184.711 84.4637C184.745 82.2425 184.745 80.0219 184.711 77.8018C184.698 77.4268 184.559 77.067 184.318 76.7798C183.041 75.3627 181.737 73.9794 180.394 72.6314C180.089 72.3434 179.69 72.1744 179.271 72.1549C173.198 72.1248 167.127 72.1337 161.051 72.1337H160.38V76.4734H162.484V101.792L160.388 101.803Z" fill="#FDFDFD"></path> <path d="M216.868 88.8993C217.722 89.6645 218.608 90.3979 219.413 91.2127C219.696 91.5263 219.86 91.9293 219.877 92.3516C219.916 95.0936 219.912 97.8427 219.877 100.579C219.864 100.952 219.723 101.309 219.479 101.591C217.858 103.325 216.213 105.038 214.542 106.728C214.291 106.97 213.962 107.114 213.615 107.135C208.952 107.16 204.288 107.16 199.624 107.135C199.323 107.132 199.034 107.021 198.808 106.821C197.115 105.086 195.441 103.33 193.786 101.555C193.612 101.338 193.517 101.069 193.516 100.79C193.496 97.8911 193.496 94.9915 193.516 92.0912C193.532 91.7901 193.646 91.5026 193.841 91.2729C194.591 90.405 195.382 89.5742 196.21 88.6761C195.453 87.8525 194.673 87.0554 193.961 86.1963C193.704 85.8901 193.55 85.5099 193.521 85.1105C193.486 82.2888 193.493 79.4671 193.521 76.6472C193.519 76.3199 193.629 76.0018 193.832 75.7456C195.412 74.0416 197.006 72.3535 198.642 70.708C198.97 70.4019 199.397 70.223 199.845 70.2032C204.377 70.1689 208.91 70.1689 213.445 70.2032C213.891 70.2263 214.315 70.4077 214.641 70.7151C216.284 72.3535 217.888 74.0327 219.472 75.7297C219.719 76.0112 219.863 76.3685 219.88 76.7428C219.912 79.538 219.912 82.3331 219.88 85.1282C219.863 85.4755 219.722 85.8053 219.484 86.0582C218.646 86.8783 217.752 87.6417 216.88 88.4282C216.877 88.5894 216.873 88.7452 216.868 88.8993ZM198.182 88.6708C197.208 89.7141 196.251 90.7061 195.338 91.737C195.106 91.9976 194.967 92.3276 194.941 92.6758C194.91 95.1839 194.913 97.6939 194.941 100.202C194.954 100.503 195.068 100.79 195.265 101.017C196.588 102.459 197.928 103.886 199.298 105.282C199.565 105.54 199.915 105.693 200.286 105.714C204.531 105.744 208.78 105.744 213.033 105.714C213.353 105.703 213.66 105.578 213.896 105.36C215.291 103.95 216.663 102.518 218.012 101.063C218.242 100.799 218.375 100.465 218.391 100.115C218.42 97.659 218.42 95.2022 218.391 92.7448C218.373 92.3716 218.233 92.0147 217.991 91.7299C217.064 90.6848 216.081 89.6893 215.099 88.6531C216.105 87.601 217.077 86.6179 218.002 85.5923C218.233 85.3302 218.371 84.9977 218.391 84.6482C218.423 82.1684 218.423 79.6885 218.391 77.2087C218.376 76.8598 218.243 76.5263 218.014 76.2628C216.684 74.8281 215.328 73.4169 213.945 72.0294C213.674 71.777 213.323 71.6289 212.953 71.6114C208.757 71.583 204.561 71.583 200.363 71.6114C199.967 71.6301 199.591 71.7897 199.302 72.0613C197.926 73.4518 196.587 74.8794 195.267 76.3248C195.064 76.5759 194.951 76.8876 194.945 77.2105C194.919 79.5132 194.959 81.8159 194.915 84.1186C194.899 84.8785 195.092 85.4417 195.644 85.9749C196.514 86.8145 197.317 87.7462 198.182 88.6726V88.6708Z" fill="#FDFDFD"></path> <path d="M159.045 80.0055C156.832 79.8886 156.817 79.8726 156.817 77.6673C156.817 75.1592 156.817 72.651 156.817 70.1428C156.817 68.926 157.199 68.5309 158.388 68.5309C165.763 68.5309 173.138 68.5168 180.513 68.5575C181.069 68.5825 181.599 68.8062 182.006 69.1881C183.934 71.1365 185.812 73.1257 187.666 75.1468C187.981 75.5126 188.163 75.9736 188.185 76.4558C188.229 79.3802 188.185 82.3011 188.224 85.2326C188.236 86.0775 188.061 86.7541 187.41 87.3139C187.036 87.6664 186.682 88.0389 186.348 88.4298C186.363 88.4847 186.361 88.5184 186.375 88.529C187.985 89.6803 188.338 91.255 188.239 93.1698C188.094 96.0039 188.239 98.8646 188.174 101.711C188.143 102.266 187.928 102.795 187.564 103.215C185.834 105.131 184.026 106.972 182.271 108.872C182.003 109.187 181.668 109.437 181.29 109.603C180.913 109.769 180.502 109.848 180.09 109.832C172.924 109.806 165.761 109.818 158.59 109.818C157.256 109.818 156.821 109.375 156.821 108.047V100.205C156.821 98.5156 157.014 98.3172 158.685 98.2995C158.788 98.2995 158.892 98.2889 159.048 98.28L159.045 80.0055ZM157.728 99.2454C157.728 102.273 157.744 105.169 157.716 108.065C157.716 108.653 157.879 108.814 158.463 108.812C165.784 108.795 173.106 108.812 180.428 108.784C180.775 108.769 181.106 108.629 181.36 108.391C183.214 106.484 185.042 104.553 186.844 102.6C187.087 102.315 187.226 101.954 187.236 101.578C187.266 98.1832 187.266 94.787 187.236 91.3896C187.219 91.0391 187.09 90.7032 186.868 90.4314C186.292 89.7388 185.648 89.0994 184.898 88.2952C185.561 87.6983 186.225 87.181 186.782 86.5664C187.057 86.2419 187.215 85.8348 187.233 85.4097C187.271 82.5107 187.271 79.6111 187.233 76.7108C187.218 76.3096 187.067 75.9255 186.805 75.6215C185.05 73.7262 183.247 71.877 181.484 69.9887C181.337 69.8138 181.151 69.675 180.942 69.5829C180.733 69.4908 180.506 69.4478 180.277 69.4573C173.06 69.4751 165.843 69.4792 158.625 69.4697H157.767V79.0419H160.014V99.2454H157.728Z" fill="#0F0F18"></path> <path d="M219.8 88.7324C221.836 89.8997 222.089 91.6958 221.979 93.7541C221.848 96.1507 221.926 98.5596 221.961 100.963C221.975 101.274 221.923 101.584 221.81 101.874C221.698 102.164 221.526 102.428 221.307 102.648C219.421 104.633 217.557 106.64 215.63 108.587C215.248 108.959 214.747 109.182 214.215 109.216C209.16 109.261 204.104 109.261 199.048 109.216C198.517 109.181 198.015 108.958 197.633 108.587C195.71 106.639 193.831 104.642 191.981 102.625C191.681 102.279 191.507 101.842 191.486 101.385C191.445 98.0407 191.445 94.697 191.486 91.354C191.526 90.8976 191.706 90.4647 192.001 90.1141C192.4 89.6075 192.924 89.2001 193.426 88.72C193.016 88.2666 192.691 87.8149 192.275 87.4801C191.599 86.9275 191.44 86.2491 191.449 85.4095C191.486 82.3008 191.477 79.1904 191.449 76.0818C191.438 75.7856 191.489 75.4905 191.6 75.2158C191.711 74.941 191.879 74.6929 192.093 74.4876C193.943 72.5764 195.765 70.6368 197.591 68.7008C197.808 68.4459 198.08 68.2431 198.386 68.1073C198.692 67.9715 199.025 67.9061 199.359 67.9161C204.231 67.9533 209.105 67.9462 213.976 67.9161C214.26 67.899 214.543 67.945 214.806 68.0506C215.07 68.1563 215.306 68.319 215.499 68.5272C217.454 70.5925 219.435 72.6313 221.349 74.7356C221.704 75.1681 221.904 75.7068 221.917 76.266C221.97 79.2967 221.917 82.3274 221.96 85.3581C221.978 85.7335 221.912 86.1082 221.766 86.4544C221.62 86.8006 221.397 87.1094 221.116 87.3579C220.706 87.7476 220.329 88.178 219.8 88.7324ZM194.857 88.8529C194.139 89.4764 193.442 90.0344 192.818 90.6525C192.592 90.8859 192.457 91.1926 192.438 91.5169C192.41 94.7561 192.41 97.9952 192.438 101.234C192.448 101.535 192.561 101.822 192.758 102.049C194.567 103.998 196.395 105.928 198.242 107.841C198.497 108.079 198.829 108.217 199.177 108.229C204.154 108.253 209.13 108.253 214.106 108.229C214.478 108.21 214.832 108.057 215.101 107.799C216.952 105.889 218.78 103.956 220.585 102C220.781 101.74 220.883 101.423 220.875 101.098C220.897 97.9645 220.905 94.8293 220.866 91.6958C220.829 91.2769 220.662 90.8801 220.389 90.5604C219.858 89.8962 219.234 89.301 218.62 88.651C219.26 87.9584 219.886 87.3331 220.444 86.6529C220.687 86.3693 220.834 86.0159 220.865 85.6433C220.897 82.4549 220.897 79.2666 220.865 76.0782C220.845 75.73 220.707 75.3989 220.474 75.1395C218.705 73.2264 216.912 71.3335 215.096 69.4607C214.812 69.179 214.434 69.0109 214.035 68.9877C209.112 68.9582 204.189 68.9582 199.264 68.9877C198.867 69.0064 198.49 69.1681 198.203 69.4429C196.349 71.3489 194.527 73.2884 192.719 75.2404C192.529 75.4719 192.425 75.7613 192.422 76.0605C192.4 79.2713 192.4 82.4839 192.422 85.6982C192.446 86.0471 192.581 86.3792 192.807 86.6459C193.387 87.3278 194.015 87.9531 194.856 88.8529H194.857Z" fill="#0F0F18"></path> <path d="M157.728 99.2831H160.014V79.0795H157.767V69.5056H158.636C165.853 69.5056 173.071 69.5015 180.288 69.4932C180.516 69.4837 180.744 69.5267 180.953 69.6188C181.162 69.7109 181.347 69.8497 181.494 70.0246C183.263 71.9128 185.061 73.7621 186.815 75.6574C187.077 75.9614 187.228 76.3455 187.244 76.7467C187.279 79.647 187.279 82.5466 187.244 85.4456C187.226 85.8707 187.067 86.2778 186.792 86.6023C186.235 87.2169 185.572 87.7341 184.909 88.3311C185.659 89.1353 186.302 89.7747 186.879 90.4673C187.101 90.7391 187.23 91.075 187.247 91.4256C187.273 94.8229 187.273 98.2191 187.247 101.614C187.237 101.99 187.098 102.35 186.854 102.636C185.049 104.588 183.221 106.518 181.371 108.427C181.117 108.665 180.786 108.805 180.438 108.82C173.117 108.841 165.795 108.83 158.473 108.848C157.889 108.848 157.721 108.689 157.727 108.101C157.744 105.206 157.728 102.31 157.728 99.2831ZM158.875 107.651C159.135 107.67 159.363 107.702 159.582 107.702C166.357 107.702 173.133 107.702 179.909 107.686C180.283 107.666 180.638 107.513 180.909 107.254C182.56 105.587 184.187 103.894 185.791 102.177C186.019 101.911 186.149 101.574 186.159 101.223C186.185 98.1406 186.185 95.0579 186.159 91.9747C186.142 91.6003 186.003 91.2419 185.763 90.9544C185.034 90.113 184.24 89.3266 183.272 88.3098C184.127 87.5411 184.969 86.8414 185.733 86.0638C185.997 85.7629 186.147 85.3786 186.157 84.978C186.194 82.3919 186.194 79.8058 186.157 77.2197C186.134 76.7959 185.968 76.3926 185.687 76.0754C184.183 74.444 182.623 72.8693 181.107 71.2486C180.947 71.0663 180.747 70.9229 180.523 70.8293C180.299 70.7357 180.056 70.6943 179.814 70.7084C173.117 70.7249 166.419 70.729 159.722 70.7208C159.446 70.7208 159.17 70.7438 158.892 70.7562V78.0061H161.088V100.404H158.875V107.651Z" fill="#3569B1"></path> <path d="M194.867 88.8335C194.027 87.9337 193.399 87.3084 192.833 86.63C192.607 86.3633 192.471 86.0313 192.447 85.6824C192.419 82.4692 192.419 79.2566 192.447 76.0447C192.45 75.7454 192.555 75.4561 192.744 75.2246C194.552 73.2761 196.374 71.3277 198.228 69.4271C198.515 69.1522 198.892 68.9905 199.289 68.9718C204.213 68.9423 209.137 68.9423 214.06 68.9718C214.46 68.995 214.837 69.1632 215.122 69.4448C216.94 71.3129 218.733 73.2059 220.499 75.1236C220.732 75.3831 220.87 75.7141 220.89 76.0624C220.918 79.2508 220.918 82.4391 220.89 85.6275C220.86 86.0001 220.712 86.3535 220.469 86.6371C219.912 87.3173 219.286 87.9426 218.645 88.6351C219.254 89.2852 219.873 89.8751 220.414 90.5446C220.687 90.8643 220.854 91.2611 220.892 91.68C220.931 94.8135 220.922 97.9487 220.901 101.082C220.908 101.407 220.806 101.725 220.611 101.984C218.806 103.937 216.978 105.87 215.127 107.783C214.857 108.042 214.504 108.194 214.131 108.213C209.155 108.241 204.179 108.241 199.203 108.213C198.854 108.201 198.522 108.063 198.267 107.825C196.414 105.916 194.586 103.985 192.783 102.033C192.586 101.807 192.473 101.519 192.463 101.219C192.442 97.9782 192.442 94.7391 192.463 91.5011C192.483 91.1767 192.617 90.8701 192.843 90.6367C193.459 90.015 194.149 89.457 194.867 88.8335ZM216.882 88.8495C216.882 88.6936 216.891 88.5377 216.894 88.3818C217.766 87.5954 218.663 86.8319 219.498 86.0118C219.736 85.7589 219.877 85.4292 219.894 85.0819C219.925 82.2868 219.925 79.4917 219.894 76.6965C219.877 76.3221 219.733 75.9648 219.486 75.6833C217.902 73.9864 216.301 72.3072 214.655 70.6688C214.329 70.3614 213.905 70.1799 213.459 70.1569C208.925 70.1214 204.392 70.1214 199.859 70.1569C199.411 70.1767 198.984 70.3556 198.656 70.6617C197.02 72.3072 195.426 73.9953 193.846 75.6993C193.643 75.9555 193.533 76.2736 193.535 76.6009C193.512 79.4208 193.505 82.2425 193.535 85.0642C193.563 85.4636 193.718 85.8437 193.975 86.15C194.683 87.0038 195.467 87.8009 196.224 88.6298C195.396 89.5279 194.605 90.3586 193.855 91.2266C193.66 91.4563 193.546 91.7438 193.53 92.0449C193.507 94.9451 193.507 97.8447 193.53 100.744C193.531 101.022 193.626 101.292 193.8 101.509C195.451 103.28 197.125 105.036 198.822 106.775C199.048 106.974 199.337 107.086 199.638 107.089C204.301 107.108 208.964 107.108 213.629 107.089C213.976 107.068 214.305 106.923 214.555 106.681C216.224 104.995 217.87 103.283 219.493 101.544C219.737 101.263 219.878 100.906 219.891 100.533C219.923 97.791 219.926 95.042 219.891 92.3053C219.874 91.883 219.71 91.48 219.427 91.1663C218.622 90.348 217.736 89.6147 216.882 88.8477V88.8495Z" fill="#376BB2"></path> </svg> 