<?xml version="1.0" encoding="utf-8"?>
<!-- Generator: Adobe Illustrator 27.0.0, SVG Export Plug-In . SVG Version: 6.00 Build 0)  -->
<svg version="1.1" id="Слой_1" xmlns="http://www.w3.org/2000/svg" xmlns:xlink="http://www.w3.org/1999/xlink" x="0px" y="0px"
	 viewBox="0 0 1893 440" style="enable-background:new 0 0 1893 440;" xml:space="preserve">
<style type="text/css">
	.st0{fill:#025add;}
	.st1{fill:#54E3F6;}
	.st2{fill:#08359B;}
	.st3{fill:#2B89FB;}
	.st4{fill:#FFFFFF;}
</style>
<g>
	<g id="text_group_00000070814303723557287610000012703813798496779197_" transform="rotate(0)">
		
			<g id="text_layer_1_0_00000049911746375396364260000014126902464624040850_" transform="translate(364.16703566867295, 620.83857895282)">
			<path class="st0" d="M-107.3-377.5h-39.7v-205.7h39.7V-377.5z M-41.7-377.5h-40.2v-205.7h42.4l18.9,98.4v-98.4h39.8v205.7h-40.3
				l-20.6-102.9V-377.5z M105-377.5H63.8v-166.1H39.4v-39.5h90v39.5H105V-377.5z M234.8-377.5h-85v-205.7h82.4v39.7h-40.5v40h38.8
				v38.8h-38.8v47.2h43.1V-377.5z M257.3-377.5v-205.7h63.2c10.1,0,17.9,2.3,23.4,6.8c5.5,4.6,9.2,10.9,11.1,19.2
				c1.9,8.2,2.9,18.7,2.9,31.4l0,0c0,11.7-1.5,20.8-4.6,27.3c-3,6.5-8.3,11.1-15.8,13.7l0,0c6.2,1.3,10.7,4.4,13.5,9.3
				c2.8,4.9,4.2,11.6,4.2,20.1l0,0l-0.5,77.8h-40.2v-80.5c0-5.7-1.1-9.4-3.4-11c-2.2-1.6-6.3-2.4-12.2-2.4l0,0v93.8H257.3z
				 M299.2-507h9.8c5.7,0,8.6-6.2,8.6-18.7l0,0c0-5.4-0.2-9.5-0.7-12.2c-0.5-2.7-1.4-4.6-2.6-5.6s-3.1-1.5-5.5-1.5l0,0h-9.6V-507z
				 M420.6-377.5h-40.3v-205.7h42.4l18.9,98.4v-98.4h39.7v205.7h-40.2l-20.6-102.9V-377.5z M542.9-377.5h-40l19.9-205.7h69.6
				l19.6,205.7h-39l-2.9-33.3h-24.9L542.9-377.5z M556.1-548.2l-7.7,104.6h18.6L558-548.2H556.1z M692.3-377.5h-41.2v-166.1h-24.4
				v-39.5h90v39.5h-24.4V-377.5z M774.9-377.5h-39.7v-205.7h39.7V-377.5z M849.3-375.5c-16.6,0-29.2-5.1-37.8-15.2
				c-8.6-10.1-13-24.4-13-42.7l0,0v-97.9c0-17.7,4.3-31.1,13-40.1c8.6-9,21.2-13.5,37.8-13.5l0,0c16.6,0,29.2,4.5,37.8,13.5
				c8.6,9,12.9,22.4,12.9,40.1l0,0v97.9c0,18.5-4.3,32.8-12.9,42.9C878.5-380.6,865.9-375.5,849.3-375.5L849.3-375.5z M849.3-413.4
				c3.7,0,6.2-1.6,7.4-4.8c1.3-3.2,1.9-7.7,1.9-13.4l0,0v-100.5c0-4.5-0.6-8.1-1.8-10.9c-1.2-2.8-3.6-4.2-7.3-4.2l0,0
				c-6.9,0-10.3,5.2-10.3,15.6l0,0v100.3c0,5.9,0.7,10.4,2.2,13.4C842.9-414.9,845.5-413.4,849.3-413.4L849.3-413.4z M965.7-377.5
				h-40.3v-205.7h42.4l18.9,98.4v-98.4h39.7v205.7h-40.2l-20.6-102.9V-377.5z M1088-377.5h-40l19.9-205.7h69.6l19.6,205.7h-39
				l-2.9-33.3h-24.9L1088-377.5z M1101.2-548.2l-7.7,104.6h18.6l-9.1-104.6H1101.2z M1262.1-377.5h-83.5v-205.7h41.2v170.7h42.4
				V-377.5z M1385.1-377.5h-39.7v-205.7h39.7V-377.5z M1469.4-377.5h-41.2v-166.1h-24.4v-39.5h90v39.5h-24.5V-377.5z"/>
		</g>
	</g>
	<g id="tagline_group_00000075856156995850735320000004079496919021757879_" transform="rotate(0)">
		
			<g id="text_layer_2_0_00000180325933157453185300000000365205572254246303_" transform="translate(377.94535316867314, 693.5103519528199)">
			<path class="st0" d="M-159.9-283.8v-101.7h9.9v92.7h49.1v9H-159.9z M16.5-283.8h-62.1v-101.7h60.7v9h-50.9v36.2H9v8.8h-44.7v38.7
				h52.2V-283.8z M61-283.8v-0.3l47.3-102.2h3.3l47.3,102.2v0.3h-10.3l-10.8-23.3H82.1l-10.8,23.3H61z M104.3-355.3l-18,39.2h47.4
				l-18.1-39.2c-1.3-3-2.4-5.6-3.3-7.8c-1-2.3-1.7-4.2-2.3-5.8l0,0c-0.6,1.6-1.4,3.5-2.3,5.8C106.7-360.9,105.6-358.3,104.3-355.3
				L104.3-355.3z M211.8-283.8v-101.7h32.6c10.1,0,19,2.2,26.9,6.6c7.9,4.4,14,10.5,18.4,18.2c4.4,7.7,6.6,16.5,6.6,26.2l0,0
				c0,9.8-2.1,18.5-6.4,26.2c-4.3,7.7-10.4,13.7-18.2,18c-7.8,4.4-16.9,6.5-27.1,6.5l0,0H211.8z M221.7-292.8h22.9
				c8.3,0,15.6-1.8,22-5.5c6.4-3.6,11.3-8.6,14.8-15c3.5-6.3,5.2-13.4,5.2-21.3l0,0c0-7.9-1.7-15-5.2-21.4s-8.4-11.4-14.9-15.1
				c-6.4-3.7-13.8-5.5-22.1-5.5l0,0h-22.7V-292.8z M417.8-283.8h-62.1v-101.7h60.7v9h-50.9v36.2h44.7v8.8h-44.7v38.7h52.2V-283.8z
				 M475.3-385.5h38.4c4.5,0,8.7,0.8,12.7,2.3c3.9,1.5,7.3,3.6,10.3,6.3c3,2.7,5.3,5.9,7,9.5c1.7,3.6,2.5,7.5,2.5,11.7l0,0
				c0,7.8-2.4,14.3-7.3,19.4c-4.8,5.2-11.4,8.4-19.8,9.7l0,0l29,42.2v0.4h-11.4L508.2-326h-23v42.2h-9.9V-385.5z M485.1-376.5v41.6
				h28.1c7.2,0,12.8-1.9,16.9-5.7c4.1-3.8,6.1-8.7,6.1-14.8l0,0c0-3-0.5-5.8-1.6-8.3c-1.1-2.5-2.7-4.7-4.7-6.6
				c-2-1.9-4.4-3.4-7.1-4.5c-2.8-1.1-5.8-1.6-9.1-1.6l0,0H485.1z M633.7-282L633.7-282c-6.7,0-13.1-1.1-19.1-3.3
				c-6.1-2.2-11.4-5.2-15.9-9l0,0l5.1-7.8c3.9,3.5,8.4,6.2,13.5,8.1c5.2,1.9,10.6,2.8,16.4,2.8l0,0c6.7,0,12.3-1.7,16.9-5.1
				c4.6-3.4,6.9-8,6.9-13.8l0,0c0-4-1.1-7.3-3.3-10c-2.2-2.7-5-4.9-8.5-6.6c-3.4-1.8-7.8-3.6-13.2-5.5l0,0
				c-9.5-3.3-17-7.2-22.6-11.6c-5.6-4.4-8.4-10.5-8.4-18.2l0,0c0-5.2,1.4-9.7,4.2-13.6c2.9-3.8,6.6-6.8,11.4-8.8c4.8-2,9.9-3,15.5-3
				l0,0c5.8,0,11.2,0.8,16.2,2.4c5,1.6,9.9,4.2,14.7,7.8l0,0l-4.5,7.5c-4.1-2.9-8.2-5-12.4-6.4c-4.2-1.4-8.7-2.1-13.5-2.1l0,0
				c-5.9,0-11,1.4-15.2,4.2c-4.2,2.8-6.3,6.7-6.3,11.7l0,0c0,3.9,1.1,7.1,3.3,9.7c2.3,2.6,5,4.7,8.2,6.3c3.3,1.6,7.6,3.3,13,5.2l0,0
				c10,3.6,17.7,7.6,23.1,12.1c5.5,4.5,8.2,10.7,8.2,18.5l0,0c0,5.8-1.5,10.8-4.5,15.1s-7,7.6-12.1,9.9S640-282,633.7-282z
				 M783-283.8v-0.3l47.3-102.2h3.3l47.3,102.2v0.3h-10.3l-10.8-23.3h-55.6l-10.8,23.3H783z M826.2-355.3l-18,39.2h47.4l-18.1-39.2
				c-1.3-3-2.4-5.6-3.4-7.8c-0.9-2.3-1.7-4.2-2.3-5.8l0,0c-0.6,1.6-1.4,3.5-2.3,5.8C828.6-360.9,827.5-358.3,826.2-355.3
				L826.2-355.3z M957.1-283.1l-35-102v-0.4h10.2l22.4,66.6c1,2.9,1.9,5.6,2.7,8.2c0.8,2.6,1.5,5,2.1,7.3l0,0c0.8-3,1.6-5.8,2.5-8.3
				c0.9-2.6,1.8-4.9,2.7-7.1l0,0l24.5-61.3h2.8l23.6,58.3c2.6,6.7,4.8,12.9,6.6,18.5l0,0c0.5-2.1,1.2-4.6,2.1-7.5
				c1-2.9,2.1-6.2,3.4-10l0,0l21.7-64.8h10.2v0.4l-35.2,102h-3l-26.8-66c-0.5-1.3-1.1-2.9-1.8-4.8s-1.4-4.1-2.2-6.7l0,0
				c-1,3-1.8,5.5-2.4,7.4c-0.6,1.9-1.1,3.3-1.5,4.1l0,0l-26.8,66H957.1z M1090.8-283.8v-0.3l47.3-102.2h3.3l47.3,102.2v0.3h-10.3
				l-10.8-23.3h-55.6l-10.8,23.3H1090.8z M1134.1-355.3l-18,39.2h47.4l-18.1-39.2c-1.3-3-2.4-5.6-3.4-7.8c-0.9-2.3-1.7-4.2-2.3-5.8
				l0,0c-0.6,1.6-1.4,3.5-2.3,5.8C1136.5-360.9,1135.3-358.3,1134.1-355.3L1134.1-355.3z M1241.6-385.5h38.4c4.5,0,8.7,0.8,12.6,2.3
				c4,1.5,7.4,3.6,10.3,6.3c3,2.7,5.3,5.9,7,9.5c1.7,3.6,2.5,7.5,2.5,11.7l0,0c0,7.8-2.4,14.3-7.3,19.4c-4.8,5.2-11.4,8.4-19.8,9.7
				l0,0l29,42.2v0.4h-11.4l-28.6-42.2h-23v42.2h-9.9V-385.5z M1251.5-376.5v41.6h28.1c7.2,0,12.8-1.9,16.9-5.7
				c4.1-3.8,6.1-8.7,6.1-14.8l0,0c0-3-0.5-5.8-1.6-8.3c-1.1-2.5-2.7-4.7-4.7-6.6c-2-1.9-4.4-3.4-7.2-4.5c-2.7-1.1-5.7-1.6-9-1.6l0,0
				H1251.5z M1371-283.8v-101.7h32.6c10.1,0,19,2.2,26.9,6.6c7.9,4.4,14,10.5,18.4,18.2c4.4,7.7,6.6,16.5,6.6,26.2l0,0
				c0,9.8-2.1,18.5-6.4,26.2c-4.3,7.7-10.4,13.7-18.2,18c-7.8,4.4-16.9,6.5-27.1,6.5l0,0H1371z M1380.9-292.8h22.9
				c8.3,0,15.6-1.8,22-5.5c6.4-3.6,11.3-8.6,14.8-15c3.5-6.3,5.2-13.4,5.2-21.3l0,0c0-7.9-1.7-15-5.2-21.4
				c-3.5-6.4-8.5-11.4-14.9-15.1c-6.4-3.7-13.8-5.5-22-5.5l0,0h-22.7V-292.8z"/>
		</g>
	</g>
	<path class="st0" d="M38.1,150.9c0-1.1-0.2-2.3,0.1-3.4c0.3,0.2,0.3,0.5,0.3,0.8c0,2.5,0.2,4.9,0.3,7.4c0.2,4.7,0.6,9.4,1,14.1
		c0.6,6.2,1.3,12.5,2.3,18.7c1.2,8,2.6,15.9,4.4,23.7c2.4,10.5,5.5,20.8,9.8,30.7c4.2,9.6,9.6,18.3,17.9,25c7,5.7,15,7.8,23.9,6.5
		c4.9-0.7,9.6-2.1,14.3-3.6c5.6-1.8,11.2-3.3,17.2-2.2c6.9,1.3,13.1,3.8,17.6,9.5c0,1.3,0,2.7,0,4c0,14.2,0,28.3,0,42.5
		c0,0.6,0,1.2-0.1,1.8c-0.1,0-0.1,0-0.2,0c0-0.6,0-1.3,0-1.9c0-13.8,0-27.5,0-41.3c0-0.5,0.2-1.1-0.1-1.5c-0.4,0-0.4,0.3-0.5,0.5
		c-2.8,4.9-5.5,9.8-8.4,14.6c-4.5,7.4-10.6,13.2-18.2,17.4c-9.3,5.2-19.4,7-29.9,7.3c-2.1,0-4.1-0.2-6.2-0.3
		c-2.5-0.1-4.9-0.4-7.3-0.8c-4.1-0.6-8.1-0.7-12.2,0.1c-8.5,1.7-14.6,6.7-19.5,13.6c-2.7,3.9-4.5,8.3-6.4,12.6
		c0-0.7-0.1-1.4-0.1-2.1c0-64,0-127.9,0-191.9C38.2,152,38.2,151.5,38.1,150.9z"/>
	<path class="st0" d="M38.2,362.4c0-0.1,0.1-0.3,0.1-0.4c0.5-1,1.1-2,1.6-3c2.9-5,6.3-9.6,11-13c7.8-5.5,16.4-7.6,25.9-6.3
		c3.8,0.5,7.5,1.5,11,3.2c0.2,0.4,0.5,0.3,0.8,0.3l0.1,0c0.1,0.2,0.3,0.3,0.5,0.3l0,0c0.1,0.2,0.3,0.3,0.6,0.3l0,0
		c0.1,0.2,0.3,0.3,0.6,0.3l0,0c0.1,0.2,0.3,0.3,0.6,0.3l0,0c0.1,0.1,0.2,0.2,0.3,0.3l0,0c0.9,1.2,2.3,1.7,3.5,2.7
		c1.9,1.5,3.3,3.5,5.1,5.1c0.1,0.1,0.2,0.2,0.3,0.2l0,0c0.9,1.6,2.4,2.7,3.6,4.1c4.8,5.4,10.1,10.1,16.5,13.5
		c8.9,4.8,17.8,4.5,26.7,0.1l0.1,0l0.1,0c0,0.8,0.1,1.7,0.1,2.5c0,12.4,0,24.9,0,37.3c0,1.4-0.5,1.7-1.7,2
		c-7.4,1.7-14.9,2.7-22.4,3.6c-9.7,1.1-19.4,1.8-29.2,1.6c-10-0.2-20-0.9-29.6-4c-13.4-4.4-21.3-13.7-24.3-27.3
		c-1.8-7.7-2.2-15.6-2-23.5C38.2,362.6,38.2,362.5,38.2,362.4z M80.6,405.8c0.8,0.1,2.2-0.1,3.6-0.9c2.1-1.3,2.7-3.7,1.2-5.6
		c-1.5-1.9-3.6-3.1-5.6-4.5c-5.3-3.7-9.5-8.2-11.4-14.6c-1.1-3.6-2.6-7.2-5.4-10c-1.4-1.4-3-2.1-4.9-1.6c-1.9,0.6-3.3,2-3.7,4
		c-0.7,3.5-0.6,7,0.6,10.3c2.6,7.8,7.5,13.9,14.1,18.8C72.2,404.1,75.7,405.8,80.6,405.8z M103.7,411.4c1.8,0.1,3.6-0.3,5.3-1
		c2.9-1.1,2.7-4,0.5-5.5c-3.1-2-6.5-2.8-10.1-2.7c-2.3,0.1-4,1.3-4.2,2.8c-0.3,2,0.8,4,2.8,5.1C99.8,411,101.7,411.5,103.7,411.4z"
		/>
	<path class="st1" d="M38.3,134.9c0,3.6,3.4,9.6,8.7,11.4c5.4,1.9,10.1,0.5,14.4-2.9c5.4-4.3,7.8-10.2,9.1-16.8
		c0.8-4.1,0.8-8.2,1.2-12.3c0.6-6.6,1.3-13.1,2.5-19.6c1.6-8.5,3.7-16.9,7.2-24.9C84.7,62.3,89,55.4,95,49.7
		c7-6.6,15.3-10.6,24.7-12.5c1.7-0.4,3.2-0.4,4.7,0.6c1.1,0.7,2.4,1.1,3.6,1.7c-0.1,0.6-0.6,0.6-1,0.7c-9.9,3-18.1,8.5-24.9,16.3
		c-5.7,6.5-10.5,13.7-13.5,21.9c-4.7,12.8-4.5,25.8-1.6,38.9c2.8,12.8,8,24.6,14.1,36.1c0.1,0.1,0.2,0.2,0.2,0.3c0,0,0,0,0,0
		c0.2,0.8,0.4,1.6,0.7,2.4c2.7,6.9,3.9,14,2.6,21.4c-0.8,4.8-2.6,9.2-6,12.8c-6.6,7.2-14.9,8.7-23.9,7c-8.1-1.5-14.1-6.3-19.1-12.6
		c-6-7.7-9.8-16.5-12.7-25.7c-0.8-2.7-1.3-5.4-2.3-8c0-0.1,0-0.1,0-0.2c0-0.5,0.3-1.1-0.3-1.5c-0.3-1.6-0.5-3.2-0.8-4.8
		c-0.4-2-0.4-4-1.2-5.9c-0.4-1.5-0.2-2.9-0.2-4.4"/>
	<path class="st0" d="M101.1,153.4c-6-11.5-11.2-23.4-14.1-36.1c-2.9-13.1-3.1-26.1,1.6-38.9c3-8.2,7.8-15.4,13.5-21.9
		c6.8-7.7,15.1-13.2,24.9-16.3c0.4-0.1,0.9-0.2,1-0.7c1.2,0.5,2.1,1.6,3.3,2.3c-0.3,0.2-0.6,0.4-0.9,0.5c-6.3,1.9-11.9,5.1-16.9,9.4
		c-6.3,5.5-10.7,12.4-13.4,20.4c-3.2,9.5-4.1,19.3-3.2,29.3c0.5,5.5,1.7,10.9,3.4,16.1c2.8,8.5,7.1,16.2,11.8,23.7
		c6.7,10.6,14.6,20.2,22,30.3c3.9,5.3,7.6,10.6,10.2,16.7c0.7,1.8,1.4,3.6,2.7,5.5c0-1.1,0-1.7,0-2.4c0.1,0,0.1,0,0.2,0
		c0,2.7,0.1,5.4,0.1,8.1c0,12.2,0,24.5,0,36.7c0,0.5,0,1.1-0.1,1.6c-1,0.8-2,1.5-2.9,2.3c-6.3,5.1-12.9,9.7-20.5,12.6
		c-6.7,2.5-13.5,3.6-20.6,2.2c-8.6-1.7-15.8-6.1-22.1-12.1c-6.6-6.2-11.7-13.5-16.2-21.3c-0.8-1.4-2-2.7-2.2-4.4
		c0.6,0.3,0.8,1,1.2,1.5c2.7,4.1,5.7,8,9.5,11.2c7.8,6.6,16.8,8.6,26.6,7.2c5.8-0.8,10.7-3.7,15.1-7.6c5-4.5,9-9.9,12.9-15.4
		c5-7,9.8-14.1,17.3-18.8c0.7,0,1-0.6,1.7-0.8c-1.1-0.8-2.3-1.1-3.2-1.8c-8-6-16-12-23.5-18.7c-5.2-4.7-10-9.6-14.5-15
		c-1.4-1.7-2.6-3.7-4.3-5.1c0,0,0,0,0,0C101.3,153.6,101.2,153.5,101.1,153.4z"/>
	<path class="st2" d="M62.6,217.1c0.2,1.8,1.4,3,2.2,4.4c4.5,7.8,9.6,15.1,16.2,21.3c6.3,5.9,13.5,10.3,22.1,12.1
		c7.1,1.4,14,0.4,20.6-2.2c7.6-2.9,14.3-7.5,20.5-12.6c1-0.8,1.9-1.5,2.9-2.3c0,13.4,0,26.9,0,40.3c-4.5-5.7-10.7-8.2-17.6-9.5
		c-6-1.1-11.6,0.4-17.2,2.2c-4.7,1.5-9.4,2.9-14.3,3.6c-8.9,1.3-16.9-0.9-23.9-6.5c-8.3-6.7-13.6-15.5-17.9-25
		c-4.4-9.9-7.4-20.2-9.8-30.7c-1.8-7.8-3.2-15.8-4.4-23.7c-0.9-6.2-1.7-12.5-2.3-18.7c-0.4-4.7-0.8-9.4-1-14.1
		c-0.1-2.5-0.2-4.9-0.3-7.4c0-0.3,0-0.6-0.3-0.8c0-1.1-0.1-2.2-0.1-3.3c0.2-1,0.2-2,0-3.1c0-0.8,0-1.7,0.1-2.5
		c0.9,1.9,0.8,3.9,1.2,5.9c0.3,1.6,0.6,3.2,0.8,4.8c0.1,0.5-0.1,1.1,0.3,1.5c0,0.1,0,0.1,0,0.2c0,0.4,0,0.8,0,1.2
		c2.3,12.5,5.4,24.8,9.4,36.9c1.5,4.5,3.1,9,5.4,13.3c0.8,1.8,1.6,3.7,2.4,5.5c0,0.3,0,0.5,0.3,0.7l0,0.1c0.1,0.2,0.2,0.3,0.3,0.5
		l0,0.1c0.1,0.2,0.2,0.3,0.3,0.5l0,0.1c0.1,0.2,0.2,0.3,0.3,0.5l0,0.1c0.1,0.2,0.2,0.3,0.3,0.5l0,0.1c0.1,0.2,0.2,0.3,0.3,0.5l0,0.1
		c0.1,0.2,0.2,0.3,0.3,0.5l0,0.1c0.1,0.2,0.2,0.3,0.3,0.5l0,0.1c0.1,0.1,0.2,0.3,0.3,0.4l0,0c0,0.3,0,0.5,0.3,0.6l0,0
		c0,0.3,0,0.5,0.3,0.6l0,0c0,0.5,0,1,0.6,1.2l0,0c0,0.3,0,0.5,0.3,0.6l0,0c0.1,0.1,0.2,0.2,0.3,0.3l0,0
		C62.3,216.8,62.3,217,62.6,217.1L62.6,217.1z"/>
	<path class="st2" d="M147.2,191.4c-0.1,0-0.1,0-0.2,0c-0.3-3.2-0.6-6.4-0.9-9.5c-0.5-5.7-1.7-11.2-4.1-16.4
		c-3.4-7.6-8.6-14-13.7-20.5c-13.1-16.7-20.2-35.4-18.6-56.9c0.5-7.1,2.6-13.8,6.5-19.7c5.7-8.6,13.4-14.6,23.1-18
		c2.9,4.1,4.6,8.6,5.8,13.4c-0.5-0.1-1,0.1-1.4,0.3c-3.1,1.3-5.8,3.1-8.4,5.2c-4.8,4-8.4,8.8-10.6,14.7c-2.2,6-3,12.1-2.4,18.5
		c0.5,5.3,1.7,10.5,4.2,15.2c1.3,2.5,2.9,4.7,5.6,5.9c1.3,0.6,2.3,0.2,3-1c1-1.5,1.1-3.3,1-5c-0.2-3.2-0.4-6.4,0.1-9.6
		c1-6.1,3.2-11.6,6.8-16.6c1.8-2.5,4.6-4.5,4.1-8.2c0,7.2,0,14.5,0,21.7c-0.3,0.2-0.4,0.5-0.6,0.8c-1.1,2.5-1.7,5.2-1.9,8
		c-0.3,4.4,0.3,8.7,2.5,12.7c0,15.2,0,30.4,0,45.6C147.3,178.4,147.2,184.9,147.2,191.4z"/>
	<path class="st3" d="M38.3,346.6c1.9-4.3,3.7-8.7,6.4-12.6c4.8-6.9,11-11.9,19.5-13.6c4-0.8,8.1-0.7,12.2-0.1
		c2.4,0.4,4.9,0.7,7.3,0.8c2.1,0.1,4.1,0.3,6.2,0.3c10.5-0.2,20.6-2.1,29.9-7.3c7.6-4.2,13.6-10,18.2-17.4c2.9-4.8,5.6-9.7,8.4-14.6
		c0.1-0.2,0.2-0.5,0.5-0.5c0.3,0.5,0.1,1,0.1,1.5c0,13.8,0,27.5,0,41.3c0,0.6,0,1.3,0,1.9c-1.5,1.8-3.2,3.4-5,4.8
		c-9,7-19.1,9.6-30.3,7.1c-8.1-1.8-16.1-4-24.5-4.6c-6.1-0.4-12.2-0.5-18.2,0.8c-12.3,2.6-21.5,9.5-28,20.2
		c-0.9,1.5-1.4,3.2-2.7,4.5c0-0.1-0.1-0.3-0.1-0.4C38.2,354.8,38.3,350.7,38.3,346.6z"/>
	<path class="st3" d="M139.3,50.3c-9.7,3.4-17.5,9.4-23.1,18c-3.9,6-6,12.6-6.5,19.7c-1.6,21.5,5.6,40.2,18.6,56.9
		c5.1,6.5,10.3,12.9,13.7,20.5c2.4,5.2,3.6,10.7,4.1,16.4c0.3,3.2,0.6,6.4,0.9,9.5c0,0.7,0,1.4,0,2.4c-1.3-1.9-2-3.7-2.7-5.5
		c-2.5-6.1-6.3-11.5-10.2-16.7c-7.4-10.1-15.4-19.7-22-30.3c-4.7-7.5-9-15.3-11.8-23.7c-1.7-5.2-2.9-10.6-3.4-16.1
		c-0.9-10,0-19.8,3.2-29.3c2.7-8,7.1-14.8,13.4-20.4c4.9-4.3,10.5-7.6,16.9-9.4c0.3-0.1,0.6-0.3,0.9-0.5
		C134.5,44.1,137.4,46.8,139.3,50.3z"/>
	<path class="st2" d="M38.3,359.3c1.2-1.3,1.8-3,2.7-4.5c6.5-10.7,15.7-17.6,28-20.2c6-1.3,12.1-1.2,18.2-0.8
		c8.3,0.6,16.4,2.8,24.5,4.6c11.2,2.5,21.3-0.1,30.3-7.1c1.8-1.4,3.5-3,5-4.8c0.1,0,0.1,0,0.2,0c0,9.9,0,19.8,0,29.7
		c-0.3-0.1-0.5,0.1-0.8,0.3c-4.2,4-9.4,5.8-15.1,6.4c-6.5,0.7-12.5-1.1-18-4.4c-5.4-3.2-10.3-7-15.5-10.2c-2.1-1.3-4-2.9-6.5-3.4
		c0,0,0,0,0,0c-0.1-0.1-0.2-0.2-0.3-0.3c0,0,0,0,0,0c-0.1-0.2-0.3-0.3-0.6-0.3c0,0,0,0,0,0c-0.1-0.2-0.3-0.3-0.6-0.3c0,0,0,0,0,0
		c-0.1-0.2-0.3-0.3-0.6-0.3c0,0,0,0,0,0c-0.2-0.1-0.4-0.2-0.5-0.3c0,0-0.1,0-0.1,0c-0.2-0.3-0.5-0.3-0.8-0.3
		c-3.5-1.7-7.1-2.7-11-3.2c-9.4-1.3-18.1,0.8-25.9,6.3c-4.7,3.4-8.2,7.9-11,13c-0.6,1-1.1,2-1.6,3C38.3,361.1,38.3,360.2,38.3,359.3
		z"/>
	<path class="st0" d="M147.2,83.2c0.6,3.7-2.3,5.7-4.1,8.2c-3.6,5-5.8,10.6-6.8,16.6c-0.5,3.2-0.3,6.4-0.1,9.6c0.1,1.7-0.1,3.4-1,5
		c-0.7,1.2-1.7,1.6-3,1c-2.7-1.2-4.3-3.5-5.6-5.9c-2.5-4.8-3.7-9.9-4.2-15.2c-0.6-6.4,0.1-12.6,2.4-18.5c2.2-5.8,5.8-10.7,10.6-14.7
		c2.6-2.1,5.3-3.9,8.4-5.2c0.5-0.2,0.9-0.4,1.4-0.3C146.7,70.1,147.1,76.6,147.2,83.2z"/>
	<path class="st0" d="M157.3,44.6c-0.1,4.6-0.5,9.1-2.7,13.2c-0.6,1.2-1.3,2.4-2.9,2.3c-1.1-0.1-1.9-1.6-2-3.4
		c-0.1-2,0.4-3.9,0.2-5.9c-0.4-4.2-2.3-7.7-4.5-11.1c-1-1.4-2-2.8-3-4.2c-0.5-0.8-1.1-1.5-1.5-2.4c-1.2-2.2-1.7-4.5,0-6.6
		c1.7-2.2,4.1-2.7,6.8-2.2c2.4,0.4,4.1,1.7,5.3,3.8C155.7,33.2,157.6,38.6,157.3,44.6z"/>
	<path class="st3" d="M91.3,344.8c2.5,0.6,4.4,2.1,6.5,3.4c5.3,3.3,10.2,7.1,15.5,10.2c5.6,3.3,11.5,5.1,18,4.4
		c5.6-0.6,10.8-2.4,15.1-6.4c0.2-0.2,0.4-0.4,0.8-0.3c0,4.8,0,9.6,0,14.4c0,0-0.1,0-0.1,0s-0.1,0-0.1,0c0-2.1-0.1-4.1,0-6.2
		c0-1.2-0.4-1.2-1.3-0.8c-1.4,0.7-2.8,1.3-4.2,1.8c-5.4,2.1-10.9,2.8-16.6,1.2c-7.3-2-13.8-5.7-20-10c-1.7-1.1-2.9-2.7-4.7-3.7
		c0,0,0,0,0,0c-0.1-0.1-0.2-0.2-0.3-0.2c-1.8-1.6-3.2-3.6-5.1-5.1C93.7,346.5,92.3,345.9,91.3,344.8z"/>
	<path class="st3" d="M154.8,75c-1.4,0-2.7-0.1-3.9-0.7c-1.3-0.6-1.4-1.5-0.5-2.6c0.8-0.9,1.8-1.5,2.9-2c4.8-2.4,8.2-6,10.4-10.9
		c1-2.1,2.4-3.9,5-4.1c2.3-0.1,3.6,1,3.4,3.4c-0.3,3.9-2.2,7.2-4.7,10c-2.8,3.1-5.8,5.9-10.2,6.6C156.5,74.9,155.6,74.9,154.8,75z"
		/>
	<path class="st3" d="M147.2,126.4c-2.1-4-2.7-8.3-2.5-12.7c0.2-2.8,0.8-5.4,1.9-8c0.1-0.3,0.3-0.6,0.6-0.8
		C147.2,112.1,147.2,119.2,147.2,126.4z"/>
	<path class="st1" d="M38.2,362.4c0,0.1-0.1,0.3-0.1,0.4C38,362.6,38.1,362.5,38.2,362.4z"/>
	<path class="st3" d="M80.6,405.8c-4.8,0-8.3-1.8-11.6-4.1c-6.6-4.8-11.5-10.9-14.1-18.8c-1.1-3.4-1.2-6.9-0.6-10.3
		c0.4-2,1.8-3.5,3.7-4c1.9-0.6,3.5,0.1,4.9,1.6c2.8,2.8,4.4,6.4,5.4,10c1.9,6.4,6.1,10.8,11.4,14.6c2,1.4,4.1,2.6,5.6,4.5
		c1.5,1.9,0.9,4.4-1.2,5.6C82.8,405.7,81.4,405.9,80.6,405.8z"/>
	<path class="st1" d="M100.2,352.8c1.8,1,3.1,2.6,4.7,3.7c6.2,4.2,12.7,8,20,10c5.7,1.6,11.2,0.9,16.6-1.2c1.4-0.6,2.8-1.2,4.2-1.8
		c0.9-0.4,1.3-0.4,1.3,0.8c0,2.1,0,4.1,0,6.2c-8.9,4.4-17.8,4.7-26.7-0.1c-6.4-3.4-11.7-8.2-16.5-13.5
		C102.6,355.5,101.1,354.4,100.2,352.8z"/>
	<path class="st3" d="M103.7,411.4c-2,0.1-3.9-0.4-5.7-1.2c-2-1-3.1-3.1-2.8-5.1c0.3-1.5,1.9-2.7,4.2-2.8c3.6-0.2,7,0.7,10.1,2.7
		c2.3,1.5,2.4,4.4-0.5,5.5C107.3,411.1,105.5,411.5,103.7,411.4z"/>
	<path class="st3" d="M87.8,342.9c0.3,0.1,0.6,0,0.8,0.3C88.3,343.3,87.9,343.3,87.8,342.9z"/>
	<path class="st3" d="M88.7,343.3c0.2,0.1,0.4,0.2,0.5,0.3C89,343.6,88.8,343.5,88.7,343.3z"/>
	<path class="st3" d="M89.3,343.6c0.2,0,0.4,0,0.6,0.3C89.6,343.9,89.4,343.8,89.3,343.6z"/>
	<path class="st3" d="M89.8,343.9c0.2,0,0.4,0,0.6,0.3C90.2,344.2,90,344.1,89.8,343.9z"/>
	<path class="st3" d="M90.4,344.2c0.2,0,0.4,0,0.6,0.3C90.8,344.5,90.5,344.4,90.4,344.2z"/>
	<path class="st3" d="M91,344.5c0.1,0.1,0.2,0.2,0.3,0.3C91.2,344.7,91.1,344.6,91,344.5z"/>
	<path class="st1" d="M99.9,352.5c0.1,0.1,0.2,0.2,0.3,0.2C100.1,352.7,100,352.6,99.9,352.5z"/>
	<path class="st3" d="M55.4,202.3c-2.2-4.2-3.9-8.7-5.4-13.3c-3.9-12.1-7-24.4-9.4-36.9c-0.1-0.4,0-0.8,0-1.2c1.1,2.6,1.5,5.4,2.3,8
		c2.9,9.2,6.6,18,12.7,25.7c4.9,6.3,11,11.1,19.1,12.6c9.1,1.7,17.4,0.2,23.9-7c3.3-3.6,5.1-8,6-12.8c1.3-7.4,0.1-14.5-2.6-21.4
		c-0.3-0.8-0.5-1.6-0.7-2.4c1.7,1.5,2.9,3.4,4.3,5.1c4.5,5.3,9.3,10.3,14.5,15c7.4,6.7,15.5,12.7,23.5,18.7c1,0.7,2.1,1.1,3.2,1.8
		c-0.7,0.2-1,0.7-1.7,0.8c-2.7,0.4-5.1,1.5-7.5,2.6c-6.6,2.9-12.1,7.3-17.2,12.3c-1.9,1.8-3.7,3.9-5.8,5.5
		c-10.1,7.8-21.5,10.7-34.1,8.6c-6-1-11.5-3.4-15.8-8c-2.8-3-4.9-6.3-6.9-9.9C57.1,204.9,56.7,203.4,55.4,202.3z"/>
	<path class="st3" d="M40.6,150.8c-0.4-0.4-0.2-1-0.3-1.5C40.9,149.7,40.6,150.3,40.6,150.8z"/>
	<path class="st3" d="M101.1,153.4c0.1,0.1,0.2,0.2,0.2,0.3C101.3,153.6,101.2,153.5,101.1,153.4z"/>
	<path class="st1" d="M55.4,202.3c1.3,1,1.7,2.6,2.4,3.9c2,3.5,4.1,6.9,6.9,9.9c4.3,4.6,9.7,7,15.8,8c12.6,2.1,24-0.9,34.1-8.6
		c2.1-1.6,3.9-3.6,5.8-5.5c5.2-4.9,10.7-9.3,17.2-12.3c2.4-1.1,4.8-2.2,7.5-2.6c-7.4,4.7-12.3,11.8-17.3,18.8
		c-3.9,5.5-7.9,10.8-12.9,15.4c-4.3,3.9-9.2,6.8-15.1,7.6c-9.9,1.4-18.9-0.7-26.6-7.2c-3.8-3.2-6.8-7.1-9.5-11.2
		c-0.3-0.5-0.5-1.2-1.2-1.5c0,0,0,0,0,0c0.1-0.3,0-0.5-0.3-0.6c0,0,0,0,0,0c0-0.2-0.1-0.3-0.3-0.3c0,0,0,0,0,0c0-0.3,0-0.5-0.3-0.6
		c0,0,0,0,0,0c0-0.5-0.1-0.9-0.6-1.2c0,0,0,0,0,0c0-0.3,0-0.5-0.3-0.6c0,0,0,0,0,0c0-0.3,0-0.5-0.3-0.6c0,0,0,0,0,0
		c-0.1-0.1-0.2-0.3-0.3-0.4c0,0,0-0.1,0-0.1c-0.1-0.2-0.2-0.3-0.3-0.5c0,0,0-0.1,0-0.1c-0.1-0.2-0.2-0.3-0.3-0.5c0,0,0-0.1,0-0.1
		c-0.1-0.2-0.2-0.3-0.3-0.5c0,0,0-0.1,0-0.1c-0.1-0.2-0.2-0.3-0.3-0.5c0,0,0-0.1,0-0.1c-0.1-0.2-0.2-0.3-0.3-0.5c0,0,0-0.1,0-0.1
		c-0.1-0.2-0.2-0.3-0.3-0.5c0,0,0-0.1,0-0.1c-0.1-0.2-0.2-0.3-0.3-0.5c0,0,0-0.1,0-0.1c0-0.3,0-0.5-0.3-0.7
		C57,206,56.2,204.2,55.4,202.3z"/>
	<path class="st0" d="M61.1,214.4c0.5,0.2,0.7,0.7,0.6,1.2C61.1,215.4,61.1,214.9,61.1,214.4z"/>
	<path class="st0" d="M62.3,216.5c0.3,0.1,0.4,0.3,0.3,0.6C62.3,217,62.3,216.8,62.3,216.5z"/>
	<path class="st0" d="M61.7,215.6c0.3,0.1,0.4,0.3,0.3,0.6C61.7,216.1,61.7,215.9,61.7,215.6z"/>
	<path class="st0" d="M60.8,213.8c0.3,0.1,0.3,0.3,0.3,0.6C60.8,214.3,60.8,214.1,60.8,213.8z"/>
	<path class="st0" d="M60.5,213.2c0.3,0.1,0.3,0.3,0.3,0.6C60.5,213.7,60.5,213.5,60.5,213.2z"/>
	<path class="st0" d="M57.8,207.9c0.3,0.2,0.3,0.4,0.3,0.7C57.9,208.4,57.8,208.2,57.8,207.9z"/>
	<path class="st0" d="M58.2,208.7c0.1,0.2,0.2,0.3,0.3,0.5C58.3,209,58.3,208.8,58.2,208.7z"/>
	<path class="st0" d="M58.5,209.3c0.1,0.2,0.2,0.3,0.3,0.5C58.6,209.6,58.6,209.4,58.5,209.3z"/>
	<path class="st0" d="M58.8,209.9c0.1,0.2,0.2,0.3,0.3,0.5C58.9,210.2,58.8,210,58.8,209.9z"/>
	<path class="st0" d="M59.1,210.5c0.1,0.2,0.2,0.3,0.3,0.5C59.2,210.8,59.1,210.6,59.1,210.5z"/>
	<path class="st0" d="M59.9,212.2c0.1,0.2,0.2,0.3,0.3,0.5C60.1,212.6,60,212.4,59.9,212.2z"/>
	<path class="st0" d="M59.6,211.7c0.1,0.2,0.2,0.3,0.3,0.5C59.8,212,59.7,211.8,59.6,211.7z"/>
	<path class="st0" d="M59.4,211.1c0.1,0.2,0.2,0.3,0.3,0.5C59.5,211.4,59.4,211.2,59.4,211.1z"/>
	<path class="st0" d="M60.2,212.8c0.1,0.1,0.2,0.3,0.3,0.4C60.4,213.1,60.3,213,60.2,212.8z"/>
	<path class="st0" d="M62,216.2c0.2,0,0.3,0.1,0.3,0.3C62.2,216.4,62.1,216.3,62,216.2z"/>
	<g id="color_index_4_00000118369115529329520980000009892965128159737232_">
		<path class="st2" d="M124,37.5L124,37.5c-43.4,6.9-49.8,54.8-52,87.8c-2,30.7-28.6,34.6-33.7,15.6v-0.1l0,0l0,0c0,0,0,0,0-0.1
			c0-0.1,0-0.1-0.1-0.3v-1.3V93.9l-0.1-55.3c4.7-0.9,12.1-2.1,22.4-3.5c10.2-1.6,19.9-2.2,29.2-2.2c9.7,0,18.4,0.8,25.8,2.2
			c2.9,0.7,5.6,1.4,8.2,2.3c0,0,0,0,0.1,0C123.9,37.5,124,37.5,124,37.5z"/>
	</g>
	<g>
		<path class="st4" d="M147.2,364.4v7.9c-9.7,4.7-18.1,4.6-26.7-0.5c-0.4-0.3-0.7-0.4-1.1-0.6c-1.5-0.9-2.8-1.9-4.3-2.9l0,0
			c-0.4-0.3-0.7-0.6-1.1-0.9c-0.4-0.3-0.6-0.5-1-0.9l0,0c-0.4-0.3-0.7-0.6-1.1-1c-0.1-0.1-0.2-0.3-0.4-0.4c-0.1-0.1-0.2-0.3-0.4-0.3
			c-0.1-0.1-0.2-0.3-0.4-0.4c-0.7-0.6-1.5-1.4-2.2-2.2c-0.4-0.4-0.7-0.8-1.1-1.1c-2.7-2.8-5.3-5.8-8.3-9.4l0,0l0,0l0,0
			c5.3,5.4,8.9,8.5,19.2,13.7C129.5,370.8,136.7,369.8,147.2,364.4z"/>
		<path class="st4" d="M147.2,355.7v15.1c-10.1,4.7-18.9,4.6-27.9-0.5c-0.4-0.3-0.8-0.4-1.1-0.6c-1.4-0.9-2.9-1.9-4.4-2.9l0,0
			c-0.8-0.6-1.5-1.1-2.3-1.8c-1.1-0.9-2.3-1.9-3.4-3c-0.8-0.8-1.5-1.5-2.3-2.3c-2.8-2.8-5.6-5.8-8.6-9.4l0,0l0,0l0,0l0,0l0,0
			c-0.1-0.1-0.4-0.4-0.5-0.5c-0.1-0.1-0.4-0.4-0.5-0.5c-0.6-0.6-1.3-1.3-1.9-1.8c-0.3-0.1-0.4-0.4-0.6-0.5c-0.4-0.4-0.9-0.8-1.4-1
			c-1.9-1.4-4.1-2.5-6.5-3.5c-0.3-0.1-0.6-0.3-0.9-0.4c-1-0.4-2-0.8-3-1c14.8,3.5,25.7,16.6,38.4,20.8
			C132.9,365.6,143.8,359.9,147.2,355.7z"/>
		<path class="st4" d="M146.8,194.4c-2.4,0.9-5.3,3.2-7.1,5c-2.1,1.8-3.9,3.9-5.6,6.1c-1.9,2.4-3.6,4.8-5.4,7.4
			c-1.9,2.5-3.6,5.2-5.6,7.8c-1.9,2.5-3.9,5-6.1,7.3c-2.1,2.2-4.4,4.2-7,5.9c-2.5,1.7-5.3,2.9-8.3,3.7c-1.3,0.4-2.5,0.5-3.9,0.6
			c-23.9,2.2-35.1-16.4-43.8-38c-0.1-0.4-0.4-0.9-0.5-1.3l0.1,0.1c4.6,10.4,9.8,17.6,14.5,21c11.6,8.4,34.9,8.4,50.5-7.9
			c7.3-7.8,13.9-12,18.9-14.3C143.3,195.3,146.8,194.6,146.8,194.4z"/>
		<path class="st4" d="M146.8,194.4c0,0-1,0.4-1.1,0.4c-20.8,7.6-20.5,27.4-42.5,35.9c-21.8,8.5-38.9-6-49.3-31.2
			c-0.1-0.4-0.4-0.9-0.5-1.3h0.1v0.1c4.6,10.4,9.8,17.6,14.5,21c11.6,8.4,34.9,8.4,50.4-7.9c7.3-7.8,13.9-12,18.9-14.3
			c1.4-0.6,3.9-1.5,3.9-1.5C143.1,195.5,147,194.4,146.8,194.4z"/>
		<path class="st4" d="M54.5,373.2c0.4-2,1.5-3.8,3.2-4.7c5.6-2.7,9.2,6.5,12,14.8c3.3,9.5,16.2,14.1,16.2,18
			c0,6.7-12.9,8.2-24.8-7.3C54,384.7,53.9,377.1,54.5,373.2z"/>
		<path class="st4" d="M95.3,405.5c-0.6,7.9,15.7,7.3,15.7,2.3C110.9,402.7,95.3,399.3,95.3,405.5z"/>
		<path class="st4" d="M70.9,49.6c3.3-2.5,8,0.3,7.4,4.4c-0.6,3.9-4.7,8.1-9.7,12.3c-8,6.7-5.3,22.8-11.8,23.6
			c-4.9,0.6-1.8-18,3.8-28.1C64,55.8,68.1,51.9,70.9,49.6z"/>
		<path class="st4" d="M55.1,104.6c4.9,0,5.3,20.1-0.5,19.6C48.7,123.6,51.4,104.6,55.1,104.6z"/>
	</g>
</g>
</svg>
