<?xml version="1.0" encoding="UTF-8"?> <svg xmlns="http://www.w3.org/2000/svg" width="302" height="177" viewBox="0 0 302 177" fill="none"> <rect width="302" height="177" rx="10" fill="white"></rect> <g clip-path="url(#clip0_890_514)"> <path d="M84.2111 91.6782L83.6164 91.4356L84.4488 89.4222C83.8089 89.2051 83.1748 88.9637 82.5418 88.6922C82.252 89.0549 81.8057 89.2917 81.3003 89.2975C80.4123 89.3067 79.6831 88.6033 79.6727 87.7231C79.6692 87.5706 79.6924 87.4239 79.7306 87.283C77.9848 86.2699 76.2541 85.0051 74.5337 83.418L72.5908 88.1597L95.0722 97.1903L97.4938 91.2635C93.149 91.1872 89.0359 90.8742 85.0586 89.6255L84.2111 91.6782Z" fill="#009745"></path> <path d="M81.474 89.2846C81.4832 89.2846 81.496 89.2811 81.5064 89.2811C81.4972 89.2811 81.4867 89.2846 81.474 89.2846ZM81.7313 89.2337C81.7406 89.2303 81.751 89.2268 81.7603 89.2245C81.751 89.2268 81.7418 89.2303 81.7313 89.2337ZM81.6479 89.2557C81.6571 89.2522 81.6699 89.2488 81.6803 89.2488C81.671 89.2488 81.6571 89.2522 81.6479 89.2557ZM81.5968 89.2649C81.5876 89.2684 81.5748 89.2684 81.5644 89.2719C81.5737 89.2719 81.5841 89.2684 81.5968 89.2649ZM81.387 89.2938C81.3963 89.2938 81.4067 89.2903 81.416 89.2903C81.4067 89.2903 81.3975 89.2938 81.387 89.2938ZM85.0595 89.6253C89.0346 90.874 93.1476 91.187 97.489 91.2633L98.428 88.9623C93.6716 88.3062 89.9666 87.2793 86.7219 85.6159L84.2098 91.6803L85.0595 89.6253ZM79.6737 87.6524C79.6737 87.6743 79.6737 87.6998 79.6737 87.7252C79.6737 87.6975 79.6737 87.6755 79.6737 87.6524ZM79.6957 87.4329C79.6957 87.4399 79.6922 87.4456 79.6922 87.4526C79.6922 87.4456 79.6957 87.4387 79.6957 87.4329ZM79.6864 87.493C79.6829 87.5126 79.6829 87.5311 79.6794 87.5508C79.6829 87.5311 79.6829 87.5126 79.6864 87.493ZM79.6737 87.627C79.6737 87.6108 79.6771 87.5946 79.6771 87.5762C79.6771 87.5958 79.6771 87.6108 79.6737 87.627ZM82.217 88.9969C82.224 88.9935 82.2263 88.99 82.2333 88.9842C82.2263 88.9912 82.224 88.9946 82.217 88.9969ZM82.2843 88.9461C82.2878 88.9427 82.2936 88.9392 82.297 88.9369C82.2947 88.9403 82.2912 88.9438 82.2843 88.9461ZM82.362 88.8826C82.3585 88.8861 82.355 88.8895 82.3527 88.8895C82.3585 88.8861 82.362 88.8826 82.362 88.8826ZM82.195 86.3945C82.61 86.6786 82.8836 87.1499 82.8894 87.6847C82.8929 88.0636 82.7642 88.4171 82.5416 88.692C83.1746 88.9623 83.8122 89.2049 84.4486 89.422L83.6163 91.4354L86.0507 85.5536L83.0853 84.3268L82.195 86.3945ZM79.7281 87.2828C79.9113 86.614 80.5257 86.1196 81.2583 86.1103C81.3777 86.1103 81.4902 86.1196 81.6026 86.1427L82.7445 83.4975L84.0568 84.0392C81.5968 82.3828 79.3294 80.2539 76.9332 77.5198L72.5918 88.156L74.5347 83.4143C76.2515 85.0049 77.9823 86.2697 79.7281 87.2828ZM81.8183 89.2049C81.8252 89.2014 81.8345 89.1979 81.8403 89.1979C81.8345 89.2014 81.8275 89.2014 81.8183 89.2049ZM81.9979 89.1286C82.0014 89.1286 82.0014 89.1286 81.9979 89.1286C82.0014 89.1286 82.0014 89.1286 81.9979 89.1286ZM82.1463 89.0455C82.1533 89.042 82.1591 89.0385 82.1626 89.0328C82.1591 89.0385 82.1533 89.042 82.1463 89.0455ZM82.0884 89.0801C82.0814 89.0836 82.0791 89.087 82.0721 89.0894C82.0791 89.087 82.0826 89.0836 82.0884 89.0801Z" fill="#81C322"></path> <path d="M105.873 70.7948L83.3921 61.7642L76.9409 77.5279C79.3336 80.2586 81.5976 82.384 84.0541 84.0416L82.7418 83.4999L86.2926 84.9692L87.7335 81.4865L80.6227 78.5733L82.8195 73.3407C82.3987 73.0565 82.1181 72.5818 82.1123 72.04C82.103 71.161 82.8137 70.4367 83.7005 70.4275C84.5885 70.4182 85.3176 71.1217 85.3281 72.0019C85.3374 72.8809 84.6267 73.6052 83.7399 73.6144C83.6275 73.6144 83.5185 73.6052 83.4118 73.5856L81.4631 78.2256L87.9781 80.8928L90.1772 75.5781L86.6114 74.1539L87.7173 71.3562C87.2803 71.0755 86.9904 70.5915 86.9846 70.0371C86.9754 69.158 87.686 68.4338 88.5728 68.4245C89.4608 68.4153 90.19 69.1187 90.2004 69.9989C90.2097 70.878 89.4991 71.6022 88.6122 71.6115C88.5125 71.6115 88.4128 71.6045 88.3201 71.5895L87.4449 73.8004L91.0177 75.2281L90.256 77.0671L93.2817 78.2845L95.7706 72.1567C95.2791 71.8887 94.9406 71.3724 94.9348 70.7775C94.9255 69.8984 95.6361 69.1742 96.5229 69.165C97.4109 69.1557 98.1401 69.8592 98.1505 70.7394C98.1598 71.6184 97.4492 72.3427 96.5624 72.3519C96.5044 72.3519 96.4464 72.3484 96.3885 72.345L93.6387 79.1162L90.0149 77.6573L87.3881 84.0047L93.8972 86.6718L94.5406 85.1136C94.1163 84.8294 93.8335 84.3523 93.8265 83.8071C93.8173 82.9281 94.5279 82.2038 95.4147 82.1946C96.3027 82.1854 97.0319 82.8888 97.0423 83.769C97.0516 84.648 96.3409 85.3723 95.4541 85.3815C95.3451 85.3815 95.2385 85.3723 95.1353 85.3527L94.2473 87.5035L87.1435 84.5914L84.2106 91.678L86.7227 85.6137C89.9674 87.2771 93.6724 88.3028 98.4287 88.9601L95.075 97.1879L105.873 70.7948Z" fill="#C0E190"></path> <path d="M58.1976 111.061C58.1562 110.953 58.1183 110.858 58.0861 110.777C58.0539 110.694 58.0286 110.631 58.0067 110.584C57.9906 110.631 57.9653 110.698 57.9331 110.78C57.9009 110.863 57.8664 110.957 57.825 111.064C57.7836 111.172 57.7387 111.293 57.6881 111.419C57.6375 111.548 57.5858 111.684 57.5352 111.827H58.4829C58.4323 111.684 58.384 111.548 58.3357 111.419C58.2874 111.289 58.2402 111.169 58.1976 111.061Z" fill="#009745"></path> <path d="M63.6118 105.916V105.03C63.5738 105.027 63.5323 105.023 63.4874 105.023C63.4425 105.023 63.3883 105.023 63.3215 105.023C63.2259 105.023 63.1326 105.03 63.0462 105.045C62.9563 105.058 62.8803 105.083 62.8123 105.115C62.7455 105.147 62.6914 105.194 62.6499 105.252C62.6085 105.311 62.5889 105.385 62.5889 105.473C62.5889 105.641 62.6499 105.758 62.7674 105.821C62.8884 105.884 63.0646 105.916 63.3008 105.916H63.6118Z" fill="#009745"></path> <path d="M49.6938 106.382C49.5786 106.319 49.4128 106.283 49.1985 106.283H48.7285V107.131C48.7827 107.138 48.8403 107.144 48.9071 107.147C48.9704 107.151 49.0418 107.154 49.1179 107.154C49.3413 107.154 49.521 107.122 49.6581 107.059C49.7952 106.996 49.8655 106.879 49.8655 106.708C49.8666 106.553 49.809 106.446 49.6938 106.382Z" fill="#009745"></path> <path d="M39.8516 105.113C39.7882 105.079 39.7145 105.05 39.6247 105.038C39.5348 105.025 39.4358 105.016 39.3275 105.016C39.2733 105.016 39.2192 105.019 39.1674 105.023C39.1167 105.026 39.0683 105.03 39.0303 105.032V105.982H39.2664C39.5256 105.982 39.7203 105.948 39.8516 105.878C39.9829 105.808 40.0497 105.678 40.0497 105.489C40.0497 105.397 40.0336 105.321 39.999 105.26C39.9633 105.196 39.915 105.148 39.8516 105.113Z" fill="#009745"></path> <path d="M79.5265 93.0509C67.104 98.3886 56.3021 97.6367 47.6993 93.9715V95.9283H41.7176V90.7603C38.7696 88.8232 36.1845 86.5545 34.0005 84.1484V116.001H89.9551V97.2381L79.5265 93.0509ZM63.1486 98.9974H63.901V101.681H65.146V98.9974H65.8984V101.681H66.4769V103.194H65.7535V102.308H63.1486V98.9974ZM59.5631 101.32C59.6755 101.018 59.7845 100.731 59.8946 100.463C60.0036 100.195 60.1103 99.9411 60.2134 99.702C60.3201 99.4629 60.4256 99.2272 60.5415 98.9974H61.2556C61.3646 99.2272 61.4747 99.4629 61.5802 99.702C61.6868 99.9446 61.7958 100.196 61.9013 100.463C62.0103 100.731 62.1204 101.018 62.2328 101.32C62.3453 101.623 62.4647 101.954 62.5934 102.308H61.7865C61.7483 102.194 61.7089 102.076 61.6671 101.954C61.6254 101.833 61.5802 101.712 61.5385 101.592H60.2331C60.1914 101.713 60.1497 101.834 60.1079 101.954C60.0662 102.075 60.0279 102.194 59.9885 102.308H59.2072C59.3312 101.954 59.4506 101.623 59.5631 101.32ZM59.2443 105.832C59.3764 105.644 59.5074 105.466 59.6431 105.29C59.7752 105.118 59.9062 104.953 60.0349 104.799C60.1636 104.647 60.2795 104.515 60.3885 104.41H60.9994V107.724H60.2563V105.554C59.9735 105.882 59.7068 106.23 59.4553 106.599C59.2049 106.969 58.9696 107.345 58.7539 107.721H58.1233V104.407H58.8699V106.364C58.9904 106.198 59.1133 106.02 59.2443 105.832ZM55.7689 98.9974H56.5154V100.954C56.6313 100.782 56.7531 100.604 56.8852 100.416C57.0174 100.228 57.1484 100.05 57.284 99.8741C57.4162 99.702 57.5472 99.5368 57.6758 99.3832C57.8045 99.2296 57.9204 99.099 58.0294 98.9939H58.6403V102.308H57.8972V100.137C57.6144 100.466 57.3478 100.813 57.0962 101.183C56.8458 101.552 56.6105 101.929 56.3949 102.304H55.7642V98.9974H55.7689ZM54.7742 105.051V104.414H57.5425V105.051H56.5328V107.728H55.7805V105.051H54.7742ZM51.8576 98.9974H52.6099V101.681H53.8549V98.9974H54.6073V101.681H55.1858V103.194H54.4624V102.308H51.8576V98.9974ZM47.9764 99.9053C48.0668 99.6881 48.1885 99.5102 48.3392 99.3635C48.4899 99.2168 48.6673 99.1083 48.8702 99.032C49.0696 98.9593 49.2817 98.9235 49.5031 98.9235C49.7315 98.9235 49.9471 98.9616 50.15 99.032C50.3529 99.1048 50.5291 99.2168 50.6809 99.3635C50.8316 99.5102 50.951 99.6916 51.038 99.9053C51.1249 100.122 51.1666 100.371 51.1666 100.654C51.1666 100.937 51.1249 101.186 51.038 101.402C50.951 101.619 50.8351 101.797 50.6879 101.944C50.5395 102.091 50.3633 102.199 50.1604 102.272C49.9541 102.345 49.7361 102.381 49.5008 102.381C49.2724 102.381 49.0568 102.343 48.8539 102.272C48.6511 102.199 48.4749 102.091 48.323 101.944C48.1723 101.801 48.0529 101.619 47.966 101.402C47.879 101.185 47.8373 100.937 47.8373 100.654C47.8419 100.367 47.886 100.119 47.9764 99.9053ZM44.8534 99.918C44.9403 99.7008 45.0597 99.5195 45.2104 99.3728C45.3611 99.2226 45.542 99.1117 45.7506 99.0355C45.9593 98.9593 46.1842 98.9211 46.4288 98.9211C46.5702 98.9211 46.6989 98.9304 46.8148 98.9535C46.9308 98.9766 47.0339 98.9985 47.1174 99.0239C47.2043 99.0528 47.2785 99.0782 47.3365 99.1071C47.3945 99.136 47.4362 99.1579 47.4617 99.1741L47.2426 99.7759C47.1394 99.7216 47.0212 99.6743 46.8821 99.6385C46.7441 99.6003 46.5899 99.5807 46.416 99.5807C46.3001 99.5807 46.1877 99.6003 46.0752 99.6385C45.9628 99.6766 45.8666 99.7378 45.7831 99.8233C45.6962 99.9088 45.6289 100.017 45.5767 100.151C45.5257 100.285 45.4991 100.448 45.4991 100.639C45.4991 100.791 45.5153 100.936 45.5501 101.066C45.5825 101.2 45.637 101.311 45.7135 101.407C45.7877 101.503 45.8874 101.579 46.0091 101.633C46.1309 101.691 46.2793 101.717 46.4531 101.717C46.5621 101.717 46.6618 101.71 46.7453 101.697C46.8322 101.684 46.9087 101.668 46.9771 101.652C47.0444 101.636 47.1023 101.614 47.1545 101.592C47.2055 101.57 47.2507 101.55 47.2959 101.528L47.5046 102.128C47.3979 102.191 47.2472 102.249 47.0548 102.3C46.8624 102.351 46.6363 102.376 46.3824 102.376C45.8387 102.376 45.4237 102.226 45.1409 101.927C44.8545 101.628 44.7131 101.204 44.7131 100.653C44.7224 100.377 44.7676 100.135 44.8534 99.918ZM44.9241 106.945C44.9693 106.964 45.0238 106.986 45.091 107.008C45.1548 107.033 45.229 107.055 45.3101 107.079C45.3901 107.1 45.4736 107.12 45.5605 107.136C45.6475 107.152 45.7344 107.162 45.8214 107.162C46.0335 107.162 46.2039 107.133 46.3361 107.069C46.4682 107.009 46.532 106.904 46.532 106.754C46.532 106.662 46.5099 106.589 46.4682 106.528C46.4265 106.47 46.3685 106.426 46.2978 106.397C46.2271 106.368 46.1401 106.346 46.0404 106.337C45.9408 106.328 45.8341 106.321 45.7193 106.321H45.2661V105.709H45.7738C45.8608 105.709 45.9408 105.702 46.0184 105.689C46.0926 105.676 46.1599 105.654 46.2143 105.622C46.2688 105.59 46.314 105.549 46.3465 105.497C46.379 105.446 46.3952 105.383 46.3952 105.305C46.3952 105.197 46.35 105.117 46.2665 105.061C46.1796 105.006 46.0578 104.981 45.9002 104.981C45.7228 104.981 45.5686 105 45.4376 105.041C45.3055 105.082 45.1803 105.133 45.0609 105.2L44.8198 104.611C44.9484 104.532 45.1026 104.468 45.2858 104.417C45.4655 104.37 45.6753 104.344 45.906 104.344C46.0857 104.344 46.2538 104.364 46.4079 104.404C46.5621 104.446 46.6943 104.504 46.8067 104.58C46.9192 104.66 47.0061 104.758 47.0699 104.877C47.1313 104.998 47.1626 105.134 47.1626 105.294C47.1626 105.415 47.1301 105.536 47.0629 105.654C46.9957 105.776 46.896 105.874 46.7603 105.957C46.8345 105.995 46.9052 106.04 46.969 106.091C47.0328 106.142 47.0907 106.203 47.1429 106.266C47.1916 106.333 47.2333 106.41 47.2623 106.493C47.2913 106.578 47.3075 106.671 47.3075 106.777C47.3075 107.131 47.1823 107.389 46.9284 107.549C46.6746 107.712 46.3233 107.791 45.8735 107.791C45.7611 107.791 45.6486 107.784 45.5385 107.766C45.4295 107.75 45.3194 107.731 45.2197 107.706C45.12 107.68 45.0238 107.655 44.9334 107.623C44.8429 107.59 44.7664 107.559 44.698 107.523L44.9241 106.945ZM41.728 99.918C41.815 99.7008 41.9344 99.5195 42.0851 99.3728C42.2358 99.2226 42.4166 99.1117 42.6253 99.0355C42.834 98.9593 43.0589 98.9211 43.3035 98.9211C43.4449 98.9211 43.5736 98.9304 43.6895 98.9535C43.8054 98.9766 43.9086 98.9985 43.9921 99.0239C44.079 99.0528 44.1532 99.0782 44.2112 99.1071C44.2691 99.136 44.3109 99.1579 44.3364 99.1741L44.1173 99.7759C44.0141 99.7216 43.8958 99.6743 43.7567 99.6385C43.6188 99.6003 43.4646 99.5807 43.2907 99.5807C43.1748 99.5807 43.0623 99.6003 42.9499 99.6385C42.8374 99.6766 42.7412 99.7378 42.6578 99.8233C42.5708 99.9088 42.5036 100.017 42.4514 100.151C42.4004 100.285 42.3737 100.448 42.3737 100.639C42.3737 100.791 42.39 100.936 42.4248 101.066C42.4572 101.2 42.5117 101.311 42.5882 101.407C42.6624 101.503 42.7621 101.579 42.8838 101.633C43.0055 101.691 43.1539 101.717 43.3278 101.717C43.4368 101.717 43.5365 101.71 43.6199 101.697C43.7069 101.684 43.7834 101.668 43.8518 101.652C43.919 101.636 43.977 101.614 44.0292 101.592C44.0802 101.57 44.1254 101.55 44.1706 101.528L44.3792 102.128C44.2726 102.191 44.1219 102.249 43.9295 102.3C43.737 102.351 43.511 102.376 43.2571 102.376C42.7134 102.376 42.2984 102.226 42.0155 101.927C41.7292 101.628 41.5878 101.204 41.5878 100.653C41.5959 100.377 41.6411 100.135 41.728 99.918ZM38.2967 101.32C38.4091 101.018 38.5181 100.731 38.6282 100.463C38.7372 100.195 38.8438 99.9411 38.947 99.702C39.0537 99.4629 39.1591 99.2272 39.2751 98.9974H39.9892C40.0981 99.2272 40.2083 99.4629 40.3138 99.702C40.4204 99.9446 40.5294 100.196 40.6349 100.463C40.7438 100.731 40.854 101.018 40.9664 101.32C41.0789 101.623 41.1983 101.954 41.3269 102.308H40.5201C40.4819 102.194 40.4424 102.076 40.4007 101.954C40.359 101.833 40.3138 101.712 40.272 101.592H38.9656C38.9238 101.713 38.8821 101.834 38.8404 101.954C38.7986 102.076 38.7604 102.194 38.721 102.308H37.9396C38.0648 101.954 38.1842 101.623 38.2967 101.32ZM40.8308 105.491C40.8308 105.89 40.6952 106.176 40.425 106.355C40.1549 106.533 39.7689 106.62 39.267 106.62H39.0293V107.729H38.277V104.462C38.4404 104.43 38.6143 104.408 38.7975 104.395C38.9806 104.382 39.1418 104.376 39.2797 104.376C39.7782 104.376 40.1607 104.461 40.4274 104.637C40.6963 104.812 40.8308 105.096 40.8308 105.491ZM41.1519 113.145H40.4088V110.976C40.126 111.304 39.8593 111.652 39.6078 112.021C39.3574 112.391 39.1221 112.767 38.9064 113.143H38.2758V109.829H39.0224V111.786C39.1383 111.613 39.26 111.436 39.3922 111.247C39.5243 111.059 39.6553 110.881 39.7909 110.706C39.9231 110.533 40.0541 110.368 40.1828 110.215C40.3114 110.062 40.4274 109.93 40.5363 109.825H41.1473V113.145H41.1519ZM40.9085 107.729C41.0337 107.372 41.1531 107.044 41.2655 106.741C41.3779 106.439 41.4869 106.152 41.597 105.884C41.706 105.616 41.8127 105.362 41.9158 105.123C42.0225 104.884 42.128 104.648 42.2439 104.418H42.958C43.067 104.648 43.1771 104.884 43.2826 105.123C43.3892 105.365 43.4982 105.617 43.6037 105.884C43.7127 106.152 43.8228 106.439 43.9353 106.741C44.0477 107.044 44.1671 107.375 44.2958 107.729H43.4889C43.4507 107.615 43.4113 107.497 43.3695 107.375C43.3278 107.254 43.2826 107.133 43.2409 107.013H41.9344C41.8927 107.134 41.8509 107.255 41.8092 107.375C41.7675 107.497 41.7292 107.615 41.6898 107.729H40.9085ZM44.5033 110.469H43.4936V113.145H42.7412V110.469H41.7315V109.831H44.4998V110.469H44.5033ZM45.9663 112.04H44.5682V111.396H45.9674V112.04H45.9663ZM49.8219 112.234C49.735 112.451 49.6191 112.629 49.4718 112.776C49.3234 112.922 49.1472 113.031 48.9444 113.104C48.738 113.176 48.5201 113.212 48.2848 113.212C48.0564 113.212 47.8408 113.174 47.6379 113.104C47.435 113.031 47.2588 112.922 47.107 112.776C46.9563 112.632 46.8369 112.451 46.7499 112.234C46.663 112.017 46.6212 111.768 46.6212 111.485C46.6212 111.201 46.6664 110.953 46.7569 110.737C46.8473 110.52 46.969 110.342 47.1197 110.195C47.2704 110.048 47.4478 109.94 47.6506 109.863C47.85 109.791 48.0622 109.755 48.2836 109.755C48.512 109.755 48.7276 109.793 48.9305 109.863C49.1333 109.936 49.3095 110.048 49.4614 110.195C49.6121 110.342 49.7315 110.523 49.8184 110.737C49.9054 110.954 49.9471 111.202 49.9471 111.485C49.9506 111.769 49.9089 112.02 49.8219 112.234ZM49.1113 107.769C48.9281 107.769 48.745 107.762 48.5641 107.753C48.381 107.74 48.1943 107.715 47.9984 107.673V104.461C48.1526 104.432 48.3195 104.41 48.5062 104.398C48.6893 104.381 48.8597 104.376 49.0174 104.376C49.2295 104.376 49.4255 104.392 49.6028 104.421C49.7802 104.453 49.9344 104.504 50.063 104.577C50.1917 104.649 50.2914 104.745 50.3656 104.866C50.4398 104.988 50.4746 105.134 50.4746 105.309C50.4746 105.573 50.3459 105.784 50.0885 105.936C50.3007 106.016 50.4456 106.124 50.5221 106.261C50.5998 106.398 50.638 106.551 50.638 106.723C50.638 107.07 50.5094 107.331 50.2555 107.507C49.9958 107.684 49.6167 107.769 49.1113 107.769ZM53.1211 110.469H52.1114V113.145H51.3591V110.469H50.3494V109.831H53.1177V110.469H53.1211ZM52.6493 106.604C52.3989 106.973 52.1636 107.35 51.948 107.725H51.3174V104.411H52.0639V106.368C52.1798 106.196 52.3016 106.018 52.4337 105.83C52.5659 105.642 52.6969 105.464 52.8325 105.288C52.9646 105.116 53.0956 104.951 53.2243 104.797C53.353 104.645 53.4689 104.513 53.5779 104.408H54.1888V107.722H53.4457V105.551C53.1664 105.886 52.8997 106.234 52.6493 106.604ZM55.8489 111.772C55.5788 111.947 55.1927 112.036 54.6908 112.036H54.4531V113.145H53.7008V109.879C53.8642 109.846 54.0381 109.824 54.2213 109.812C54.4044 109.799 54.5656 109.792 54.7035 109.792C55.202 109.792 55.5845 109.877 55.8512 110.053C56.1178 110.229 56.2534 110.512 56.2534 110.907C56.2534 111.307 56.119 111.594 55.8489 111.772ZM58.9139 113.145C58.8757 113.031 58.8362 112.913 58.7945 112.792C58.7528 112.67 58.7076 112.549 58.6658 112.429H57.3605C57.3188 112.55 57.2771 112.672 57.2353 112.792C57.1936 112.913 57.1553 113.031 57.1159 113.145H56.3346C56.4598 112.788 56.5792 112.46 56.6916 112.158C56.8041 111.855 56.913 111.568 57.0232 111.3C57.1321 111.032 57.2388 110.778 57.342 110.539C57.4486 110.3 57.5541 110.064 57.67 109.835H58.3841C58.4931 110.064 58.6032 110.3 58.7087 110.539C58.8154 110.782 58.9243 111.034 59.0298 111.3C59.1388 111.568 59.2489 111.855 59.3614 112.158C59.4738 112.46 59.5932 112.792 59.7219 113.145H58.9139ZM62.3314 113.136C62.1389 113.187 61.9129 113.212 61.659 113.212C61.1153 113.212 60.7003 113.062 60.4175 112.763C60.1311 112.464 59.9897 112.04 59.9897 111.489C59.9897 111.215 60.0349 110.969 60.1184 110.756C60.2053 110.539 60.3247 110.358 60.4754 110.211C60.6261 110.061 60.807 109.95 61.0156 109.874C61.2243 109.798 61.4492 109.76 61.6938 109.76C61.8352 109.76 61.9639 109.769 62.0798 109.792C62.1957 109.815 62.2989 109.837 62.3824 109.862C62.4693 109.891 62.5435 109.917 62.6015 109.946C62.6594 109.974 62.7012 109.996 62.7267 110.013L62.5076 110.614C62.4044 110.56 62.2862 110.513 62.1471 110.477C62.0091 110.439 61.8549 110.419 61.681 110.419C61.5651 110.419 61.4527 110.439 61.3402 110.477C61.2278 110.515 61.1316 110.576 61.0481 110.662C60.9611 110.747 60.8939 110.856 60.8417 110.99C60.7907 111.124 60.7641 111.287 60.7641 111.477C60.7641 111.63 60.7803 111.774 60.8151 111.905C60.8475 112.039 60.902 112.149 60.9785 112.245C61.0527 112.341 61.1524 112.417 61.2741 112.472C61.3959 112.529 61.5442 112.555 61.7181 112.555C61.8271 112.555 61.9268 112.548 62.0103 112.535C62.0972 112.523 62.1737 112.506 62.2421 112.49C62.3094 112.474 62.3673 112.452 62.4195 112.43C62.4705 112.408 62.5157 112.389 62.5609 112.367L62.7696 112.966C62.6722 113.027 62.525 113.085 62.3314 113.136ZM62.7754 107.066C62.6467 107.283 62.5273 107.502 62.4183 107.729H61.6242C61.6822 107.598 61.7436 107.471 61.8109 107.34C61.8746 107.213 61.943 107.091 62.0103 106.977C62.0775 106.863 62.1424 106.757 62.2062 106.658C62.2699 106.562 62.3279 106.477 62.3859 106.403C62.3151 106.37 62.2444 106.33 62.1772 106.276C62.1065 106.225 62.045 106.161 61.9906 106.087C61.9361 106.015 61.8909 105.928 61.8584 105.826C61.8259 105.725 61.8074 105.609 61.8074 105.479C61.8074 105.297 61.8433 105.138 61.9164 105C61.9871 104.863 62.0903 104.749 62.2247 104.656C62.3569 104.564 62.5203 104.493 62.7139 104.449C62.904 104.404 63.1197 104.379 63.3573 104.379C63.4929 104.379 63.6494 104.388 63.8338 104.404C64.0134 104.421 64.1943 104.446 64.3705 104.484V107.725H63.6181V106.537H63.3863C63.3446 106.537 63.3063 106.537 63.2646 106.537C63.2228 106.537 63.1776 106.533 63.1231 106.528C63.02 106.671 62.904 106.852 62.7754 107.066ZM66.5348 113.145H65.7825V110.462H64.9629C64.9536 110.676 64.9408 110.889 64.9269 111.105C64.9107 111.322 64.8852 111.529 64.8493 111.73C64.811 111.931 64.7588 112.119 64.6916 112.294C64.6209 112.469 64.5282 112.625 64.4053 112.756C64.2836 112.89 64.1352 112.998 63.9555 113.078C63.7758 113.158 63.5532 113.203 63.2936 113.212L63.2136 112.562C63.4454 112.536 63.6251 112.479 63.7468 112.386C63.872 112.297 63.9659 112.156 64.0332 111.969C64.1131 111.737 64.1711 111.437 64.2036 111.067C64.236 110.701 64.2546 110.286 64.2546 109.831H66.5383V113.145H66.5348ZM67.0588 98.9974H67.8054V100.954C67.9213 100.782 68.043 100.604 68.1752 100.416C68.3073 100.228 68.4383 100.05 68.5739 99.8741C68.7061 99.702 68.8371 99.5368 68.9658 99.3832C69.0944 99.2296 69.2138 99.099 69.3159 98.9939H69.9303V102.308H69.1872V100.137C68.9043 100.466 68.6377 100.813 68.3861 101.183C68.1357 101.552 67.9004 101.929 67.6848 102.304H67.0576V98.9974H67.0588ZM70.2618 113.145H69.5187V110.976C69.2359 111.304 68.9692 111.652 68.7177 112.021C68.4673 112.391 68.232 112.767 68.0163 113.143H67.3869V109.829H68.1334V111.786C68.2493 111.613 68.3711 111.436 68.5032 111.247C68.6354 111.059 68.7664 110.881 68.902 110.706C69.0342 110.533 69.1652 110.368 69.2938 110.215C69.4225 110.062 69.5384 109.93 69.6439 109.825H70.2583V113.145H70.2618ZM72.3206 101.119C72.2789 101.119 72.2406 101.119 72.1989 101.119C72.1572 101.119 72.112 101.116 72.061 101.11C71.9543 101.253 71.8361 101.432 71.7109 101.648C71.5822 101.866 71.4628 102.085 71.3538 102.311H70.5597C70.6177 102.181 70.6791 102.054 70.7464 101.922C70.8101 101.795 70.8785 101.674 70.9458 101.559C71.013 101.445 71.0779 101.34 71.1451 101.241C71.2089 101.145 71.2669 101.059 71.3225 100.985C71.2518 100.953 71.1811 100.913 71.1138 100.858C71.0431 100.807 70.9817 100.744 70.9272 100.67C70.8727 100.597 70.8275 100.511 70.7951 100.409C70.7591 100.307 70.744 100.192 70.744 100.061C70.744 99.8799 70.78 99.7205 70.853 99.583C70.9237 99.4456 71.0269 99.3312 71.1614 99.2388C71.2935 99.1464 71.457 99.0759 71.6506 99.032C71.8407 98.987 72.0563 98.9616 72.294 98.9616C72.4296 98.9616 72.5861 98.9708 72.7704 98.987C72.9501 99.0032 73.1309 99.0286 73.3071 99.0667V102.308H72.5548V101.119H72.3206ZM74.7261 111.772C74.456 111.947 74.0699 112.036 73.568 112.036H73.3327V113.145H72.5803V109.879C72.7438 109.846 72.9176 109.824 73.1008 109.812C73.284 109.799 73.4451 109.792 73.583 109.792C74.0815 109.792 74.4641 109.877 74.7307 110.053C74.9973 110.229 75.1295 110.512 75.1295 110.907C75.1306 111.307 74.9962 111.594 74.7261 111.772ZM78.0021 113.136C77.8097 113.187 77.5836 113.212 77.3332 113.212C76.7895 113.212 76.3745 113.062 76.0917 112.763C75.8053 112.464 75.6639 112.04 75.6639 111.489C75.6639 111.215 75.7056 110.969 75.7926 110.756C75.8795 110.543 75.9989 110.358 76.1496 110.211C76.3003 110.061 76.4812 109.95 76.6898 109.874C76.8985 109.798 77.1234 109.76 77.368 109.76C77.5094 109.76 77.6381 109.769 77.754 109.792C77.8699 109.815 77.9731 109.837 78.0601 109.862C78.147 109.891 78.2212 109.917 78.2792 109.946C78.3371 109.974 78.3789 109.996 78.4044 110.013L78.1853 110.614C78.0821 110.56 77.9639 110.513 77.8247 110.477C77.6868 110.439 77.5326 110.419 77.3587 110.419C77.2428 110.419 77.1303 110.439 77.0179 110.477C76.9089 110.515 76.8092 110.576 76.7258 110.662C76.6388 110.747 76.5716 110.856 76.5194 110.99C76.4684 111.124 76.4418 111.287 76.4418 111.477C76.4418 111.63 76.458 111.774 76.4928 111.905C76.5252 112.039 76.5797 112.149 76.6562 112.245C76.7304 112.341 76.8301 112.417 76.9518 112.472C77.0735 112.529 77.2219 112.555 77.3958 112.555C77.5048 112.555 77.6045 112.548 77.6914 112.535C77.7784 112.523 77.8549 112.506 77.9233 112.49C77.9917 112.474 78.0485 112.452 78.103 112.43C78.154 112.408 78.1992 112.389 78.2409 112.367L78.4496 112.966C78.3464 113.027 78.1957 113.085 78.0021 113.136ZM79.8001 112.792C79.9195 113.132 80.0772 113.439 80.2696 113.709L79.7676 114.028C79.4941 113.712 79.2819 113.359 79.137 112.966C78.9886 112.575 78.9156 112.156 78.9156 111.714C78.9156 111.272 78.9898 110.853 79.137 110.462C79.2854 110.07 79.4941 109.716 79.7676 109.4L80.2696 109.719C80.0772 109.989 79.9195 110.296 79.8001 110.636C79.6807 110.977 79.6227 111.337 79.6227 111.713C79.6204 112.091 79.6807 112.451 79.8001 112.792ZM83.3219 113.145H82.5695V111.953H82.3377C82.296 111.953 82.2577 111.953 82.216 111.953C82.1742 111.953 82.129 111.95 82.078 111.944C81.9714 112.087 81.8531 112.266 81.7279 112.482C81.5993 112.699 81.4799 112.919 81.3709 113.145H80.5768C80.6348 113.015 80.6962 112.888 80.7634 112.756C80.8272 112.629 80.8956 112.508 80.9628 112.393C81.0301 112.279 81.095 112.174 81.1622 112.074C81.226 111.979 81.2839 111.893 81.3396 111.819C81.2689 111.787 81.1982 111.746 81.1309 111.692C81.0602 111.641 80.9988 111.578 80.9443 111.504C80.8898 111.431 80.8446 111.344 80.8121 111.243C80.7762 111.141 80.7611 111.026 80.7611 110.895C80.7611 110.714 80.7971 110.554 80.8701 110.417C80.9408 110.279 81.044 110.165 81.1784 110.073C81.3106 109.98 81.4741 109.91 81.6677 109.866C81.8578 109.821 82.0734 109.795 82.311 109.795C82.4467 109.795 82.6032 109.805 82.7875 109.821C82.9672 109.837 83.148 109.862 83.3242 109.9L83.3219 113.145ZM84.9588 112.967C84.8104 113.359 84.5982 113.713 84.3258 114.029L83.8239 113.71C84.0163 113.44 84.1716 113.134 84.2899 112.793C84.4093 112.452 84.4672 112.095 84.4672 111.716C84.4672 111.34 84.4058 110.984 84.2899 110.64C84.1705 110.299 84.0163 109.993 83.8239 109.723L84.3258 109.404C84.5994 109.719 84.8081 110.073 84.9588 110.465C85.1071 110.857 85.1802 111.275 85.1802 111.717C85.1802 112.158 85.106 112.575 84.9588 112.967Z" fill="#009745"></path> <path d="M42.9084 106.002C42.8601 105.873 42.8164 105.752 42.7738 105.644C42.7324 105.537 42.6945 105.442 42.6623 105.36C42.6301 105.278 42.6048 105.215 42.5829 105.168C42.5668 105.215 42.5415 105.281 42.5093 105.364C42.4771 105.446 42.4426 105.54 42.4012 105.648C42.3598 105.756 42.3149 105.876 42.2643 106.002C42.2137 106.132 42.1619 106.268 42.1113 106.41H43.0591C43.0039 106.268 42.9533 106.132 42.9084 106.002Z" fill="#009745"></path> <path d="M61.2028 100.584C61.1545 100.455 61.1108 100.334 61.0683 100.227C61.0269 100.119 60.9889 100.024 60.9567 99.9425C60.9245 99.86 60.8992 99.797 60.8773 99.75C60.8612 99.797 60.8359 99.8635 60.8037 99.946C60.7715 100.028 60.737 100.122 60.6956 100.23C60.6542 100.338 60.6093 100.458 60.5587 100.584C60.5081 100.714 60.4564 100.85 60.4058 100.992H61.3535C61.3017 100.85 61.2511 100.714 61.2028 100.584Z" fill="#009745"></path> <path d="M82.2711 110.44C82.1754 110.44 82.0821 110.447 81.9957 110.462C81.9059 110.474 81.8299 110.499 81.7619 110.532C81.6951 110.564 81.641 110.611 81.5995 110.668C81.558 110.728 81.5361 110.801 81.5361 110.89C81.5361 111.057 81.5972 111.174 81.7147 111.237C81.8356 111.301 82.0119 111.333 82.248 111.333H82.5613V110.447C82.5233 110.443 82.4819 110.44 82.4369 110.44C82.392 110.44 82.3379 110.44 82.2711 110.44Z" fill="#009745"></path> <path d="M39.9392 100.584C39.8909 100.455 39.8471 100.334 39.8046 100.227C39.7632 100.119 39.7252 100.024 39.693 99.9425C39.6608 99.86 39.6355 99.797 39.6137 99.75C39.5976 99.797 39.5723 99.8635 39.54 99.946C39.5078 100.028 39.4733 100.122 39.4319 100.23C39.3905 100.338 39.3457 100.458 39.2951 100.584C39.2445 100.714 39.1927 100.85 39.1421 100.992H40.0898C40.0346 100.85 39.984 100.714 39.9392 100.584Z" fill="#009745"></path> <path d="M72.5447 99.6099C72.5067 99.6065 72.4653 99.603 72.4203 99.603C72.3754 99.603 72.3213 99.603 72.2545 99.603C72.1588 99.603 72.0655 99.6099 71.9792 99.6248C71.8893 99.6375 71.8133 99.6627 71.7453 99.6949C71.6785 99.727 71.6244 99.7741 71.5829 99.8314C71.5414 99.8911 71.5195 99.9646 71.5195 100.053C71.5195 100.221 71.5806 100.338 71.6981 100.401C71.819 100.464 71.9953 100.496 72.2314 100.496H72.5447V99.6099Z" fill="#009745"></path> <path d="M48.9412 110.705C48.8635 110.612 48.7743 110.54 48.6618 110.488C48.5494 110.436 48.4265 110.411 48.2886 110.411C48.1471 110.411 48.0219 110.437 47.9118 110.491C47.8028 110.545 47.7089 110.618 47.6347 110.711C47.5571 110.806 47.4991 110.917 47.4609 111.048C47.4191 111.182 47.3994 111.325 47.3994 111.484C47.3994 111.647 47.4191 111.794 47.4609 111.925C47.4991 112.055 47.5571 112.167 47.6347 112.262C47.7089 112.358 47.8017 112.427 47.9118 112.479C48.0208 112.53 48.1471 112.555 48.2886 112.555C48.4265 112.555 48.5517 112.53 48.6618 112.479C48.7743 112.428 48.8647 112.354 48.9412 112.262C49.0154 112.169 49.0734 112.055 49.1151 111.925C49.1534 111.794 49.1765 111.647 49.1765 111.484C49.1765 111.322 49.1568 111.175 49.1151 111.042C49.0734 110.912 49.0154 110.801 48.9412 110.705Z" fill="#009745"></path> <path d="M48.852 101.428C48.9262 101.524 49.019 101.594 49.1291 101.646C49.2381 101.696 49.3644 101.722 49.5058 101.722C49.6438 101.722 49.769 101.696 49.8791 101.646C49.9916 101.595 50.082 101.521 50.1585 101.428C50.2327 101.336 50.2907 101.222 50.3324 101.091C50.3706 100.961 50.3938 100.814 50.3938 100.651C50.3938 100.488 50.3741 100.341 50.3324 100.209C50.2907 100.078 50.2327 99.9637 50.1585 99.8679C50.0808 99.7755 49.9916 99.7027 49.8791 99.6507C49.7667 99.5999 49.6438 99.5745 49.5058 99.5745C49.3644 99.5745 49.2392 99.5999 49.1291 99.6542C49.0201 99.7085 48.9262 99.7812 48.852 99.8736C48.7744 99.9695 48.7164 100.08 48.6781 100.211C48.6364 100.345 48.6167 100.488 48.6167 100.648C48.6167 100.81 48.6364 100.957 48.6781 101.088C48.7164 101.222 48.7744 101.336 48.852 101.428Z" fill="#009745"></path> <path d="M49.5879 105.625C49.6869 105.568 49.7353 105.474 49.7353 105.343C49.7353 105.21 49.6846 105.118 49.5821 105.06C49.4796 105.006 49.3298 104.981 49.1317 104.981C49.0683 104.981 48.9969 104.981 48.9266 104.985C48.8529 104.988 48.7861 104.992 48.7285 104.997V105.712H49.0925C49.3264 105.71 49.4888 105.681 49.5879 105.625Z" fill="#009745"></path> <path d="M55.2779 110.527C55.2145 110.493 55.1408 110.464 55.0509 110.452C54.9611 110.439 54.862 110.43 54.7537 110.43C54.6996 110.43 54.6455 110.433 54.5936 110.437C54.5429 110.44 54.4946 110.444 54.4565 110.446V111.396H54.6927C54.9519 111.396 55.1465 111.362 55.2779 111.292C55.4092 111.222 55.476 111.092 55.476 110.903C55.476 110.811 55.4599 110.735 55.4253 110.674C55.3896 110.61 55.3412 110.563 55.2779 110.527Z" fill="#009745"></path> <path d="M74.1514 110.527C74.088 110.493 74.0143 110.464 73.9245 110.452C73.8346 110.439 73.7356 110.43 73.6273 110.43C73.5731 110.43 73.519 110.433 73.4672 110.437C73.4165 110.44 73.3681 110.444 73.3301 110.446V111.396H73.5639C73.8231 111.396 74.0178 111.362 74.1491 111.292C74.2804 111.222 74.3472 111.092 74.3472 110.903C74.3472 110.811 74.3311 110.735 74.2965 110.674C74.2631 110.61 74.2148 110.563 74.1514 110.527Z" fill="#009745"></path> <path d="M81.6271 60.5579H34.0005V69.5631C35.8112 73.6799 38.3581 77.6731 41.7188 81.1177V73.6222H47.7005V86.0338C51.1226 88.2586 55.0965 89.975 59.6628 90.9661V71.2646H50.594V65.3377H59.6628H65.6445H74.7133V71.2646H65.6445V91.8047C68.7316 92.015 72.0436 91.9226 75.5909 91.4698L69.9187 89.1919L81.6271 60.5579ZM47.6993 71.2646H41.7176V65.3377H47.6993V71.2646Z" fill="#C0E190"></path> <path d="M41.7188 81.1144C38.3581 77.6698 35.8112 73.6766 34.0005 69.5598V84.1408C36.1845 86.5469 38.7696 88.8155 41.7188 90.7526V81.1144Z" fill="#81C322"></path> <path d="M75.5906 91.4682C72.0433 91.921 68.7313 92.0135 65.6442 91.8032V95.927H59.6625V90.9658C55.0962 89.9747 51.1211 88.257 47.7002 86.0334V93.9714C56.3053 97.6388 67.1072 98.3873 79.5274 93.0507L75.5906 91.4682Z" fill="#81C322"></path> <path d="M47.6985 65.335V71.2618H41.7168V65.335H47.6985ZM41.718 73.6194V95.9246H47.6997V73.6194H41.718ZM74.7113 65.335H65.6425H59.6608H50.592V71.2618H59.6608V95.9257H65.6425V71.2618H74.7113V65.335Z" fill="#1B3858"></path> </g> <path d="M117.79 86.4373L121.933 76.3962H123.227L127.383 86.4373H126.01L122.312 77.1995H122.834L119.136 86.4373H117.79ZM119.554 83.927L119.907 82.7795H125.056L125.435 83.927H119.554Z" fill="black"></path> <path d="M131.708 86.5234C131.002 86.5234 130.37 86.356 129.813 86.0213C129.264 85.6866 128.833 85.2276 128.519 84.6443C128.205 84.0609 128.048 83.3915 128.048 82.636C128.048 81.8806 128.205 81.2112 128.519 80.6278C128.833 80.0445 129.264 79.5903 129.813 79.2651C130.37 78.9304 131.002 78.7631 131.708 78.7631C132.335 78.7631 132.893 78.9017 133.381 79.179C133.877 79.4468 134.261 79.8485 134.531 80.384L133.577 81.0582C133.35 80.6852 133.072 80.4127 132.74 80.2405C132.418 80.0588 132.07 79.968 131.695 79.968C131.242 79.968 130.837 80.078 130.479 80.2979C130.122 80.5179 129.839 80.8286 129.63 81.2303C129.421 81.6224 129.316 82.091 129.316 82.636C129.316 83.1811 129.421 83.6545 129.63 84.0561C129.839 84.4578 130.122 84.7686 130.479 84.9885C130.837 85.2085 131.242 85.3184 131.695 85.3184C132.07 85.3184 132.418 85.2324 132.74 85.0602C133.072 84.8785 133.35 84.6012 133.577 84.2283L134.531 84.8881C134.261 85.4141 133.877 85.8205 133.381 86.1074C132.893 86.3847 132.335 86.5234 131.708 86.5234Z" fill="black"></path> <path d="M139.072 86.5234C138.367 86.5234 137.735 86.356 137.177 86.0213C136.628 85.6866 136.197 85.2276 135.883 84.6443C135.57 84.0609 135.413 83.3915 135.413 82.636C135.413 81.8806 135.57 81.2112 135.883 80.6278C136.197 80.0445 136.628 79.5903 137.177 79.2651C137.735 78.9304 138.367 78.7631 139.072 78.7631C139.7 78.7631 140.257 78.9017 140.745 79.179C141.242 79.4468 141.625 79.8485 141.895 80.384L140.941 81.0582C140.715 80.6852 140.436 80.4127 140.105 80.2405C139.783 80.0588 139.434 79.968 139.059 79.968C138.606 79.968 138.201 80.078 137.844 80.2979C137.487 80.5179 137.203 80.8286 136.994 81.2303C136.785 81.6224 136.681 82.091 136.681 82.636C136.681 83.1811 136.785 83.6545 136.994 84.0561C137.203 84.4578 137.487 84.7686 137.844 84.9885C138.201 85.2085 138.606 85.3184 139.059 85.3184C139.434 85.3184 139.783 85.2324 140.105 85.0602C140.436 84.8785 140.715 84.6012 140.941 84.2283L141.895 84.8881C141.625 85.4141 141.242 85.8205 140.745 86.1074C140.257 86.3847 139.7 86.5234 139.072 86.5234Z" fill="black"></path> <path d="M146.385 86.5234C145.688 86.5234 145.069 86.356 144.529 86.0213C143.988 85.6866 143.562 85.2276 143.248 84.6443C142.934 84.0514 142.777 83.3819 142.777 82.636C142.777 81.8806 142.934 81.2112 143.248 80.6278C143.562 80.0445 143.988 79.5903 144.529 79.2651C145.069 78.9304 145.688 78.7631 146.385 78.7631C147.073 78.7631 147.687 78.9304 148.227 79.2651C148.776 79.5903 149.203 80.0445 149.508 80.6278C149.822 81.2016 149.979 81.871 149.979 82.636C149.979 83.3915 149.822 84.0609 149.508 84.6443C149.203 85.2276 148.776 85.6866 148.227 86.0213C147.687 86.356 147.073 86.5234 146.385 86.5234ZM146.385 85.3184C146.829 85.3184 147.225 85.2085 147.574 84.9885C147.931 84.7686 148.21 84.4578 148.41 84.0561C148.611 83.6449 148.711 83.1716 148.711 82.636C148.711 82.091 148.611 81.6224 148.41 81.2303C148.21 80.8286 147.931 80.5179 147.574 80.2979C147.225 80.078 146.829 79.968 146.385 79.968C145.94 79.968 145.544 80.078 145.195 80.2979C144.847 80.5179 144.568 80.8286 144.359 81.2303C144.15 81.6224 144.045 82.091 144.045 82.636C144.045 83.1716 144.15 83.6449 144.359 84.0561C144.568 84.4578 144.847 84.7686 145.195 84.9885C145.544 85.2085 145.94 85.3184 146.385 85.3184Z" fill="black"></path> <path d="M151.791 86.4373V78.8348H153.045V85.2324H156.836V78.8348H158.09V86.4373H151.791ZM157.999 88.2017V86.3656L158.312 86.4373H156.836V85.2324H159.188V88.2017H157.999Z" fill="black"></path> <path d="M160.814 86.4373V78.8348H162.069V84.3717L166.317 78.8348H167.454V86.4373H166.199V80.9004L161.964 86.4373H160.814Z" fill="black"></path> <path d="M174.137 86.4373V84.8307L174.071 84.5295V81.7897C174.071 81.2064 173.915 80.7569 173.601 80.4414C173.296 80.1162 172.834 79.9536 172.216 79.9536C171.806 79.9536 171.405 80.0301 171.013 80.1832C170.621 80.3266 170.29 80.5226 170.02 80.7713L169.497 79.7385C169.854 79.4229 170.281 79.1838 170.778 79.0213C171.283 78.8491 171.81 78.7631 172.359 78.7631C173.309 78.7631 174.041 79.0165 174.555 79.5233C175.069 80.0301 175.326 80.8047 175.326 81.8471V86.4373H174.137ZM171.863 86.5234C171.349 86.5234 170.895 86.4277 170.503 86.2365C170.12 86.0452 169.824 85.7822 169.615 85.4475C169.406 85.1033 169.301 84.716 169.301 84.2856C169.301 83.8744 169.388 83.5015 169.562 83.1668C169.745 82.8321 170.037 82.5643 170.438 82.3635C170.848 82.1627 171.397 82.0623 172.085 82.0623H174.281V83.052H172.137C171.51 83.052 171.087 83.1668 170.869 83.3963C170.652 83.6258 170.543 83.9031 170.543 84.2283C170.543 84.6012 170.678 84.9024 170.948 85.132C171.218 85.3519 171.593 85.4619 172.072 85.4619C172.542 85.4619 172.952 85.3471 173.3 85.1176C173.658 84.8881 173.915 84.5534 174.071 84.1135L174.32 85.0602C174.154 85.5097 173.862 85.8683 173.444 86.1361C173.026 86.3943 172.499 86.5234 171.863 86.5234Z" fill="black"></path> <path d="M177.585 86.4373V78.8348H178.84V85.2324H182.63V78.8348H183.885V86.4373H177.585ZM183.794 88.2017V86.3656L184.107 86.4373H182.63V85.2324H184.983V88.2017H183.794Z" fill="black"></path> <path d="M186.609 86.4373V78.8348H187.864V84.3717L192.112 78.8348H193.249V86.4373H191.994V80.9004L187.759 86.4373H186.609Z" fill="black"></path> <path d="M200.115 86.4373V83.7692L200.311 84.0274H198.102C197.178 84.0274 196.455 83.8123 195.932 83.3819C195.418 82.9516 195.161 82.3252 195.161 81.5028C195.161 80.623 195.436 79.9584 195.985 79.509C196.542 79.0595 197.283 78.8348 198.206 78.8348H201.239V86.4373H200.115ZM195.096 86.4373L196.978 83.5254H198.272L196.442 86.4373H195.096ZM200.115 83.3389V79.6524L200.311 80.0397H198.246C197.671 80.0397 197.226 80.1592 196.913 80.3983C196.599 80.6278 196.442 81.0103 196.442 81.5459C196.442 82.5404 197.026 83.0377 198.193 83.0377H200.311L200.115 83.3389Z" fill="black"></path> <path d="M210.869 86.5234C210.294 86.5234 209.767 86.3799 209.288 86.093C208.817 85.7966 208.438 85.3615 208.151 84.7877C207.872 84.2139 207.732 83.4967 207.732 82.636C207.732 81.7754 207.868 81.0582 208.138 80.4844C208.416 79.9106 208.791 79.4803 209.262 79.1934C209.741 78.9065 210.277 78.7631 210.869 78.7631C211.549 78.7631 212.15 78.9256 212.673 79.2508C213.196 79.5759 213.609 80.0301 213.914 80.6135C214.219 81.1873 214.372 81.8614 214.372 82.636C214.372 83.4106 214.219 84.0896 213.914 84.6729C213.609 85.2563 213.196 85.7105 212.673 86.0357C212.15 86.3608 211.549 86.5234 210.869 86.5234ZM207.197 89.2201V78.8348H208.399V80.886L208.321 82.6504L208.451 84.4147V89.2201H207.197ZM210.765 85.3184C211.209 85.3184 211.605 85.2085 211.954 84.9885C212.311 84.7686 212.59 84.4578 212.79 84.0561C213 83.6449 213.104 83.1716 213.104 82.636C213.104 82.091 213 81.6224 212.79 81.2303C212.59 80.8286 212.311 80.5179 211.954 80.2979C211.605 80.078 211.209 79.968 210.765 79.968C210.329 79.968 209.933 80.078 209.575 80.2979C209.227 80.5179 208.948 80.8286 208.739 81.2303C208.538 81.6224 208.438 82.091 208.438 82.636C208.438 83.1716 208.538 83.6449 208.739 84.0561C208.948 84.4578 209.227 84.7686 209.575 84.9885C209.933 85.2085 210.329 85.3184 210.765 85.3184Z" fill="black"></path> <path d="M220.379 86.4373V84.8307L220.313 84.5295V81.7897C220.313 81.2064 220.156 80.7569 219.843 80.4414C219.538 80.1162 219.076 79.9536 218.457 79.9536C218.048 79.9536 217.647 80.0301 217.255 80.1832C216.863 80.3266 216.532 80.5226 216.262 80.7713L215.739 79.7385C216.096 79.4229 216.523 79.1838 217.02 79.0213C217.525 78.8491 218.052 78.7631 218.601 78.7631C219.551 78.7631 220.283 79.0165 220.797 79.5233C221.311 80.0301 221.568 80.8047 221.568 81.8471V86.4373H220.379ZM218.105 86.5234C217.59 86.5234 217.137 86.4277 216.745 86.2365C216.362 86.0452 216.066 85.7822 215.857 85.4475C215.647 85.1033 215.543 84.716 215.543 84.2856C215.543 83.8744 215.63 83.5015 215.804 83.1668C215.987 82.8321 216.279 82.5643 216.68 82.3635C217.089 82.1627 217.638 82.0623 218.327 82.0623H220.522V83.052H218.379C217.752 83.052 217.329 83.1668 217.111 83.3963C216.893 83.6258 216.784 83.9031 216.784 84.2283C216.784 84.6012 216.92 84.9024 217.19 85.132C217.46 85.3519 217.834 85.4619 218.314 85.4619C218.784 85.4619 219.194 85.3471 219.542 85.1176C219.899 84.8881 220.156 84.5534 220.313 84.1135L220.562 85.0602C220.396 85.5097 220.104 85.8683 219.686 86.1361C219.268 86.3943 218.741 86.5234 218.105 86.5234Z" fill="black"></path> <path d="M225.738 86.5377C226.348 86.5377 226.888 86.4421 227.359 86.2508C227.838 86.05 228.217 85.7775 228.496 85.4332C228.775 85.0794 228.914 84.6729 228.914 84.2139C228.914 83.6401 228.692 83.1859 228.248 82.8512C227.803 82.5165 227.193 82.3492 226.418 82.3492L226.366 82.6791C226.819 82.6791 227.22 82.5978 227.568 82.4352C227.917 82.2726 228.195 82.0527 228.405 81.7754C228.614 81.4885 228.718 81.1634 228.718 80.8C228.718 80.3696 228.579 79.9967 228.3 79.6811C228.03 79.3655 227.66 79.1265 227.189 78.9639C226.719 78.7917 226.183 78.7152 225.581 78.7344C225.181 78.7439 224.775 78.8109 224.366 78.9352C223.965 79.0499 223.556 79.2173 223.137 79.4372L223.477 80.5131C223.852 80.3123 224.218 80.164 224.575 80.0684C224.941 79.9728 225.298 79.9202 225.647 79.9106C226.004 79.9106 226.313 79.9536 226.575 80.0397C226.845 80.1258 227.054 80.2501 227.202 80.4127C227.35 80.5752 227.424 80.7713 227.424 81.0008C227.424 81.2112 227.359 81.3976 227.228 81.5602C227.106 81.7132 226.932 81.828 226.705 81.9045C226.479 81.981 226.213 82.0192 225.908 82.0192H224.732V83.009H225.987C226.501 83.009 226.901 83.1046 227.189 83.2959C227.477 83.4871 227.62 83.7597 227.62 84.1135C227.62 84.3621 227.542 84.5821 227.385 84.7733C227.228 84.955 227.002 85.0985 226.705 85.2037C226.418 85.3089 226.074 85.3615 225.673 85.3615C225.237 85.3615 224.806 85.2993 224.379 85.175C223.952 85.0411 223.573 84.8594 223.242 84.6299L222.863 85.677C223.255 85.9544 223.699 86.1695 224.196 86.3225C224.701 86.466 225.215 86.5377 225.738 86.5377Z" fill="black"></path> <path d="M230.822 86.4373V78.8348H234.037C234.847 78.8348 235.483 79.0069 235.945 79.3512C236.416 79.6859 236.651 80.164 236.651 80.7856C236.651 81.4072 236.429 81.8901 235.984 82.2344C235.549 82.5691 234.969 82.7364 234.246 82.7364L234.442 82.3635C235.27 82.3635 235.884 82.5308 236.285 82.8655C236.686 83.2003 236.886 83.6927 236.886 84.343C236.886 85.0029 236.66 85.5193 236.206 85.8922C235.762 86.2556 235.078 86.4373 234.154 86.4373H230.822ZM232.05 85.3758H234.063C234.586 85.3758 234.978 85.2897 235.239 85.1176C235.501 84.9359 235.631 84.649 235.631 84.257C235.631 83.8553 235.509 83.5636 235.265 83.3819C235.03 83.1907 234.655 83.0951 234.141 83.0951H232.05V85.3758ZM232.05 82.1053H233.932C234.412 82.1053 234.773 82.0097 235.017 81.8184C235.27 81.6176 235.396 81.3403 235.396 80.9864C235.396 80.623 235.27 80.3505 235.017 80.1688C234.773 79.9871 234.412 79.8963 233.932 79.8963H232.05V82.1053Z" fill="black"></path> <path d="M238.85 86.4373V78.8348H240.105V84.3717L244.352 78.8348H245.489V86.4373H244.235V80.9004L240 86.4373H238.85Z" fill="black"></path> <path d="M249.297 86.4373V79.6811L249.611 80.0397H246.761V78.8348H253.087V80.0397H250.251L250.552 79.6811V86.4373H249.297Z" fill="black"></path> <path d="M254.37 86.4373V78.8348H255.625V84.3717L259.873 78.8348H261.01V86.4373H259.755V80.9004L255.52 86.4373H254.37Z" fill="black"></path> <path d="M267.876 86.4373V83.7692L268.072 84.0274H265.863C264.939 84.0274 264.216 83.8123 263.693 83.3819C263.179 82.9516 262.922 82.3252 262.922 81.5028C262.922 80.623 263.197 79.9584 263.746 79.509C264.303 79.0595 265.044 78.8348 265.967 78.8348H269V86.4373H267.876ZM262.857 86.4373L264.739 83.5254H266.033L264.203 86.4373H262.857ZM267.876 83.3389V79.6524L268.072 80.0397H266.007C265.432 80.0397 264.987 80.1592 264.674 80.3983C264.36 80.6278 264.203 81.0103 264.203 81.5459C264.203 82.5404 264.787 83.0377 265.954 83.0377H268.072L267.876 83.3389Z" fill="black"></path> <path d="M119.057 103.855V93.8144H120.351V101.56L125.762 93.8144H126.965V103.855H125.684V96.1238L120.26 103.855H119.057Z" fill="black"></path> <path d="M131.686 103.855V94.6894L132.013 95.0624H128.562V93.8144H136.103V95.0624H132.653L132.967 94.6894V103.855H131.686Z" fill="black"></path> <path d="M136.578 100.513V99.3226H140.094V100.513H136.578Z" fill="black"></path> <path d="M145.147 103.942C144.45 103.942 143.831 103.774 143.291 103.439C142.75 103.105 142.324 102.646 142.01 102.062C141.696 101.47 141.539 100.8 141.539 100.054C141.539 99.2987 141.696 98.6293 142.01 98.046C142.324 97.4626 142.75 97.0084 143.291 96.6833C143.831 96.3486 144.45 96.1812 145.147 96.1812C145.835 96.1812 146.449 96.3486 146.989 96.6833C147.538 97.0084 147.965 97.4626 148.27 98.046C148.584 98.6198 148.741 99.2892 148.741 100.054C148.741 100.81 148.584 101.479 148.27 102.062C147.965 102.646 147.538 103.105 146.989 103.439C146.449 103.774 145.835 103.942 145.147 103.942ZM145.147 102.737C145.591 102.737 145.987 102.627 146.336 102.407C146.693 102.187 146.972 101.876 147.172 101.474C147.373 101.063 147.473 100.59 147.473 100.054C147.473 99.5091 147.373 99.0405 147.172 98.6484C146.972 98.2468 146.693 97.936 146.336 97.7161C145.987 97.4961 145.591 97.3861 145.147 97.3861C144.702 97.3861 144.306 97.4961 143.957 97.7161C143.609 97.936 143.33 98.2468 143.121 98.6484C142.912 99.0405 142.807 99.5091 142.807 100.054C142.807 100.59 142.912 101.063 143.121 101.474C143.33 101.876 143.609 102.187 143.957 102.407C144.306 102.627 144.702 102.737 145.147 102.737Z" fill="black"></path> <path d="M151.67 103.855V97.0993L151.983 97.4579H149.134V96.2529H155.46V97.4579H152.624L152.924 97.0993V103.855H151.67Z" fill="black"></path> <path d="M160.415 103.942C159.84 103.942 159.313 103.798 158.834 103.511C158.363 103.215 157.984 102.78 157.697 102.206C157.418 101.632 157.279 100.915 157.279 100.054C157.279 99.1935 157.414 98.4763 157.684 97.9025C157.963 97.3288 158.337 96.8984 158.808 96.6115C159.287 96.3247 159.823 96.1812 160.415 96.1812C161.095 96.1812 161.696 96.3438 162.219 96.6689C162.742 96.9941 163.156 97.4483 163.461 98.0316C163.766 98.6054 163.918 99.2796 163.918 100.054C163.918 100.829 163.766 101.508 163.461 102.091C163.156 102.674 162.742 103.129 162.219 103.454C161.696 103.779 161.095 103.942 160.415 103.942ZM156.743 106.638V96.2529H157.945V98.3042L157.867 100.069L157.997 101.833V106.638H156.743ZM160.311 102.737C160.755 102.737 161.152 102.627 161.5 102.407C161.857 102.187 162.136 101.876 162.337 101.474C162.546 101.063 162.65 100.59 162.65 100.054C162.65 99.5091 162.546 99.0405 162.337 98.6484C162.136 98.2468 161.857 97.936 161.5 97.7161C161.152 97.4961 160.755 97.3861 160.311 97.3861C159.875 97.3861 159.479 97.4961 159.121 97.7161C158.773 97.936 158.494 98.2468 158.285 98.6484C158.085 99.0405 157.984 99.5091 157.984 100.054C157.984 100.59 158.085 101.063 158.285 101.474C158.494 101.876 158.773 102.187 159.121 102.407C159.479 102.627 159.875 102.737 160.311 102.737Z" fill="black"></path> <path d="M169.925 103.855V102.249L169.86 101.948V99.2079C169.86 98.6245 169.703 98.1751 169.389 97.8595C169.084 97.5344 168.622 97.3718 168.004 97.3718C167.594 97.3718 167.193 97.4483 166.801 97.6013C166.409 97.7448 166.078 97.9408 165.808 98.1894L165.285 97.1566C165.642 96.8411 166.069 96.602 166.566 96.4394C167.071 96.2673 167.598 96.1812 168.147 96.1812C169.097 96.1812 169.829 96.4346 170.343 96.9415C170.857 97.4483 171.114 98.2229 171.114 99.2653V103.855H169.925ZM167.651 103.942C167.137 103.942 166.684 103.846 166.291 103.655C165.908 103.463 165.612 103.2 165.403 102.866C165.194 102.521 165.089 102.134 165.089 101.704C165.089 101.293 165.176 100.92 165.35 100.585C165.533 100.25 165.825 99.9825 166.226 99.7817C166.636 99.5808 167.185 99.4804 167.873 99.4804H170.069V100.47H167.925C167.298 100.47 166.875 100.585 166.657 100.814C166.44 101.044 166.331 101.321 166.331 101.646C166.331 102.019 166.466 102.321 166.736 102.55C167.006 102.77 167.381 102.88 167.86 102.88C168.33 102.88 168.74 102.765 169.088 102.536C169.446 102.306 169.703 101.972 169.86 101.532L170.108 102.478C169.942 102.928 169.65 103.286 169.232 103.554C168.814 103.812 168.287 103.942 167.651 103.942Z" fill="black"></path> <path d="M176.393 103.942C175.687 103.942 175.055 103.774 174.498 103.439C173.949 103.105 173.517 102.646 173.204 102.062C172.89 101.479 172.733 100.81 172.733 100.054C172.733 99.2987 172.89 98.6293 173.204 98.046C173.517 97.4626 173.949 97.0084 174.498 96.6833C175.055 96.3486 175.687 96.1812 176.393 96.1812C177.02 96.1812 177.578 96.3199 178.066 96.5972C178.562 96.865 178.946 97.2666 179.216 97.8021L178.262 98.4763C178.035 98.1034 177.756 97.8308 177.425 97.6587C177.103 97.477 176.754 97.3861 176.38 97.3861C175.926 97.3861 175.521 97.4961 175.164 97.7161C174.807 97.936 174.524 98.2468 174.315 98.6484C174.105 99.0405 174.001 99.5091 174.001 100.054C174.001 100.599 174.105 101.073 174.315 101.474C174.524 101.876 174.807 102.187 175.164 102.407C175.521 102.627 175.926 102.737 176.38 102.737C176.754 102.737 177.103 102.651 177.425 102.478C177.756 102.297 178.035 102.019 178.262 101.646L179.216 102.306C178.946 102.832 178.562 103.239 178.066 103.526C177.578 103.803 177.02 103.942 176.393 103.942Z" fill="black"></path> <path d="M179.486 103.841L179.564 102.679C179.625 102.689 179.682 102.698 179.734 102.708C179.786 102.717 179.834 102.722 179.878 102.722C180.157 102.722 180.375 102.617 180.531 102.407C180.697 102.196 180.819 101.919 180.897 101.575C180.976 101.221 181.032 100.824 181.067 100.384C181.102 99.9442 181.128 99.5043 181.146 99.0644L181.263 96.2529H186.583V103.855H185.328V97.0562L185.629 97.4579H182.074L182.361 97.0419L182.27 99.1505C182.244 99.8199 182.196 100.446 182.126 101.03C182.056 101.613 181.947 102.125 181.799 102.564C181.66 103.004 181.464 103.349 181.211 103.597C180.967 103.846 180.649 103.97 180.257 103.97C180.144 103.97 180.022 103.956 179.891 103.927C179.769 103.908 179.634 103.879 179.486 103.841Z" fill="black"></path> <path d="M189.009 103.855V96.2529H190.263V101.79L194.511 96.2529H195.648V103.855H194.393V98.3185L190.159 103.855H189.009Z" fill="black"></path> <path d="M201.803 103.855V93.8144H205.371C206.172 93.8144 206.856 93.9531 207.423 94.2304C207.989 94.5077 208.425 94.9093 208.73 95.4353C209.035 95.9613 209.187 96.5876 209.187 97.3144C209.187 98.0412 209.035 98.6676 208.73 99.1935C208.425 99.7099 207.989 100.112 207.423 100.398C206.856 100.676 206.172 100.814 205.371 100.814H202.521L203.11 100.14V103.855H201.803ZM203.11 100.284L202.521 99.5665H205.331C206.168 99.5665 206.8 99.3704 207.227 98.9784C207.662 98.5863 207.88 98.0316 207.88 97.3144C207.88 96.5972 207.662 96.0426 207.227 95.6505C206.8 95.2584 206.168 95.0624 205.331 95.0624H202.521L203.11 94.3451V100.284Z" fill="black"></path> <path d="M215.223 103.97C214.526 103.97 213.882 103.846 213.289 103.597C212.705 103.339 212.196 102.98 211.76 102.521C211.333 102.053 210.998 101.508 210.754 100.886C210.51 100.265 210.388 99.5808 210.388 98.8349C210.388 98.089 210.51 97.4053 210.754 96.7837C210.998 96.1621 211.337 95.6218 211.773 95.1628C212.209 94.6942 212.718 94.3356 213.302 94.0869C213.895 93.8287 214.539 93.6996 215.237 93.6996C215.942 93.6996 216.591 93.8335 217.184 94.1013C217.785 94.3595 218.295 94.7468 218.713 95.2632L217.864 96.1669C217.515 95.7652 217.123 95.4688 216.687 95.2775C216.252 95.0767 215.785 94.9763 215.289 94.9763C214.775 94.9763 214.296 95.0719 213.851 95.2632C213.415 95.4544 213.036 95.7222 212.714 96.0665C212.392 96.4107 212.139 96.8219 211.956 97.3001C211.782 97.7687 211.695 98.2803 211.695 98.8349C211.695 99.3896 211.782 99.906 211.956 100.384C212.139 100.853 212.392 101.259 212.714 101.603C213.036 101.948 213.415 102.215 213.851 102.407C214.296 102.598 214.775 102.694 215.289 102.694C215.785 102.694 216.252 102.598 216.687 102.407C217.123 102.206 217.515 101.9 217.864 101.489L218.713 102.392C218.295 102.909 217.785 103.301 217.184 103.569C216.591 103.836 215.938 103.97 215.223 103.97Z" fill="black"></path> <path d="M221.886 106.638C221.389 105.768 221.006 104.764 220.736 103.626C220.466 102.478 220.331 101.245 220.331 99.9251C220.331 98.6054 220.466 97.3718 220.736 96.2243C221.006 95.0671 221.389 94.063 221.886 93.2119H223.075C222.553 94.2256 222.169 95.2871 221.925 96.3964C221.681 97.4961 221.559 98.6724 221.559 99.9251C221.559 101.178 221.681 102.359 221.925 103.468C222.169 104.568 222.553 105.625 223.075 106.638H221.886Z" fill="black"></path> <path d="M230.341 103.855V100.585L230.681 100.929H227.819C227.078 100.929 226.438 100.791 225.897 100.513C225.366 100.236 224.956 99.839 224.669 99.3226C224.39 98.7967 224.251 98.1655 224.251 97.4292C224.251 96.6641 224.403 96.0139 224.708 95.4783C225.013 94.9333 225.444 94.5221 226.002 94.2447C226.56 93.9578 227.209 93.8144 227.949 93.8144H231.622V103.855H230.341ZM224.251 103.855L226.512 100.298H227.845L225.636 103.855H224.251ZM230.341 100.126V94.6464L230.681 95.0624H228.002C227.217 95.0624 226.616 95.2632 226.198 95.6648C225.78 96.0569 225.571 96.6402 225.571 97.4148C225.571 98.1512 225.767 98.7202 226.159 99.1218C226.56 99.5235 227.148 99.7243 227.923 99.7243H230.681L230.341 100.126Z" fill="black"></path> <path d="M234.66 106.638H233.471C234.002 105.625 234.39 104.568 234.634 103.468C234.878 102.359 235 101.178 235 99.9251C235 98.6724 234.878 97.4961 234.634 96.3964C234.39 95.2871 234.002 94.2256 233.471 93.2119H234.66C235.174 94.063 235.562 95.0671 235.823 96.2243C236.093 97.3718 236.228 98.6054 236.228 99.9251C236.228 101.245 236.093 102.478 235.823 103.626C235.562 104.764 235.174 105.768 234.66 106.638Z" fill="black"></path> <defs> <clipPath id="clip0_890_514"> <rect width="71.8734" height="55.4453" fill="white" transform="translate(34 60.5547)"></rect> </clipPath> </defs> </svg> 