<?xml version="1.0" encoding="UTF-8"?> <svg xmlns="http://www.w3.org/2000/svg" width="302" height="177" viewBox="0 0 302 177" fill="none"> <rect width="302" height="177" rx="10" fill="white"></rect> <path d="M139.619 88.9585C139.619 97.7469 134.259 101.892 127.662 101.892H123.621V96.669H127.415C131.455 96.669 134.094 94.5134 134.094 89.0414C134.094 83.6523 131.538 80.9163 127.25 80.9163C123.127 80.9163 120.158 83.4865 120.158 88.9585V111.012H114.633V76.2734H120.158V79.2581H120.983C122.797 76.7709 125.6 75.6101 128.404 75.6101C134.506 75.6101 139.619 80.0872 139.619 88.9585ZM103.088 86.72L99.3773 86.3883C96.4911 86.1396 94.9243 85.3105 94.9243 83.6523C94.9243 81.6625 96.9034 80.5018 99.7071 80.5018C102.593 80.5018 104.49 81.9112 104.655 83.8181H110.015C109.768 78.8436 105.974 75.776 99.7896 75.776C93.6049 75.776 89.3993 79.0923 89.3993 83.901C89.3993 87.9636 91.9556 90.5338 97.728 91.1141L101.521 91.4458C103.83 91.6945 105.315 92.109 105.315 94.3476C105.315 96.3374 103.913 97.7469 100.119 97.7469C96.656 97.7469 94.9243 96.1716 94.347 94.016H88.5746C89.1519 98.8247 93.1926 102.639 100.119 102.639C106.634 102.639 110.84 99.1563 110.84 94.0989C110.84 89.456 107.871 87.2174 103.088 86.72ZM161.142 93.933C160.235 95.9229 158.173 97.4981 155.205 97.4981C151.164 97.4981 148.113 94.8451 148.113 89.1243C148.113 83.6523 150.917 80.5847 155.287 80.5847C159.163 80.5847 161.389 82.9061 161.554 86.4712H151.576V90.5338H166.997V87.8807C166.997 80.5018 162.132 75.6931 155.205 75.6931C148.773 75.6931 142.588 80.0872 142.588 89.1243C142.588 98.1614 148.773 102.556 155.205 102.556C161.142 102.556 165.348 98.9076 166.585 93.933H161.142ZM73.5664 75.6101C67.4641 75.6101 62.9287 78.7607 62.4339 83.6523H68.3712C68.7836 81.8283 70.4328 80.5018 73.5664 80.5018C77.6071 80.5018 78.9265 82.6574 78.9265 85.2276V94.016C76.6175 96.5861 73.9787 97.8298 71.3399 97.8298C68.6186 97.8298 66.722 96.5032 66.722 94.0989C66.722 91.7774 68.2063 90.368 71.0925 90.368H75.5455V86.3054H70.9276C64.578 86.3054 61.032 89.456 61.032 94.3476C61.032 98.9076 64.4955 102.39 70.103 102.39C73.2366 102.39 76.0403 101.146 78.1019 99.5709H78.9265V101.727H84.4515V84.8131C84.4515 78.4291 80.1634 75.6101 73.5664 75.6101ZM35.8809 101.892H41.4059V66.8218H35.8809V101.892ZM59.2179 76.2734H52.4559L44.3745 86.9687V90.2851L52.7033 101.892H59.5477L49.8171 88.6269L59.2179 76.2734ZM259.933 76.2734L255.397 86.3883C254.325 88.8756 253.253 91.1971 252.923 92.8552H252.099C251.769 91.28 250.697 88.9585 249.542 86.4712L245.089 76.2734H238.987L249.707 99.3221L244.43 110.929H250.367L266.2 76.2734H259.933ZM237.668 76.2734H230.906L222.824 86.9687V90.2851L231.153 101.892H237.997L228.267 88.6269L237.668 76.2734ZM202.951 86.72L199.24 86.3883C196.354 86.1396 194.787 85.3105 194.787 83.6523C194.787 81.6625 196.766 80.5018 199.57 80.5018C202.456 80.5018 204.353 81.9112 204.517 83.8181H209.878C209.63 78.8436 205.837 75.776 199.652 75.776C193.467 75.776 189.262 79.0923 189.262 83.901C189.262 87.9636 191.818 90.5338 197.591 91.1141L201.384 91.4458C203.693 91.6945 205.177 92.109 205.177 94.3476C205.177 96.3374 203.775 97.7469 199.982 97.7469C196.519 97.7469 194.787 96.1716 194.21 94.016H188.437C189.014 98.8247 193.055 102.639 199.982 102.639C206.497 102.639 210.702 99.1563 210.702 94.0989C210.62 89.456 207.651 87.2174 202.951 86.72ZM214.331 101.892H219.856V66.8218H214.331V101.892ZM177.717 79.2581H176.892V76.2734H171.367V101.892H176.892V88.544C176.892 83.984 178.954 81.3309 183.16 81.3309H186.705V75.6931H184.644C180.851 75.6101 179.201 77.1025 177.717 79.2581Z" fill="#00A88E"></path> </svg> 