<?xml version="1.0" encoding="UTF-8"?> <svg xmlns="http://www.w3.org/2000/svg" width="303" height="177" viewBox="0 0 303 177" fill="none"> <rect width="303" height="177" rx="10" fill="white"></rect> <path d="M80.7098 49.9997L61.4248 69.2349L80.7098 88.47L99.9948 69.2349L80.7098 49.9997Z" fill="#7FD3F4"></path> <path d="M61.4241 69.1933L42.1392 88.4285L61.4241 107.664L80.7091 88.4285L61.4241 69.1933Z" fill="#00A777"></path> <path d="M80.7098 88.4558L61.4248 107.691L80.7098 126.926L99.9948 107.691L80.7098 88.4558Z" fill="#006B83"></path> <path d="M99.991 69.1933L80.7061 88.4285L99.991 107.664L119.276 88.4285L99.991 69.1933Z" fill="#00AEEF"></path> <path d="M146.063 71.4438C146.204 71.6262 146.279 71.8501 146.279 72.1154C146.279 72.5134 146.129 72.8201 145.83 73.0357C145.531 73.2596 145.107 73.3673 144.55 73.3673H142.355V68.9233H144.434C144.949 68.9233 145.356 69.0228 145.647 69.2218C145.938 69.4208 146.079 69.7027 146.079 70.0758C146.079 70.2997 146.021 70.4903 145.913 70.6562C145.805 70.822 145.647 70.9546 145.448 71.0541C145.714 71.137 145.922 71.2614 146.063 71.4438ZM143.378 70.7639H144.342C144.567 70.7639 144.741 70.7225 144.849 70.6313C144.966 70.5401 145.024 70.4074 145.024 70.225C145.024 70.0509 144.966 69.9183 144.849 69.8271C144.733 69.7359 144.567 69.6861 144.342 69.6861H143.378V70.7639ZM145.24 72.0408C145.24 71.676 144.999 71.4853 144.517 71.4853H143.378V72.6129H144.508C144.999 72.6129 145.24 72.4222 145.24 72.0408Z" fill="#112E39"></path> <path d="M152.146 72.5382V73.3673H148.697V68.9233H152.063V69.7524H149.719V70.7142H151.789V71.5184H149.719V72.5465H152.146V72.5382Z" fill="#112E39"></path> <path d="M158.671 68.9233V73.3673H157.64V71.5433H155.612V73.3673H154.581V68.9233H155.612V70.6728H157.64V68.9233H158.671Z" fill="#112E39"></path> <path d="M164.899 68.9316V73.3756H163.877V71.7755C163.494 71.9164 163.129 71.9827 162.804 71.9827C162.206 71.9827 161.749 71.8418 161.433 71.5516C161.117 71.2697 160.959 70.8551 160.959 70.3162V68.9233H161.981V70.2002C161.981 70.5069 162.065 70.7391 162.231 70.8883C162.397 71.0458 162.63 71.1205 162.937 71.1205C163.278 71.1205 163.594 71.0541 163.893 70.9215V68.9233H164.899V68.9316Z" fill="#112E39"></path> <path d="M176.661 69.1306C176.952 69.2633 177.176 69.4457 177.334 69.6861C177.492 69.9266 177.567 70.2167 177.567 70.5401C177.567 70.8634 177.492 71.1536 177.334 71.3941C177.176 71.6345 176.952 71.8252 176.661 71.9496C176.37 72.0822 176.029 72.1403 175.63 72.1403H174.732V73.3673H173.702V68.9233H175.63C176.029 68.9316 176.37 68.998 176.661 69.1306ZM176.279 71.1122C176.436 70.9795 176.52 70.7888 176.52 70.5484C176.52 70.2997 176.436 70.109 176.279 69.9763C176.121 69.8436 175.88 69.7773 175.572 69.7773H174.732V71.3194H175.572C175.888 71.3194 176.121 71.2531 176.279 71.1122Z" fill="#112E39"></path> <path d="M183.914 68.9233V73.3673H182.884V71.5433H180.855V73.3673H179.825V68.9233H180.855V70.6728H182.884V68.9233H183.914Z" fill="#112E39"></path> <path d="M189.65 72.4139H187.58L187.181 73.3673H186.125L188.112 68.9233H189.134L191.129 73.3673H190.049L189.65 72.4139ZM189.325 71.6262L188.619 69.9266L187.912 71.6262H189.325Z" fill="#112E39"></path> <path d="M196.629 68.9316V73.3756H195.607V72.1983H194.668L193.878 73.3756H192.789L193.72 72.0325C193.421 71.9081 193.188 71.7257 193.03 71.477C192.872 71.2282 192.789 70.9298 192.789 70.5815C192.789 70.2416 192.864 69.9431 193.022 69.6944C193.18 69.4457 193.404 69.255 193.687 69.1223C193.978 68.9897 194.319 68.9233 194.709 68.9233H196.629V68.9316ZM194.061 69.9763C193.903 70.109 193.828 70.3162 193.828 70.5815C193.828 70.8386 193.903 71.0376 194.053 71.1785C194.202 71.3194 194.418 71.3858 194.709 71.3858H195.615V69.769H194.734C194.443 69.769 194.219 69.8436 194.061 69.9763Z" fill="#112E39"></path> <path d="M204.491 71.5765H203.776V73.3673H202.754V68.9233H203.776V70.7225H204.516L205.688 68.9233H206.777L205.322 71.0707L206.827 73.3673H205.655L204.491 71.5765Z" fill="#112E39"></path> <path d="M209.746 73.1378C209.372 72.9388 209.081 72.6652 208.873 72.317C208.665 71.9687 208.557 71.5708 208.557 71.1396C208.557 70.7002 208.665 70.3105 208.873 69.9623C209.081 69.6141 209.372 69.3405 209.746 69.1415C210.12 68.9425 210.536 68.843 211.001 68.843C211.467 68.843 211.882 68.9425 212.248 69.1415C212.614 69.3405 212.905 69.6141 213.121 69.9623C213.337 70.3105 213.437 70.7085 213.437 71.1396C213.437 71.5791 213.329 71.9687 213.121 72.317C212.905 72.6652 212.614 72.9388 212.248 73.1378C211.882 73.3368 211.467 73.4363 211.001 73.4363C210.536 73.4363 210.112 73.3368 209.746 73.1378ZM211.708 72.375C211.924 72.2506 212.09 72.0848 212.206 71.8693C212.331 71.6537 212.389 71.405 212.389 71.1313C212.389 70.8577 212.331 70.609 212.206 70.3934C212.082 70.1779 211.915 70.0121 211.708 69.8877C211.491 69.7633 211.259 69.7053 210.993 69.7053C210.727 69.7053 210.494 69.7633 210.278 69.8877C210.062 70.0121 209.895 70.1779 209.779 70.3934C209.654 70.609 209.596 70.8577 209.596 71.1313C209.596 71.405 209.654 71.6537 209.779 71.8693C209.904 72.0848 210.07 72.2506 210.278 72.375C210.494 72.4994 210.727 72.5574 210.993 72.5574C211.259 72.5574 211.5 72.4994 211.708 72.375Z" fill="#112E39"></path> <path d="M219.867 73.3673L219.858 70.7059L218.545 72.8947H218.088L216.774 70.7557V73.3673H215.81V68.9233H216.666L218.337 71.6843L219.983 68.9233H220.839L220.847 73.3673H219.867Z" fill="#112E39"></path> <path d="M227.599 68.9233V73.3673H226.577V69.7607H224.565V73.3673H223.542V68.9233H227.599Z" fill="#112E39"></path> <path d="M233.318 72.4139H231.248L230.857 73.3673H229.802L231.788 68.9233H232.811L234.806 73.3673H233.725L233.318 72.4139ZM232.994 71.6262L232.287 69.9266L231.581 71.6262H232.994Z" fill="#112E39"></path> <path d="M241.051 68.9233V73.3673H240.02V71.5433H237.992V73.3673H236.961V68.9233H237.992V70.6728H240.02V68.9233H241.051Z" fill="#112E39"></path> <path d="M243.77 68.9233H244.792V71.8169L246.92 68.9233H247.884V73.3673H246.862V70.4738L244.734 73.3673H243.761V68.9233H243.77Z" fill="#112E39"></path> <path d="M254.152 68.9316V73.3756H253.13V72.1983H252.191L251.401 73.3756H250.312L251.243 72.0325C250.944 71.9081 250.711 71.7257 250.545 71.477C250.387 71.2282 250.304 70.9298 250.304 70.5815C250.304 70.2416 250.379 69.9431 250.536 69.6944C250.694 69.4457 250.919 69.255 251.201 69.1223C251.492 68.9897 251.833 68.9233 252.224 68.9233H254.152V68.9316ZM251.584 69.9763C251.426 70.109 251.351 70.3162 251.351 70.5815C251.351 70.8386 251.426 71.0376 251.576 71.1785C251.725 71.3194 251.941 71.3858 252.232 71.3858H253.138V69.769H252.257C251.966 69.769 251.742 69.8436 251.584 69.9763Z" fill="#112E39"></path> <path d="M170.505 68.9233L169.325 71.2282L168.103 68.9233H166.997L168.809 72.2398L168.227 73.3756H169.316L171.519 68.9233H170.505Z" fill="#112E39"></path> <path d="M152.505 80.7947V100.619H147.958V95.3537H143.76L140.235 100.619H135.389L139.537 94.6407C138.191 94.0935 137.16 93.2644 136.445 92.1617C135.722 91.059 135.364 89.7324 135.364 88.182C135.364 86.6482 135.713 85.3382 136.412 84.2355C137.11 83.1327 138.107 82.2788 139.396 81.6901C140.684 81.0932 142.197 80.7947 143.943 80.7947H152.505ZM141.05 85.4377C140.36 86.0429 140.011 86.9383 140.011 88.124C140.011 89.2764 140.343 90.1636 141.008 90.7854C141.673 91.4072 142.646 91.7223 143.934 91.7223H147.966V84.5256H144.051C142.737 84.5339 141.74 84.8324 141.05 85.4377Z" fill="#112E39"></path> <path d="M166.295 92.6343H163.12V100.619H158.548V80.7947H163.12V88.8121H166.411L171.64 80.7947H176.495L169.994 90.3708L176.694 100.627H171.465L166.295 92.6343Z" fill="#112E39"></path> <path d="M216.841 84.5339H210.482V100.619H205.943V84.5339H199.609V80.7947H216.841V84.5339Z" fill="#112E39"></path> <path d="M220.888 80.7947H225.46V93.7121L234.945 80.7947H239.259V100.619H234.712V87.7343L225.227 100.619H220.888V80.7947Z" fill="#112E39"></path> <path d="M261.192 80.7947V100.619H256.645V95.3537H252.439L248.922 100.619H244.068L248.216 94.6407C246.869 94.0935 245.838 93.2644 245.124 92.1617C244.4 91.059 244.043 89.7324 244.043 88.182C244.043 86.6482 244.392 85.3382 245.09 84.2355C245.789 83.1327 246.786 82.2788 248.075 81.6901C249.363 81.0932 250.876 80.7947 252.621 80.7947H261.192ZM249.737 85.4377C249.047 86.0429 248.698 86.9383 248.698 88.124C248.698 89.2764 249.03 90.1636 249.695 90.7854C250.36 91.4072 251.333 91.7223 252.621 91.7223H256.653V84.5256H252.738C251.424 84.5339 250.427 84.8324 249.737 85.4377Z" fill="#112E39"></path> <path d="M193.766 80.7947L188.513 91.059L183.035 80.7947H178.122L186.194 95.5776L183.608 100.619H188.471L198.28 80.7947H193.766Z" fill="#112E39"></path> </svg> 